STARTFONT 2.1
COMMENT
COMMENT Converted from OpenType font "manrope-extrabold.otf" by "otf2bdf 3.0".
COMMENT
FONT -FreeType-Manrope ExtraBold-Medium-R-Normal--108-780-100-100-P-527-ISO10646-1
SIZE 78 100 100
FONTBOUNDINGBOX 113 141 -6 -28
STARTPROPERTIES 19
FOUNDRY "FreeType"
FAMILY_NAME "Manrope ExtraBold"
WEIGHT_NAME "Medium"
SLANT "R"
SETWIDTH_NAME "Normal"
ADD_STYLE_NAME ""
PIXEL_SIZE 108
POINT_SIZE 780
RESOLUTION_X 100
RESOLUTION_Y 100
SPACING "P"
AVERAGE_WIDTH 527
CHARSET_REGISTRY "ISO10646"
CHARSET_ENCODING "1"
FONT_ASCENT 115
FONT_DESCENT 32
COPYRIGHT "Copyright 2019-2021 The Manrope Project Authors (https://github.com/sharanda/manrope)"
_OTF_FONTFILE "manrope-extrabold.otf"
_OTF_PSNAME "Manrope-ExtraBold"
ENDPROPERTIES
CHARS 191
STARTCHAR 0020
ENCODING 32
SWIDTH 203 0
DWIDTH 22 0
BBX 0 0 0 0
BITMAP
ENDCHAR
STARTCHAR 0021
ENCODING 33
SWIDTH 378 0
DWIDTH 41 0
BBX 15 78 13 0
BITMAP
FFFE
FFFE
FFFE
FFFE
FFFE
FFFE
FFFE
FFFE
FFFE
FFFE
FFFE
FFFE
FFFE
FFFE
FFFE
FFFE
FFFE
FFFE
FFFE
FFFE
FFFE
FFFE
FFFE
FFFE
FFFE
FFFE
FFFE
FFFE
FFFE
FFFE
FFFE
FFFE
FFFE
FFFE
FFFE
FFFE
FFFE
FFFE
FFFE
FFFE
FFFE
FFFE
FFFE
FFFE
FFFE
FFFE
FFFE
FFFE
FFFE
FFFE
FFFE
FFFE
FFFE
FFFE
FFFE
FFFE
FFFE
FFFE
FFFE
0000
0000
0000
0000
0000
0000
FFFE
FFFE
FFFE
FFFE
FFFE
FFFE
FFFE
FFFE
FFFE
FFFE
FFFE
FFFE
FFFE
ENDCHAR
STARTCHAR 0022
ENCODING 34
SWIDTH 489 0
DWIDTH 53 0
BBX 36 20 6 58
BITMAP
FFFE03FFF0
FFFE03FFF0
FFFE03FFF0
FFFE03FFF0
FFFE03FFF0
FFFE03FFF0
FFFE03FFF0
FFFE03FFF0
FFFE03FFF0
FFFE03FFF0
FFFE03FFF0
FFFE03FFF0
FFFE03FFF0
FFFE03FFF0
FFFE03FFF0
FFFE03FFF0
FFFE03FFF0
FFFE03FFF0
FFFE03FFF0
FFFE03FFF0
ENDCHAR
STARTCHAR 0023
ENCODING 35
SWIDTH 932 0
DWIDTH 101 0
BBX 88 77 7 1
BITMAP
000000003FFF000FFFC000
000000007FFF001FFFC000
000000007FFE001FFF8000
000000007FFE001FFF8000
00000000FFFE003FFF8000
00000000FFFC003FFF0000
00000000FFFC003FFF0000
00000000FFFC003FFF0000
00000001FFFC007FFF0000
00000001FFF8007FFE0000
00000001FFF8007FFE0000
00000003FFF800FFFE0000
00000003FFF000FFFC0000
00000003FFF000FFFC0000
00000003FFF000FFFC0000
00000007FFF001FFFC0000
00000007FFE001FFF80000
00000007FFE001FFF80000
003FFFFFFFFFFFFFFFFFFF
007FFFFFFFFFFFFFFFFFFE
007FFFFFFFFFFFFFFFFFFE
007FFFFFFFFFFFFFFFFFFE
007FFFFFFFFFFFFFFFFFFE
00FFFFFFFFFFFFFFFFFFFC
00FFFFFFFFFFFFFFFFFFFC
00FFFFFFFFFFFFFFFFFFFC
00FFFFFFFFFFFFFFFFFFFC
01FFFFFFFFFFFFFFFFFFF8
01FFFFFFFFFFFFFFFFFFF8
01FFFFFFFFFFFFFFFFFFF8
03FFFFFFFFFFFFFFFFFFF0
03FFFFFFFFFFFFFFFFFFF0
0000007FFE001FFF800000
0000007FFE003FFF800000
000000FFFE003FFF800000
000000FFFC003FFF000000
000000FFFC003FFF000000
000001FFFC007FFF000000
000001FFFC007FFE000000
000001FFF8007FFE000000
000001FFF8007FFE000000
000003FFF800FFFE000000
000003FFF800FFFC000000
1FFFFFFFFFFFFFFFFFFF80
1FFFFFFFFFFFFFFFFFFF80
1FFFFFFFFFFFFFFFFFFF00
3FFFFFFFFFFFFFFFFFFF00
3FFFFFFFFFFFFFFFFFFF00
3FFFFFFFFFFFFFFFFFFF00
7FFFFFFFFFFFFFFFFFFE00
7FFFFFFFFFFFFFFFFFFE00
7FFFFFFFFFFFFFFFFFFE00
7FFFFFFFFFFFFFFFFFFE00
FFFFFFFFFFFFFFFFFFFC00
FFFFFFFFFFFFFFFFFFFC00
FFFFFFFFFFFFFFFFFFFC00
FFFFFFFFFFFFFFFFFFFC00
00003FFF000FFFC0000000
00003FFF000FFFC0000000
00003FFF000FFFC0000000
00007FFF001FFFC0000000
00007FFE001FFF80000000
00007FFE001FFF80000000
00007FFE003FFF80000000
0000FFFE003FFF80000000
0000FFFC003FFF00000000
0000FFFC003FFF00000000
0001FFFC007FFF00000000
0001FFF8007FFE00000000
0001FFF8007FFE00000000
0001FFF8007FFE00000000
0003FFF800FFFE00000000
0003FFF000FFFC00000000
0003FFF000FFFC00000000
0003FFF000FFFC00000000
0007FFF001FFFC00000000
0007FFE001FFF800000000
ENDCHAR
STARTCHAR 0024
ENCODING 36
SWIDTH 636 0
DWIDTH 69 0
BBX 61 100 4 -11
BITMAP
000000FFFE000000
000000FFFE000000
000000FFFE000000
000000FFFE000000
000000FFFE000000
000000FFFE000000
000000FFFE000000
000000FFFE000000
000000FFFE000000
000000FFFE000000
000007FFFF800000
00003FFFFFF00000
0000FFFFFFFC0000
0003FFFFFFFF0000
000FFFFFFFFF8000
001FFFFFFFFFC000
003FFFFFFFFFF000
007FFFFFFFFFF800
00FFFFFFFFFFFC00
01FFFFFFFFFFFE00
01FFFFFFFFFFFE00
03FFFFFFFFFFFF00
07FFFFFFFFFFFF80
07FFFFC01FFFFF80
07FFFE0007FFFFC0
0FFFF80001FFFFC0
0FFFF00000FFFFE0
0FFFE000003FFFE0
0FFFE000003FFFE0
1FFFC000001FFFF0
1FFFC000000FFFF0
1FFFC000000FFFF0
1FFFC0000007FFC0
1FFFC0000007F800
1FFFE00000060000
1FFFE00000000000
0FFFF00000000000
0FFFF80000000000
0FFFFE0000000000
0FFFFFC000000000
07FFFFF800000000
07FFFFFF80000000
07FFFFFFF0000000
03FFFFFFFF000000
01FFFFFFFFE00000
01FFFFFFFFFC0000
00FFFFFFFFFF0000
007FFFFFFFFFC000
003FFFFFFFFFF000
000FFFFFFFFFF800
0007FFFFFFFFFE00
0000FFFFFFFFFF00
00003FFFFFFFFF80
000007FFFFFFFFC0
000000FFFFFFFFC0
0000001FFFFFFFE0
00000001FFFFFFE0
000000003FFFFFF0
0000000007FFFFF0
0000000000FFFFF0
00000000003FFFF8
00000000000FFFF8
000000000007FFF8
001E00000003FFF8
07FE00000003FFF8
FFFF00000003FFF8
7FFF00000003FFF8
7FFF80000003FFF8
7FFF80000003FFF8
7FFFC0000003FFF8
7FFFC0000003FFF8
3FFFE0000007FFF0
3FFFF000000FFFF0
1FFFFC00001FFFF0
1FFFFE00003FFFF0
0FFFFF8000FFFFE0
0FFFFFF007FFFFE0
07FFFFFFFFFFFFC0
07FFFFFFFFFFFF80
03FFFFFFFFFFFF80
01FFFFFFFFFFFF00
00FFFFFFFFFFFE00
007FFFFFFFFFFC00
003FFFFFFFFFF800
001FFFFFFFFFF000
0007FFFFFFFFE000
0003FFFFFFFF8000
0000FFFFFFFE0000
00003FFFFFF00000
000003FFFF800000
000000FFFE000000
000000FFFE000000
000000FFFE000000
000000FFFE000000
000000FFFE000000
000000FFFE000000
000000FFFE000000
000000FFFE000000
000000FFFE000000
000000FFFE000000
ENDCHAR
STARTCHAR 0025
ENCODING 37
SWIDTH 904 0
DWIDTH 98 0
BBX 85 82 6 -2
BITMAP
0000FF0000000000000000
0007FFE000000000000000
001FFFFC00000000018000
007FFFFE00000000038000
00FFFFFF0000000007C000
01FFFFFFC000000007E000
03FFFFFFE00000000FF000
07FFFFFFE00000001FF800
0FFFFFFFF00000003FFC00
1FFFFFFFF80000007FFE00
1FFFFFFFF8000000FFFF00
3FFFFFFFFC000001FFFF80
3FFFFFFFFC000003FFFF80
7FFF80FFFC000007FFFF00
7FFE007FFE00000FFFFE00
7FFC003FFE00001FFFFC00
7FFC003FFE00003FFFF800
7FF8001FFE00007FFFF000
7FF8001FFE0000FFFFE000
FFF8001FFF0001FFFFC000
FFF8001FFE0003FFFF8000
7FF8001FFE0007FFFF0000
7FF8003FFE000FFFFE0000
7FFC003FFE001FFFFC0000
7FFE007FFE003FFFF80000
7FFF00FFFE007FFFF00000
3FFF83FFFC00FFFFE00000
3FFFFFFFFC01FFFFC00000
3FFFFFFFF803FFFF800000
1FFFFFFFF807FFFF000000
0FFFFFFFF00FFFFE000000
0FFFFFFFF01FFFFC000000
07FFFFFFE03FFFF8000000
03FFFFFFC07FFFF0000000
01FFFFFF80FFFFE0000000
00FFFFFF01FFFFC0000000
003FFFFC03FFFF80000000
001FFFF807FFFF00000000
0003FFC00FFFFE00000000
000000001FFFFC00000000
000000003FFFF800000000
000000007FFFF000000000
00000000FFFFE000000000
00000001FFFFC00FFE0000
00000003FFFF807FFFC000
00000007FFFF01FFFFF000
0000000FFFFE03FFFFF800
0000001FFFFC07FFFFFC00
0000003FFFF80FFFFFFF00
0000007FFFF01FFFFFFF00
000000FFFFE03FFFFFFF80
000001FFFFC07FFFFFFFC0
000003FFFF807FFFFFFFC0
000007FFFF00FFFFFFFFE0
00000FFFFE00FFFFFFFFE0
00001FFFFC01FFFE0FFFF0
00003FFFF801FFF803FFF0
00007FFFF001FFF001FFF0
0000FFFFE003FFF001FFF8
0001FFFFC003FFE000FFF8
0003FFFF8003FFE000FFF8
0007FFFF0003FFC000FFF8
000FFFFE0003FFC0007FF8
001FFFFC0003FFE000FFF8
003FFFF80003FFE000FFF8
007FFFF00003FFE000FFF8
00FFFFE00003FFF001FFF8
01FFFFC00001FFF803FFF0
03FFFF800001FFFC07FFF0
07FFFF000001FFFFBFFFF0
0FFFFE000000FFFFFFFFE0
07FFFC000000FFFFFFFFE0
03FFF80000007FFFFFFFC0
01FFF00000007FFFFFFFC0
00FFE00000003FFFFFFF80
007FC00000001FFFFFFF00
003F800000000FFFFFFE00
001F0000000007FFFFFC00
000E0000000003FFFFF800
00040000000000FFFFE000
000000000000003FFF8000
0000000000000007FC0000
ENDCHAR
STARTCHAR 0026
ENCODING 38
SWIDTH 673 0
DWIDTH 73 0
BBX 66 81 5 -2
BITMAP
000001FFE000000000
00001FFFFE00000000
0000FFFFFFC0000000
0003FFFFFFF0000000
0007FFFFFFF8000000
000FFFFFFFFC000000
001FFFFFFFFF000000
003FFFFFFFFF000000
007FFFFFFFFF800000
00FFFFFFFFFFC00000
01FFFFFFFFFFE00000
01FFFFFFFFFFE00000
03FFFFFFFFFFF00000
03FFFFFFFFFFF00000
07FFFF803FFFF80000
07FFFE000FFFF80000
07FFF80007FFF80000
07FFF00003FFF00000
0FFFF00003FE000000
0FFFE00001C0000000
0FFFE0000000000000
0FFFE0000000000000
0FFFE0000000000000
0FFFE0000000000000
0FFFE0000000000000
0FFFE0000000000000
0FFFF0000000000000
07FFF8000000000000
07FFF8000000000000
07FFFC000000000000
03FFFE000000000000
03FFFF000000000000
01FFFF800000000000
00FFFFE00000000000
00FFFFF00000000000
007FFFF80000000000
003FFFFC0000000000
007FFFFE0000000000
01FFFFFF0007FFC000
03FFFFFF8007FFC000
03FFFFFFC007FFC000
07FFFFFFE007FFC000
0FFFFFFFF007FFC000
0FFFFFFFF807FFC000
1FFFFFFFFC07FFC000
1FFFFFFFFF07FFC000
3FFFFFFFFF87FFC000
3FFFE3FFFFC7FFC000
7FFFC1FFFFE7FFC000
7FFF80FFFFF7FFC000
7FFF007FFFFFFFC000
7FFF003FFFFFFFC000
7FFF001FFFFFFFC000
7FFE000FFFFFFFC000
FFFE0007FFFFFFC000
FFFE0003FFFFFFC000
FFFE0001FFFFFFC000
FFFE0000FFFFFFC000
FFFF00003FFFFFC000
7FFF00001FFFFFC000
7FFF00000FFFFFC000
7FFF800007FFFFC000
7FFF800003FFFFC000
7FFFC00001FFFFE000
3FFFF00001FFFFF000
3FFFF80007FFFFF800
3FFFFF003FFFFFFC00
1FFFFFFFFFFFFFFE00
1FFFFFFFFFFFFFFF00
0FFFFFFFFFFFFFFF80
07FFFFFFFFFFFFFFC0
07FFFFFFFFFFFFFFC0
03FFFFFFFFFFFFFF80
01FFFFFFFFFFFFFF80
00FFFFFFFFFFDFFF00
007FFFFFFFFF8FFE00
001FFFFFFFFE07FC00
0007FFFFFFF803F800
0001FFFFFFE001F000
00003FFFFF8000E000
000003FFF000004000
ENDCHAR
STARTCHAR 0027
ENCODING 39
SWIDTH 276 0
DWIDTH 30 0
BBX 15 20 6 58
BITMAP
FFFE
FFFE
FFFE
FFFE
FFFE
FFFE
FFFE
FFFE
FFFE
FFFE
FFFE
FFFE
FFFE
FFFE
FFFE
FFFE
FFFE
FFFE
FFFE
FFFE
ENDCHAR
STARTCHAR 0028
ENCODING 40
SWIDTH 461 0
DWIDTH 50 0
BBX 31 113 15 -20
BITMAP
00001800
00003E00
00007F00
00007F80
0000FFE0
0001FFF0
0003FFF8
0003FFFE
0007FFFC
0007FFF8
000FFFF0
001FFFF0
001FFFE0
003FFFC0
003FFF80
007FFF80
007FFF00
00FFFF00
00FFFE00
01FFFC00
01FFFC00
01FFF800
03FFF800
03FFF000
03FFF000
07FFE000
07FFE000
0FFFE000
0FFFC000
0FFFC000
0FFF8000
1FFF8000
1FFF8000
1FFF0000
1FFF0000
3FFF0000
3FFF0000
3FFE0000
3FFE0000
7FFE0000
7FFE0000
7FFE0000
7FFE0000
7FFC0000
7FFC0000
7FFC0000
7FFC0000
FFFC0000
FFFC0000
FFFC0000
FFFC0000
FFFC0000
FFFC0000
FFFC0000
FFF80000
FFF80000
FFF80000
FFF80000
FFFC0000
FFFC0000
FFFC0000
FFFC0000
FFFC0000
FFFC0000
FFFC0000
FFFC0000
7FFC0000
7FFC0000
7FFC0000
7FFC0000
7FFE0000
7FFE0000
7FFE0000
3FFE0000
3FFE0000
3FFF0000
3FFF0000
3FFF0000
1FFF0000
1FFF8000
1FFF8000
1FFF8000
0FFFC000
0FFFC000
0FFFC000
07FFE000
07FFE000
07FFF000
03FFF000
03FFF800
03FFF800
01FFFC00
01FFFC00
00FFFE00
00FFFE00
007FFF00
007FFF80
003FFF80
003FFFC0
001FFFE0
001FFFE0
000FFFF0
000FFFF8
0007FFFC
0003FFFC
0003FFFC
0001FFF8
0001FFE0
0000FFC0
00007F80
00003E00
00003C00
00001000
ENDCHAR
STARTCHAR 0029
ENCODING 41
SWIDTH 461 0
DWIDTH 50 0
BBX 31 113 4 -20
BITMAP
00300000
00F80000
01FC0000
03FC0000
0FFE0000
1FFF0000
3FFF0000
FFFF8000
7FFFC000
3FFFC000
1FFFE000
1FFFF000
0FFFF000
07FFF800
03FFF800
03FFFC00
01FFFC00
01FFFE00
00FFFE00
007FFE00
007FFF00
003FFF00
003FFF80
001FFF80
001FFF80
000FFFC0
000FFFC0
000FFFE0
0007FFE0
0007FFE0
0003FFE0
0003FFF0
0003FFF0
0003FFF0
0001FFF0
0001FFF8
0001FFF8
0000FFF8
0000FFF8
0000FFFC
0000FFFC
0000FFFC
0000FFFC
00007FFC
00007FFC
00007FFC
00007FFC
00007FFE
00007FFE
00007FFE
00007FFE
00007FFE
00007FFE
00007FFE
00007FFE
00003FFE
00003FFE
00003FFE
00007FFE
00007FFE
00007FFE
00007FFE
00007FFE
00007FFE
00007FFE
00007FFE
00007FFC
00007FFC
00007FFC
00007FFC
0000FFFC
0000FFFC
0000FFFC
0000FFF8
0000FFF8
0001FFF8
0001FFF8
0001FFF8
0001FFF0
0003FFF0
0003FFF0
0003FFF0
0007FFE0
0007FFE0
0007FFE0
000FFFC0
000FFFC0
001FFFC0
001FFF80
003FFF80
003FFF80
007FFF00
007FFF00
00FFFE00
00FFFE00
01FFFC00
03FFFC00
03FFF800
07FFF800
0FFFF000
0FFFF000
1FFFE000
3FFFE000
3FFFC000
7FFF8000
7FFF8000
3FFF0000
0FFE0000
07FE0000
03FC0000
00F80000
00780000
00100000
ENDCHAR
STARTCHAR 002A
ENCODING 42
SWIDTH 470 0
DWIDTH 51 0
BBX 42 40 3 38
BITMAP
0001FFF00000
0001FFE00000
0001FFE00000
0001FFE00000
0001FFE00000
0001FFE00000
0001FFE00000
0001FFE00000
0E01FFE01C00
0F81FFE07C00
1FE1FFE1FE00
1FFDFFE7FE00
1FFFFFFFFE00
3FFFFFFFFF00
3FFFFFFFFF00
3FFFFFFFFF00
7FFFFFFFFF80
7FFFFFFFFF80
7FFFFFFFFF80
FFFFFFFFFFC0
1FFFFFFFFE00
01FFFFFFE000
001FFFFE0000
000FFFFE0000
001FFFFE0000
003FFFFF0000
007FFFFF8000
00FFFFFFC000
01FFFFFFE000
03FFFFFFF000
07FFF3FFF800
07FFF3FFFC00
07FFE1FFF800
03FFC0FFF000
00FFC0FFC000
007F807F8000
003F803F0000
000F003C0000
000600180000
000000100000
ENDCHAR
STARTCHAR 002B
ENCODING 43
SWIDTH 572 0
DWIDTH 62 0
BBX 49 49 6 15
BITMAP
00001FFE000000
00001FFE000000
00001FFE000000
00001FFE000000
00001FFE000000
00001FFE000000
00001FFE000000
00001FFE000000
00001FFE000000
00001FFE000000
00001FFE000000
00001FFE000000
00001FFE000000
00001FFE000000
00001FFE000000
00001FFE000000
00001FFE000000
00001FFE000000
00001FFE000000
FFFFFFFFFFFF80
FFFFFFFFFFFF80
FFFFFFFFFFFF80
FFFFFFFFFFFF80
FFFFFFFFFFFF80
FFFFFFFFFFFF80
FFFFFFFFFFFF80
FFFFFFFFFFFF80
FFFFFFFFFFFF80
FFFFFFFFFFFF80
FFFFFFFFFFFF80
00001FFE000000
00001FFE000000
00001FFE000000
00001FFE000000
00001FFE000000
00001FFE000000
00001FFE000000
00001FFE000000
00001FFE000000
00001FFE000000
00001FFE000000
00001FFE000000
00001FFE000000
00001FFE000000
00001FFE000000
00001FFE000000
00001FFE000000
00001FFE000000
00001FFE000000
ENDCHAR
STARTCHAR 002C
ENCODING 44
SWIDTH 313 0
DWIDTH 34 0
BBX 15 30 6 -16
BITMAP
FFFE
FFFE
FFFE
FFFE
FFFE
FFFE
FFFE
FFFE
FFFE
FFFE
FFFE
FFFE
FFFE
FFFE
FFFE
00FE
00FE
00FE
00FE
00FE
01FE
01FC
03FC
7FFC
7FF8
7FF8
7FF0
7FE0
7FC0
7E00
ENDCHAR
STARTCHAR 002D
ENCODING 45
SWIDTH 424 0
DWIDTH 46 0
BBX 33 11 6 29
BITMAP
FFFFFFFF80
FFFFFFFF80
FFFFFFFF80
FFFFFFFF80
FFFFFFFF80
FFFFFFFF80
FFFFFFFF80
FFFFFFFF80
FFFFFFFF80
FFFFFFFF80
FFFFFFFF80
ENDCHAR
STARTCHAR 002E
ENCODING 46
SWIDTH 323 0
DWIDTH 35 0
BBX 15 15 10 0
BITMAP
FFFE
FFFE
FFFE
FFFE
FFFE
FFFE
FFFE
FFFE
FFFE
FFFE
FFFE
FFFE
FFFE
FFFE
FFFE
ENDCHAR
STARTCHAR 002F
ENCODING 47
SWIDTH 452 0
DWIDTH 49 0
BBX 35 78 7 0
BITMAP
00000FFFE0
00000FFFE0
00000FFFC0
00001FFFC0
00001FFFC0
00001FFFC0
00001FFF80
00003FFF80
00003FFF80
00003FFF80
00007FFF00
00007FFF00
00007FFF00
00007FFE00
0000FFFE00
0000FFFE00
0000FFFE00
0000FFFC00
0001FFFC00
0001FFFC00
0001FFFC00
0001FFF800
0003FFF800
0003FFF800
0003FFF800
0007FFF000
0007FFF000
0007FFF000
0007FFE000
000FFFE000
000FFFE000
000FFFE000
000FFFC000
001FFFC000
001FFFC000
001FFFC000
001FFF8000
003FFF8000
003FFF8000
003FFF0000
007FFF0000
007FFF0000
007FFF0000
007FFE0000
00FFFE0000
00FFFE0000
00FFFE0000
00FFFC0000
01FFFC0000
01FFFC0000
01FFFC0000
01FFF80000
03FFF80000
03FFF80000
03FFF00000
07FFF00000
07FFF00000
07FFF00000
07FFE00000
0FFFE00000
0FFFE00000
0FFFE00000
0FFFC00000
1FFFC00000
1FFFC00000
1FFFC00000
1FFF800000
3FFF800000
3FFF800000
3FFF000000
7FFF000000
7FFF000000
7FFF000000
7FFE000000
FFFE000000
FFFE000000
FFFE000000
FFFC000000
ENDCHAR
STARTCHAR 0030
ENCODING 48
SWIDTH 673 0
DWIDTH 73 0
BBX 57 82 8 -2
BITMAP
000003FFC0000000
00003FFFFE000000
0000FFFFFF800000
0007FFFFFFE00000
000FFFFFFFF80000
003FFFFFFFFE0000
007FFFFFFFFF0000
00FFFFFFFFFF8000
01FFFFFFFFFFC000
03FFFFFFFFFFE000
07FFFFFFFFFFF000
07FFFFFFFFFFF000
0FFFFFFFFFFFF800
1FFFFFFFFFFFFC00
1FFFFF007FFFFC00
3FFFFC001FFFFE00
3FFFF00007FFFE00
3FFFE00003FFFE00
7FFFC00001FFFF00
7FFF800000FFFF00
7FFF800000FFFF00
FFFF0000007FFF80
FFFF0000007FFF80
FFFE0000003FFF80
FFFE0000003FFF80
FFFE0000003FFF80
FFFE0000003FFF80
FFFE0000003FFF80
FFFE0000003FFF80
FFFE0000003FFF80
FFFE0000003FFF80
FFFE0000003FFF80
FFFE0000003FFF80
FFFE0000003FFF80
FFFE0000003FFF80
FFFE0000003FFF80
FFFE0000003FFF80
FFFE0000003FFF80
FFFE0000003FFF80
FFFE0000003FFF80
FFFE0000003FFF80
FFFE0000003FFF80
FFFE0000003FFF80
FFFE0000003FFF80
FFFE0000003FFF80
FFFE0000003FFF80
FFFE0000003FFF80
FFFE0000003FFF80
FFFE0000003FFF80
FFFE0000003FFF80
FFFE0000003FFF80
FFFE0000003FFF80
FFFE0000003FFF80
FFFE0000003FFF80
FFFE0000003FFF80
FFFE0000003FFF80
FFFE0000003FFF80
FFFE0000003FFF80
FFFE0000003FFF80
FFFF0000007FFF80
FFFF0000007FFF80
7FFF800000FFFF00
7FFF800000FFFF00
7FFFC00001FFFF00
3FFFE00003FFFE00
3FFFF00007FFFE00
3FFFFC001FFFFE00
1FFFFF80FFFFFC00
1FFFFFFFFFFFFC00
0FFFFFFFFFFFF800
07FFFFFFFFFFF000
07FFFFFFFFFFF000
03FFFFFFFFFFE000
01FFFFFFFFFFC000
00FFFFFFFFFF8000
007FFFFFFFFF0000
003FFFFFFFFE0000
000FFFFFFFF80000
0007FFFFFFE00000
0000FFFFFF800000
00003FFFFE000000
000001FFE0000000
ENDCHAR
STARTCHAR 0031
ENCODING 49
SWIDTH 452 0
DWIDTH 49 0
BBX 30 78 6 0
BITMAP
0003FFFC
0007FFFC
001FFFFC
007FFFFC
00FFFFFC
03FFFFFC
0FFFFFFC
1FFFFFFC
7FFFFFFC
FFFFFFFC
FFFFFFFC
FFFFFFFC
FFFFFFFC
FFFFFFFC
FFFFFFFC
FFFFFFFC
FFFDFFFC
FFF9FFFC
FFE1FFFC
FFC1FFFC
FF01FFFC
FC01FFFC
F801FFFC
E001FFFC
8001FFFC
0001FFFC
0001FFFC
0001FFFC
0001FFFC
0001FFFC
0001FFFC
0001FFFC
0001FFFC
0001FFFC
0001FFFC
0001FFFC
0001FFFC
0001FFFC
0001FFFC
0001FFFC
0001FFFC
0001FFFC
0001FFFC
0001FFFC
0001FFFC
0001FFFC
0001FFFC
0001FFFC
0001FFFC
0001FFFC
0001FFFC
0001FFFC
0001FFFC
0001FFFC
0001FFFC
0001FFFC
0001FFFC
0001FFFC
0001FFFC
0001FFFC
0001FFFC
0001FFFC
0001FFFC
0001FFFC
0001FFFC
0001FFFC
0001FFFC
0001FFFC
0001FFFC
0001FFFC
0001FFFC
0001FFFC
0001FFFC
0001FFFC
0001FFFC
0001FFFC
0001FFFC
0001FFFC
ENDCHAR
STARTCHAR 0032
ENCODING 50
SWIDTH 600 0
DWIDTH 65 0
BBX 55 80 5 0
BITMAP
000003FFC00000
00003FFFFC0000
0001FFFFFF0000
0007FFFFFFC000
001FFFFFFFF000
003FFFFFFFF800
007FFFFFFFFE00
00FFFFFFFFFF00
01FFFFFFFFFF00
03FFFFFFFFFF80
07FFFFFFFFFFC0
0FFFFFFFFFFFE0
0FFFFFFFFFFFE0
1FFFFFFFFFFFF0
1FFFFF00FFFFF0
3FFFFC003FFFF8
3FFFF0000FFFF8
3FFFE00007FFFC
7FFFC00007FFFC
7FFF800003FFFC
7FFF800001FFFC
7FFF000001FFFE
7FFF000001FFFE
FFFF000000FFFE
FFFF000000FFFE
FFFF000000FFFE
0000000000FFFE
0000000000FFFE
0000000000FFFE
0000000001FFFE
0000000001FFFE
0000000003FFFE
0000000003FFFC
0000000007FFFC
000000000FFFFC
000000001FFFFC
000000001FFFF8
000000003FFFF8
00000000FFFFF0
00000001FFFFF0
00000003FFFFE0
00000007FFFFC0
0000000FFFFF80
0000001FFFFF00
0000003FFFFE00
0000007FFFFC00
000001FFFFF800
000003FFFFF000
000007FFFFE000
00000FFFFFC000
00001FFFFF8000
00003FFFFF0000
00007FFFFE0000
0000FFFFF80000
0003FFFFF00000
0007FFFFE00000
000FFFFFC00000
001FFFFF800000
003FFFFF000000
007FFFFE000000
00FFFFF8000000
01FFFFF0000000
03FFFFE0000000
0FFFFFC0000000
1FFFFF80000000
3FFFFF00000000
7FFFFFFFFFFFFE
FFFFFFFFFFFFFE
FFFFFFFFFFFFFE
FFFFFFFFFFFFFE
FFFFFFFFFFFFFE
FFFFFFFFFFFFFE
FFFFFFFFFFFFFE
FFFFFFFFFFFFFE
FFFFFFFFFFFFFE
FFFFFFFFFFFFFE
FFFFFFFFFFFFFE
FFFFFFFFFFFFFE
FFFFFFFFFFFFFE
FFFFFFFFFFFFFE
ENDCHAR
STARTCHAR 0033
ENCODING 51
SWIDTH 590 0
DWIDTH 64 0
BBX 54 79 4 -1
BITMAP
1FFFFFFFFFFFF0
1FFFFFFFFFFFF0
1FFFFFFFFFFFF0
1FFFFFFFFFFFF0
1FFFFFFFFFFFF0
1FFFFFFFFFFFF0
1FFFFFFFFFFFF0
1FFFFFFFFFFFF0
1FFFFFFFFFFFF0
1FFFFFFFFFFFF0
1FFFFFFFFFFFF0
1FFFFFFFFFFFF0
1FFFFFFFFFFFF0
1FFFFFFFFFFFF0
000000003FFFE0
000000007FFFC0
00000001FFFF80
00000003FFFF00
00000007FFFE00
0000000FFFFC00
0000001FFFF800
0000007FFFF000
000000FFFFE000
000001FFFFC000
000003FFFF8000
000007FFFF0000
00001FFFFE0000
00003FFFFC0000
00007FFFF80000
0000FFFFFC0000
0003FFFFFF0000
0003FFFFFFC000
0003FFFFFFE000
0001FFFFFFF800
0000FFFFFFFC00
0000FFFFFFFE00
00007FFFFFFF00
00007FFFFFFF80
00003FFFFFFF80
00003FFFFFFFC0
00001FFFFFFFC0
00000E03FFFFE0
00000800FFFFE0
000000003FFFF0
000000001FFFF0
000000000FFFF0
0000000007FFF8
0000000007FFF8
0000000003FFF8
0000000003FFF8
0000000003FFF8
0000000003FFF8
0000000003FFFC
0000000001FFFC
0000000003FFF8
0000000003FFF8
0006000003FFF8
003E000003FFF8
03FE000007FFF8
3FFF000007FFF8
FFFF80000FFFF0
7FFFC0001FFFF0
7FFFE0003FFFF0
3FFFF000FFFFE0
3FFFFC03FFFFE0
1FFFFFFFFFFFC0
1FFFFFFFFFFFC0
0FFFFFFFFFFF80
07FFFFFFFFFF00
07FFFFFFFFFE00
03FFFFFFFFFE00
01FFFFFFFFFC00
00FFFFFFFFF000
003FFFFFFFE000
001FFFFFFFC000
0007FFFFFF0000
0001FFFFFC0000
00007FFFF00000
000007FF000000
ENDCHAR
STARTCHAR 0034
ENCODING 52
SWIDTH 618 0
DWIDTH 67 0
BBX 56 78 5 0
BITMAP
0000007FFFC000
000000FFFF8000
000000FFFF8000
000001FFFF0000
000001FFFF0000
000003FFFE0000
000003FFFE0000
000007FFFC0000
000007FFFC0000
000007FFF80000
00000FFFF80000
00000FFFF00000
00001FFFF00000
00001FFFF00000
00003FFFE00000
00003FFFE00000
00007FFFC00000
00007FFFC00000
0000FFFF800000
0000FFFF800000
0001FFFF000000
0001FFFF000000
0003FFFE000000
0003FFFE000000
0007FFFC000000
0007FFFC000000
000FFFF8000000
000FFFF8000000
000FFFF0000000
001FFFF0000000
001FFFE0000000
003FFFE0000000
003FFFE0000000
007FFFC03FFF80
007FFFC03FFF80
00FFFF803FFF80
00FFFF803FFF80
01FFFF003FFF80
01FFFF003FFF80
03FFFE003FFF80
03FFFE003FFF80
07FFFC003FFF80
07FFFC003FFF80
0FFFF8003FFF80
0FFFF8003FFF80
1FFFF0003FFF80
1FFFF0003FFF80
1FFFE0003FFF80
3FFFE0003FFF80
3FFFE0003FFF80
7FFFC0003FFF80
7FFFC0003FFF80
FFFFFFFFFFFFFF
FFFFFFFFFFFFFF
FFFFFFFFFFFFFF
FFFFFFFFFFFFFF
FFFFFFFFFFFFFF
FFFFFFFFFFFFFF
FFFFFFFFFFFFFF
FFFFFFFFFFFFFF
FFFFFFFFFFFFFF
FFFFFFFFFFFFFF
FFFFFFFFFFFFFF
FFFFFFFFFFFFFF
FFFFFFFFFFFFFF
FFFFFFFFFFFFFF
000000003FFF80
000000003FFF80
000000003FFF80
000000003FFF80
000000003FFF80
000000003FFF80
000000003FFF80
000000003FFF80
000000003FFF80
000000003FFF80
000000003FFF80
000000003FFF80
ENDCHAR
STARTCHAR 0035
ENCODING 53
SWIDTH 590 0
DWIDTH 64 0
BBX 52 80 6 -2
BITMAP
07FFFFFFFFFE00
07FFFFFFFFFE00
0FFFFFFFFFFE00
0FFFFFFFFFFE00
0FFFFFFFFFFE00
0FFFFFFFFFFE00
0FFFFFFFFFFE00
0FFFFFFFFFFE00
0FFFFFFFFFFE00
0FFFFFFFFFFE00
0FFFFFFFFFFE00
0FFFFFFFFFFE00
0FFFFFFFFFFE00
0FFFFFFFFFFE00
0FFFC000000000
0FFFC000000000
0FFF8000000000
0FFF8000000000
0FFF8000000000
1FFF8000000000
1FFF8000000000
1FFF8000000000
1FFF8000000000
1FFF8000000000
1FFF8000000000
1FFF8000000000
1FFF8000000000
1FFF8000000000
1FFF81FF800000
1FFF9FFFF00000
1FFFFFFFFE0000
1FFFFFFFFF8000
1FFFFFFFFFC000
1FFFFFFFFFF000
1FFFFFFFFFF800
1FFFFFFFFFFC00
1FFFFFFFFFFE00
3FFFFFFFFFFE00
3FFFFFFFFFFF00
3FFFFFFFFFFF80
3FFFFFFFFFFF80
3FFFFE0FFFFFC0
03FFE001FFFFC0
007F8000FFFFE0
000F00003FFFE0
000000001FFFE0
000000001FFFF0
000000000FFFF0
000000000FFFF0
0000000007FFF0
0000000007FFF0
0000000007FFF0
0000000007FFF0
0000000003FFF0
0000000007FFF0
0000000007FFF0
0000000007FFF0
001C000007FFF0
01FC00000FFFF0
0FFE00000FFFF0
FFFE00001FFFE0
FFFF00001FFFE0
FFFF80003FFFE0
FFFFC000FFFFC0
7FFFF001FFFFC0
7FFFFC0FFFFF80
3FFFFFFFFFFF80
3FFFFFFFFFFF00
1FFFFFFFFFFF00
0FFFFFFFFFFE00
0FFFFFFFFFFC00
07FFFFFFFFF800
03FFFFFFFFF000
01FFFFFFFFE000
007FFFFFFFC000
003FFFFFFF0000
000FFFFFFC0000
0007FFFFF00000
0000FFFFC00000
00001FFC000000
ENDCHAR
STARTCHAR 0036
ENCODING 54
SWIDTH 618 0
DWIDTH 67 0
BBX 54 82 8 -2
BITMAP
000003FFE00000
00003FFFFE0000
0001FFFFFF8000
0007FFFFFFE000
000FFFFFFFF800
003FFFFFFFFC00
007FFFFFFFFF00
00FFFFFFFFFF80
01FFFFFFFFFF00
03FFFFFFFFFE00
07FFFFFFFFFC00
07FFFFFFFFF800
0FFFFFFFFFF000
1FFFFFFFFFE000
1FFFFF007FC000
3FFFFC001F8000
3FFFF0000F0000
3FFFE000020000
7FFFC000000000
7FFF8000000000
7FFF8000000000
FFFF0000000000
FFFF0000000000
FFFE0000000000
FFFE0000000000
FFFE0000000000
FFFE0000000000
FFFE0000000000
FFFE0000000000
FFFE0000000000
FFFE01FFE00000
FFFE0FFFFE0000
FFFE3FFFFF8000
FFFEFFFFFFE000
FFFFFFFFFFF000
FFFFFFFFFFF800
FFFFFFFFFFFE00
FFFFFFFFFFFE00
FFFFFFFFFFFF00
FFFFFFFFFFFF80
FFFFFFFFFFFFC0
FFFFFFFFFFFFC0
FFFFFFFFFFFFE0
FFFFFF03FFFFE0
FFFFF8007FFFF0
FFFFF0003FFFF0
FFFFC0001FFFF8
FFFFC0000FFFF8
FFFF800007FFF8
FFFF000007FFF8
FFFF000003FFFC
FFFE000003FFFC
FFFE000001FFFC
FFFE000001FFFC
FFFE000001FFFC
FFFE000001FFFC
FFFE000001FFFC
FFFE000001FFFC
FFFE000001FFFC
FFFE000003FFFC
FFFF000003FFF8
7FFF000007FFF8
7FFF800007FFF8
7FFFC0000FFFF8
7FFFC0001FFFF0
3FFFF0003FFFF0
3FFFF800FFFFF0
1FFFFF03FFFFE0
1FFFFFFFFFFFE0
0FFFFFFFFFFFC0
07FFFFFFFFFF80
07FFFFFFFFFF80
03FFFFFFFFFF00
01FFFFFFFFFE00
00FFFFFFFFFC00
007FFFFFFFF800
003FFFFFFFE000
000FFFFFFFC000
0007FFFFFF0000
0001FFFFFC0000
00003FFFF00000
000007FF000000
ENDCHAR
STARTCHAR 0037
ENCODING 55
SWIDTH 544 0
DWIDTH 59 0
BBX 50 78 4 0
BITMAP
FFFFFFFFFFFFC0
FFFFFFFFFFFFC0
FFFFFFFFFFFFC0
FFFFFFFFFFFFC0
FFFFFFFFFFFFC0
FFFFFFFFFFFFC0
FFFFFFFFFFFFC0
FFFFFFFFFFFFC0
FFFFFFFFFFFFC0
FFFFFFFFFFFFC0
FFFFFFFFFFFFC0
FFFFFFFFFFFFC0
FFFFFFFFFFFFC0
FFFFFFFFFFFFC0
000000007FFF80
000000007FFF80
000000007FFF00
00000000FFFF00
00000000FFFF00
00000001FFFE00
00000001FFFE00
00000001FFFC00
00000003FFFC00
00000003FFFC00
00000007FFF800
00000007FFF800
00000007FFF000
0000000FFFF000
0000000FFFF000
0000001FFFE000
0000001FFFE000
0000003FFFC000
0000003FFFC000
0000003FFFC000
0000007FFF8000
0000007FFF8000
000000FFFF0000
000000FFFF0000
000000FFFE0000
000001FFFE0000
000001FFFE0000
000003FFFC0000
000003FFFC0000
000003FFF80000
000007FFF80000
000007FFF80000
00000FFFF00000
00000FFFF00000
00000FFFE00000
00001FFFE00000
00001FFFE00000
00003FFFC00000
00003FFFC00000
00007FFF800000
00007FFF800000
00007FFF800000
0000FFFF000000
0000FFFF000000
0001FFFE000000
0001FFFE000000
0001FFFE000000
0003FFFC000000
0003FFFC000000
0007FFF8000000
0007FFF8000000
0007FFF8000000
000FFFF0000000
000FFFF0000000
001FFFE0000000
001FFFE0000000
001FFFC0000000
003FFFC0000000
003FFFC0000000
007FFF80000000
007FFF80000000
00FFFF00000000
00FFFF00000000
00FFFF00000000
ENDCHAR
STARTCHAR 0038
ENCODING 56
SWIDTH 618 0
DWIDTH 67 0
BBX 55 82 6 -2
BITMAP
000003FF800000
00003FFFF80000
0001FFFFFF0000
0007FFFFFFC000
000FFFFFFFF000
003FFFFFFFF800
007FFFFFFFFC00
00FFFFFFFFFE00
01FFFFFFFFFF00
01FFFFFFFFFF80
03FFFFFFFFFF80
07FFFFFFFFFFC0
07FFFFFFFFFFE0
0FFFFFFFFFFFE0
0FFFFE00FFFFE0
0FFFF8003FFFF0
1FFFF0001FFFF0
1FFFE0000FFFF0
1FFFE0000FFFF0
1FFFE00007FFF8
1FFFC00007FFF8
1FFFC00007FFF8
1FFFC00007FFF8
1FFFC00007FFF8
1FFFC00007FFF8
1FFFE00007FFF8
1FFFE0000FFFF0
1FFFE0000FFFF0
1FFFF0001FFFF0
0FFFF8003FFFF0
0FFFFE00FFFFE0
0FFFFFFFFFFFE0
07FFFFFFFFFFE0
07FFFFFFFFFFC0
03FFFFFFFFFFC0
01FFFFFFFFFF80
01FFFFFFFFFF00
00FFFFFFFFFE00
00FFFFFFFFFE00
01FFFFFFFFFF00
03FFFFFFFFFF80
07FFFFFFFFFFC0
07FFFFFFFFFFE0
0FFFFFFFFFFFE0
0FFFFFFFFFFFF0
1FFFFFE7FFFFF0
1FFFFC007FFFF8
3FFFF0001FFFF8
3FFFE0000FFFFC
7FFFC00007FFFC
7FFFC00003FFFC
7FFF800003FFFC
7FFF800001FFFE
7FFF000001FFFE
7FFF000001FFFE
7FFF000001FFFE
FFFF000001FFFE
FFFF000001FFFE
7FFF000001FFFE
7FFF000001FFFE
7FFF800001FFFE
7FFF800001FFFE
7FFF800003FFFC
7FFFC00003FFFC
3FFFE00007FFFC
3FFFF0000FFFFC
3FFFF8003FFFF8
1FFFFE00FFFFF8
1FFFFFFFFFFFF0
0FFFFFFFFFFFF0
0FFFFFFFFFFFE0
07FFFFFFFFFFC0
03FFFFFFFFFFC0
01FFFFFFFFFF80
00FFFFFFFFFF00
007FFFFFFFFE00
003FFFFFFFF800
001FFFFFFFF000
0007FFFFFFC000
0001FFFFFF0000
00003FFFFC0000
000003FFC00000
ENDCHAR
STARTCHAR 0039
ENCODING 57
SWIDTH 618 0
DWIDTH 67 0
BBX 55 82 5 -2
BITMAP
000003FF800000
00003FFFF80000
0000FFFFFE0000
0003FFFFFF8000
000FFFFFFFE000
001FFFFFFFF000
003FFFFFFFF800
007FFFFFFFFC00
00FFFFFFFFFE00
01FFFFFFFFFF00
03FFFFFFFFFF80
07FFFFFFFFFFC0
0FFFFFFFFFFFC0
0FFFFFFFFFFFE0
1FFFFF81FFFFF0
1FFFFC007FFFF0
3FFFF0001FFFF0
3FFFE0000FFFF8
3FFFC00007FFF8
7FFF800003FFF8
7FFF800003FFFC
7FFF000001FFFC
7FFF000001FFFC
7FFF000001FFFC
FFFF000000FFFE
FFFE000000FFFE
FFFE000000FFFE
FFFE000000FFFE
FFFF000000FFFE
7FFF000001FFFE
7FFF000001FFFE
7FFF000001FFFE
7FFF800003FFFE
7FFF800003FFFE
7FFFC00007FFFE
3FFFE0000FFFFE
3FFFF0001FFFFE
3FFFFC007FFFFE
1FFFFF01FFFFFE
1FFFFFFFFFFFFE
0FFFFFFFFFFFFE
07FFFFFFFFFFFE
07FFFFFFFFFFFE
03FFFFFFFFFFFE
01FFFFFFFFFFFE
00FFFFFFFFFFFE
007FFFFFFFFFFE
003FFFFFFFFFFE
000FFFFFFCFFFE
0007FFFFF0FFFE
0000FFFFC0FFFE
00001FFE00FFFE
0000000000FFFE
0000000000FFFE
0000000000FFFE
0000000000FFFE
0000000000FFFE
0000000001FFFC
0000000001FFFC
0000000001FFFC
0000000003FFFC
0000000003FFFC
0000000007FFF8
000000000FFFF8
000080001FFFF8
0001C0003FFFF0
0003E0007FFFF0
0007FC03FFFFE0
000FFFFFFFFFE0
001FFFFFFFFFC0
003FFFFFFFFFC0
007FFFFFFFFF80
00FFFFFFFFFF00
01FFFFFFFFFE00
03FFFFFFFFFC00
01FFFFFFFFF800
00FFFFFFFFF000
007FFFFFFFE000
001FFFFFFF8000
0007FFFFFE0000
0000FFFFF00000
00000FFF000000
ENDCHAR
STARTCHAR 003A
ENCODING 58
SWIDTH 360 0
DWIDTH 39 0
BBX 15 46 12 6
BITMAP
FFFE
FFFE
FFFE
FFFE
FFFE
FFFE
FFFE
FFFE
FFFE
FFFE
FFFE
FFFE
FFFE
FFFE
FFFE
0000
0000
0000
0000
0000
0000
0000
0000
0000
0000
0000
0000
0000
0000
0000
0000
FFFE
FFFE
FFFE
FFFE
FFFE
FFFE
FFFE
FFFE
FFFE
FFFE
FFFE
FFFE
FFFE
FFFE
FFFE
ENDCHAR
STARTCHAR 003B
ENCODING 59
SWIDTH 360 0
DWIDTH 39 0
BBX 15 74 12 -16
BITMAP
FFFE
FFFE
FFFE
FFFE
FFFE
FFFE
FFFE
FFFE
FFFE
FFFE
FFFE
FFFE
FFFE
FFFE
FFFE
0000
0000
0000
0000
0000
0000
0000
0000
0000
0000
0000
0000
0000
0000
0000
0000
0000
0000
0000
0000
0000
0000
0000
0000
0000
0000
0000
0000
0000
FFFE
FFFE
FFFE
FFFE
FFFE
FFFE
FFFE
FFFE
FFFE
FFFE
FFFE
FFFE
FFFE
FFFE
FFFE
00FE
00FE
00FE
01FC
01FC
01FC
03FC
07FC
7FF8
7FF8
FFF0
FFE0
FFC0
FF80
FE00
ENDCHAR
STARTCHAR 003C
ENCODING 60
SWIDTH 646 0
DWIDTH 70 0
BBX 35 52 15 8
BITMAP
0000006000
000000F000
000001F800
000003FC00
000007FE00
00000FFF00
00001FFF80
00003FFFC0
00007FFFE0
0000FFFFE0
0001FFFFC0
0003FFFF80
0007FFFF00
000FFFFC00
001FFFF800
003FFFF000
007FFFE000
00FFFFC000
01FFFF8000
03FFFF0000
07FFFE0000
0FFFFC0000
1FFFF80000
3FFFF00000
7FFFE00000
FFFFC00000
7FFFC00000
3FFFE00000
1FFFF80000
0FFFFC0000
07FFFE0000
03FFFF0000
01FFFF8000
00FFFFC000
007FFFE000
003FFFF000
001FFFF800
000FFFFC00
0007FFFE00
0003FFFF00
0001FFFF80
0000FFFFC0
00007FFFE0
00003FFFE0
00001FFFC0
00000FFF80
000007FF00
000003FE00
000001FC00
000000F800
0000007000
0000002000
ENDCHAR
STARTCHAR 003D
ENCODING 61
SWIDTH 747 0
DWIDTH 81 0
BBX 55 32 13 23
BITMAP
FFFFFFFFFFFFFE
FFFFFFFFFFFFFE
FFFFFFFFFFFFFE
FFFFFFFFFFFFFE
FFFFFFFFFFFFFE
FFFFFFFFFFFFFE
FFFFFFFFFFFFFE
FFFFFFFFFFFFFE
FFFFFFFFFFFFFE
FFFFFFFFFFFFFE
FFFFFFFFFFFFFE
00000000000000
00000000000000
00000000000000
00000000000000
00000000000000
00000000000000
00000000000000
00000000000000
00000000000000
00000000000000
FFFFFFFFFFFFFE
FFFFFFFFFFFFFE
FFFFFFFFFFFFFE
FFFFFFFFFFFFFE
FFFFFFFFFFFFFE
FFFFFFFFFFFFFE
FFFFFFFFFFFFFE
FFFFFFFFFFFFFE
FFFFFFFFFFFFFE
FFFFFFFFFFFFFE
FFFFFFFFFFFFFE
ENDCHAR
STARTCHAR 003E
ENCODING 62
SWIDTH 646 0
DWIDTH 70 0
BBX 34 52 20 8
BITMAP
0080000000
01C0000000
03E0000000
07F0000000
0FF8000000
1FFC000000
3FFE000000
7FFF000000
FFFF800000
FFFFC00000
7FFFE00000
3FFFF00000
1FFFF80000
0FFFFC0000
07FFFE0000
03FFFF0000
01FFFF8000
007FFFC000
003FFFE000
001FFFF000
000FFFF800
0007FFFC00
0003FFFE00
0001FFFF00
0000FFFF80
00007FFFC0
0000FFFFC0
0001FFFF80
0003FFFF00
0007FFFE00
000FFFFC00
001FFFF800
003FFFF000
007FFFE000
00FFFFC000
01FFFF8000
03FFFF0000
07FFFE0000
0FFFFC0000
1FFFF80000
3FFFF00000
7FFFE00000
FFFFC00000
FFFF800000
7FFF000000
3FFE000000
1FFC000000
0FF8000000
07F0000000
03E0000000
01C0000000
0080000000
ENDCHAR
STARTCHAR 003F
ENCODING 63
SWIDTH 563 0
DWIDTH 61 0
BBX 51 80 5 0
BITMAP
00000FFE000000
0000FFFFE00000
0003FFFFFC0000
000FFFFFFF0000
003FFFFFFF8000
007FFFFFFFE000
00FFFFFFFFF000
01FFFFFFFFF800
03FFFFFFFFFC00
07FFFFFFFFFC00
07FFFFFFFFFE00
0FFFFFFFFFFF00
1FFFFFFFFFFF00
1FFFFFFFFFFF80
3FFFFC07FFFF80
3FFFE000FFFF80
3FFFC0007FFFC0
7FFF80003FFFC0
7FFF80003FFFC0
7FFF00001FFFC0
7FFF00001FFFC0
7FFF00001FFFE0
FFFF00001FFFE0
000000001FFFE0
000000001FFFC0
000000001FFFC0
000000001FFFC0
000000003FFFC0
000000003FFFC0
000000007FFF80
000000007FFF80
00000000FFFF80
00000001FFFF00
00000003FFFF00
00000007FFFE00
0000000FFFFC00
0000001FFFFC00
0000003FFFF800
0000007FFFF000
000000FFFFF000
000001FFFFE000
000003FFFFC000
000007FFFF8000
000007FFFF0000
00000FFFFE0000
00001FFFFC0000
00001FFFF80000
00003FFFF00000
00003FFFE00000
00003FFFE00000
00007FFFC00000
00007FFF800000
00007FFF800000
00007FFF000000
00007FFF000000
0000FFFF000000
0000FFFF000000
0000FFFF000000
0000FFFF000000
00000000000000
00000000000000
00000000000000
00000000000000
00000000000000
0000FFFF000000
0000FFFF000000
0000FFFF000000
0000FFFF000000
0000FFFF000000
0000FFFF000000
0000FFFF000000
0000FFFF000000
0000FFFF000000
0000FFFF000000
0000FFFF000000
0000FFFF000000
0000FFFF000000
0000FFFF000000
0000FFFF000000
0000FFFF000000
ENDCHAR
STARTCHAR 0040
ENCODING 64
SWIDTH 913 0
DWIDTH 99 0
BBX 82 81 9 -11
BITMAP
000000007FFE0000000000
0000000FFFFFF800000000
0000007FFFFFFF00000000
000003FFFFFFFFE0000000
00000FFFFFFFFFF8000000
00003FFFFFFFFFFE000000
0000FFFFFFFFFFFF800000
0001FFFFFFFFFFFFC00000
0003FFFFFFFFFFFFF00000
0007FFFFFFFFFFFFF80000
000FFFFFFFFFFFFFFC0000
003FFFFFFC1FFFFFFE0000
003FFFFF00003FFFFF0000
007FFFF0000007FFFF8000
00FFFFC0000000FFFFC000
01FFFF000000007FFFC000
01FFFE000000001FFFE000
03FFF8000000000FFFF000
07FFF00000000003FFF000
07FFE00000000001FFF800
0FFFC0007FFC0000FFF800
0FFF8003FFFF1FF0FFFC00
1FFF800FFFFFDFF07FFC00
1FFF001FFFFFFFF03FFE00
1FFE003FFFFFFFF03FFE00
3FFE007FFFFFFFF01FFF00
3FFC00FFFFFFFFF01FFF00
3FFC01FFFFFFFFF00FFF00
7FFC03FFFFFFFFE00FFF00
7FF803FFFFFFFFE00FFF80
7FF807FFFFFFFFE00FFF80
7FF807FFF80FFFE007FF80
FFF80FFFE003FFE007FF80
FFF00FFFC001FFE007FF80
FFF00FFF8001FFE007FF80
FFF01FFF0000FFE007FFC0
FFF01FFF0000FFE007FFC0
FFF01FFE00007FE007FFC0
FFF01FFE00007FE007FFC0
FFF01FFE00007FE007FFC0
FFF01FFE00007FE007FFC0
FFF01FFE00007FE007FFC0
FFF01FFE00007FE007FFC0
FFF01FFE00007FE007FF80
FFF01FFF0000FFE007FF80
FFF01FFF0000FFF007FF80
FFF01FFF0000FFF007FF80
FFF00FFF8001FFF007FF80
FFF00FFFC003FFF80FFF80
FFF80FFFE007FFF81FFF80
FFF807FFFF7FFFFFFFFF00
7FF807FFFFFFFFFFFFFF00
7FF803FFFFFFFFFFFFFF00
7FFC03FFFFFFFFFFFFFE00
7FFC01FFFFFFFFFFFFFE00
3FFE00FFFFFFFFFFFFFC00
3FFE007FFFFFFFFFFFF800
3FFF003FFFFFEFFFFFF000
1FFF001FFFFFC7FFFFE000
1FFF8007FFFF81FFFFC000
0FFFC001FFFE007FFF0000
0FFFE0001FF0000FF80000
07FFF00000000000000000
07FFF80000000000000000
03FFFC0000000000000000
01FFFE0000000000000000
01FFFF8000000000000000
00FFFFE000000000000000
007FFFFC00001000000000
003FFFFFC001F800000000
001FFFFFFFFFF800000000
000FFFFFFFFFF800000000
0007FFFFFFFFFC00000000
0001FFFFFFFFFC00000000
0000FFFFFFFFFC00000000
00003FFFFFFFFE00000000
00001FFFFFFFFE00000000
000007FFFFFFFF00000000
000000FFFFFFFF00000000
0000001FFFFFFC00000000
00000001FFFFC000000000
ENDCHAR
STARTCHAR 0041
ENCODING 65
SWIDTH 683 0
DWIDTH 74 0
BBX 70 78 2 0
BITMAP
000000FFFFFC000000
000000FFFFFC000000
000001FFFFFE000000
000001FFFFFE000000
000001FFFFFE000000
000003FFFFFF000000
000003FFFFFF000000
000003FFFFFF000000
000007FFFFFF800000
000007FFFFFF800000
000007FFFFFF800000
00000FFFFFFFC00000
00000FFFFFFFC00000
00000FFFFFFFC00000
00000FFFFFFFC00000
00001FFFDFFFE00000
00001FFFCFFFE00000
00001FFFCFFFE00000
00003FFF8FFFF00000
00003FFF87FFF00000
00003FFF87FFF00000
00007FFF07FFF80000
00007FFF07FFF80000
00007FFF03FFF80000
00007FFF03FFF80000
0000FFFE03FFFC0000
0000FFFE01FFFC0000
0000FFFE01FFFC0000
0001FFFC01FFFE0000
0001FFFC00FFFE0000
0001FFFC00FFFE0000
0003FFF800FFFF0000
0003FFF8007FFF0000
0003FFF8007FFF0000
0007FFF8007FFF8000
0007FFF0003FFF8000
0007FFF0003FFF8000
0007FFF0003FFF8000
000FFFE0003FFFC000
000FFFE0001FFFC000
000FFFE0001FFFC000
001FFFC0001FFFE000
001FFFC0000FFFE000
001FFFC0000FFFE000
003FFF80000FFFF000
003FFF800007FFF000
003FFF800007FFF000
007FFF800007FFF800
007FFFFFFFFFFFF800
007FFFFFFFFFFFF800
007FFFFFFFFFFFF800
00FFFFFFFFFFFFFC00
00FFFFFFFFFFFFFC00
00FFFFFFFFFFFFFC00
01FFFFFFFFFFFFFE00
01FFFFFFFFFFFFFE00
01FFFFFFFFFFFFFE00
03FFFFFFFFFFFFFF00
03FFFFFFFFFFFFFF00
03FFFFFFFFFFFFFF00
03FFFFFFFFFFFFFF00
07FFFFFFFFFFFFFF80
07FFF00000003FFF80
07FFF00000003FFF80
0FFFE00000003FFFC0
0FFFE00000001FFFC0
0FFFE00000001FFFC0
1FFFE00000001FFFE0
1FFFC00000000FFFE0
1FFFC00000000FFFE0
3FFFC00000000FFFF0
3FFF8000000007FFF0
3FFF8000000007FFF0
3FFF8000000007FFF0
7FFF0000000003FFF8
7FFF0000000003FFF8
7FFF0000000003FFF8
FFFE0000000003FFFC
ENDCHAR
STARTCHAR 0042
ENCODING 66
SWIDTH 636 0
DWIDTH 69 0
BBX 58 78 8 0
BITMAP
FFFFFFFFF0000000
FFFFFFFFFF000000
FFFFFFFFFFE00000
FFFFFFFFFFF00000
FFFFFFFFFFFC0000
FFFFFFFFFFFE0000
FFFFFFFFFFFF0000
FFFFFFFFFFFF8000
FFFFFFFFFFFFC000
FFFFFFFFFFFFE000
FFFFFFFFFFFFE000
FFFFFFFFFFFFF000
FFFFFFFFFFFFF000
FFFFFFFFFFFFF800
FFFE00003FFFF800
FFFE00000FFFF800
FFFE000007FFFC00
FFFE000003FFFC00
FFFE000001FFFC00
FFFE000001FFFC00
FFFE000001FFFC00
FFFE000001FFFC00
FFFE000001FFFC00
FFFE000001FFFC00
FFFE000001FFFC00
FFFE000001FFFC00
FFFE000003FFFC00
FFFE000003FFF800
FFFE00000FFFF800
FFFE00001FFFF800
FFFFFFFFFFFFF000
FFFFFFFFFFFFF000
FFFFFFFFFFFFE000
FFFFFFFFFFFFE000
FFFFFFFFFFFFC000
FFFFFFFFFFFF8000
FFFFFFFFFFFE0000
FFFFFFFFFFFF0000
FFFFFFFFFFFFC000
FFFFFFFFFFFFE000
FFFFFFFFFFFFF000
FFFFFFFFFFFFF800
FFFFFFFFFFFFFC00
FFFFFFFFFFFFFE00
FFFE00000FFFFE00
FFFE000001FFFF00
FFFE000000FFFF00
FFFE0000007FFF80
FFFE0000003FFF80
FFFE0000003FFF80
FFFE0000003FFF80
FFFE0000001FFFC0
FFFE0000001FFFC0
FFFE0000001FFFC0
FFFE0000001FFFC0
FFFE0000001FFFC0
FFFE0000001FFFC0
FFFE0000003FFFC0
FFFE0000003FFF80
FFFE0000007FFF80
FFFE0000007FFF80
FFFE000000FFFF80
FFFE000003FFFF80
FFFE00000FFFFF00
FFFFFFFFFFFFFF00
FFFFFFFFFFFFFF00
FFFFFFFFFFFFFE00
FFFFFFFFFFFFFE00
FFFFFFFFFFFFFC00
FFFFFFFFFFFFF800
FFFFFFFFFFFFF800
FFFFFFFFFFFFF000
FFFFFFFFFFFFE000
FFFFFFFFFFFFC000
FFFFFFFFFFFF0000
FFFFFFFFFFFC0000
FFFFFFFFFFF00000
FFFFFFFFFF000000
ENDCHAR
STARTCHAR 0043
ENCODING 67
SWIDTH 747 0
DWIDTH 81 0
BBX 73 82 3 -2
BITMAP
00000001FFF800000000
0000003FFFFFC0000000
000001FFFFFFF8000000
000007FFFFFFFE000000
00001FFFFFFFFF800000
00007FFFFFFFFFE00000
0000FFFFFFFFFFF00000
0003FFFFFFFFFFFC0000
0007FFFFFFFFFFFE0000
000FFFFFFFFFFFFF0000
001FFFFFFFFFFFFF8000
003FFFFFFFFFFFFFC000
007FFFFFFFFFFFFFE000
00FFFFFFFFFFFFFFF000
00FFFFFF000FFFFFF000
01FFFFF80001FFFFF800
03FFFFE000007FFFFC00
03FFFF8000001FFFFC00
07FFFF0000000FFFFE00
07FFFE00000007FFFE00
0FFFFC00000003FFFF00
0FFFF800000001FFFF00
1FFFF000000000FFFF80
1FFFF000000000FFFF80
1FFFE0000000007FFF80
3FFFE0000000007FFE00
3FFFC0000000003FF000
3FFFC0000000003F0000
3FFFC000000000380000
7FFF8000000000000000
7FFF8000000000000000
7FFF8000000000000000
7FFF0000000000000000
7FFF0000000000000000
7FFF0000000000000000
FFFF0000000000000000
FFFF0000000000000000
FFFF0000000000000000
FFFF0000000000000000
FFFF0000000000000000
FFFF0000000000000000
FFFF0000000000000000
FFFF0000000000000000
FFFF0000000000000000
FFFF0000000000000000
FFFF0000000000000000
FFFF0000000000000000
7FFF0000000000000000
7FFF0000000000000000
7FFF0000000000000000
7FFF8000000000000000
7FFF8000000000000000
7FFF8000000000000000
3FFFC000000000300000
3FFFC0000000003F0000
3FFFC0000000003FF000
3FFFE0000000007FFE00
1FFFE0000000007FFF80
1FFFF000000000FFFF80
1FFFF000000000FFFF80
0FFFF800000001FFFF00
0FFFFC00000003FFFF00
07FFFE00000007FFFE00
07FFFF0000000FFFFE00
03FFFF8000001FFFFC00
03FFFFE000007FFFFC00
01FFFFF80001FFFFF800
00FFFFFF000FFFFFF000
007FFFFFFFFFFFFFF000
007FFFFFFFFFFFFFE000
003FFFFFFFFFFFFFC000
001FFFFFFFFFFFFF8000
000FFFFFFFFFFFFF0000
0007FFFFFFFFFFFE0000
0003FFFFFFFFFFFC0000
0000FFFFFFFFFFF00000
00007FFFFFFFFFE00000
00001FFFFFFFFF800000
000007FFFFFFFE000000
000001FFFFFFF8000000
0000001FFFFFC0000000
00000001FFF800000000
ENDCHAR
STARTCHAR 0044
ENCODING 68
SWIDTH 710 0
DWIDTH 77 0
BBX 63 78 8 0
BITMAP
FFFFFFFFE0000000
FFFFFFFFFE000000
FFFFFFFFFFC00000
FFFFFFFFFFF80000
FFFFFFFFFFFC0000
FFFFFFFFFFFF0000
FFFFFFFFFFFF8000
FFFFFFFFFFFFE000
FFFFFFFFFFFFF000
FFFFFFFFFFFFF800
FFFFFFFFFFFFFC00
FFFFFFFFFFFFFE00
FFFFFFFFFFFFFE00
FFFFFFFFFFFFFF00
FFFE00003FFFFF80
FFFE000007FFFF80
FFFE000003FFFFC0
FFFE000000FFFFE0
FFFE0000007FFFE0
FFFE0000003FFFF0
FFFE0000001FFFF0
FFFE0000001FFFF0
FFFE0000000FFFF8
FFFE0000000FFFF8
FFFE00000007FFF8
FFFE00000007FFFC
FFFE00000003FFFC
FFFE00000003FFFC
FFFE00000003FFFC
FFFE00000001FFFE
FFFE00000001FFFE
FFFE00000001FFFE
FFFE00000001FFFE
FFFE00000001FFFE
FFFE00000000FFFE
FFFE00000000FFFE
FFFE00000000FFFE
FFFE00000000FFFE
FFFE00000000FFFE
FFFE00000000FFFE
FFFE00000000FFFE
FFFE00000000FFFE
FFFE00000000FFFE
FFFE00000000FFFE
FFFE00000001FFFE
FFFE00000001FFFE
FFFE00000001FFFE
FFFE00000001FFFE
FFFE00000001FFFE
FFFE00000003FFFC
FFFE00000003FFFC
FFFE00000003FFFC
FFFE00000007FFFC
FFFE00000007FFF8
FFFE0000000FFFF8
FFFE0000000FFFF8
FFFE0000001FFFF0
FFFE0000001FFFF0
FFFE0000003FFFF0
FFFE0000007FFFE0
FFFE000000FFFFE0
FFFE000003FFFFC0
FFFE000007FFFF80
FFFE00003FFFFF80
FFFFFFFFFFFFFF00
FFFFFFFFFFFFFE00
FFFFFFFFFFFFFE00
FFFFFFFFFFFFFC00
FFFFFFFFFFFFF800
FFFFFFFFFFFFF000
FFFFFFFFFFFFE000
FFFFFFFFFFFF8000
FFFFFFFFFFFF0000
FFFFFFFFFFFE0000
FFFFFFFFFFF80000
FFFFFFFFFFC00000
FFFFFFFFFF000000
FFFFFFFFE0000000
ENDCHAR
STARTCHAR 0045
ENCODING 69
SWIDTH 590 0
DWIDTH 64 0
BBX 51 78 8 0
BITMAP
FFFFFFFFFFFFE0
FFFFFFFFFFFFE0
FFFFFFFFFFFFE0
FFFFFFFFFFFFE0
FFFFFFFFFFFFE0
FFFFFFFFFFFFE0
FFFFFFFFFFFFE0
FFFFFFFFFFFFE0
FFFFFFFFFFFFE0
FFFFFFFFFFFFE0
FFFFFFFFFFFFE0
FFFFFFFFFFFFE0
FFFFFFFFFFFFE0
FFFFFFFFFFFFE0
FFFC0000000000
FFFC0000000000
FFFC0000000000
FFFC0000000000
FFFC0000000000
FFFC0000000000
FFFC0000000000
FFFC0000000000
FFFC0000000000
FFFC0000000000
FFFC0000000000
FFFC0000000000
FFFC0000000000
FFFC0000000000
FFFC0000000000
FFFC0000000000
FFFFFFFFFFF000
FFFFFFFFFFF000
FFFFFFFFFFF000
FFFFFFFFFFF000
FFFFFFFFFFF000
FFFFFFFFFFF000
FFFFFFFFFFF000
FFFFFFFFFFF000
FFFFFFFFFFF000
FFFFFFFFFFF000
FFFFFFFFFFF000
FFFFFFFFFFF000
FFFFFFFFFFF000
FFFFFFFFFFF000
FFFC0000000000
FFFC0000000000
FFFC0000000000
FFFC0000000000
FFFC0000000000
FFFC0000000000
FFFC0000000000
FFFC0000000000
FFFC0000000000
FFFC0000000000
FFFC0000000000
FFFC0000000000
FFFC0000000000
FFFC0000000000
FFFC0000000000
FFFC0000000000
FFFC0000000000
FFFC0000000000
FFFC0000000000
FFFC0000000000
FFFFFFFFFFFFE0
FFFFFFFFFFFFE0
FFFFFFFFFFFFE0
FFFFFFFFFFFFE0
FFFFFFFFFFFFE0
FFFFFFFFFFFFE0
FFFFFFFFFFFFE0
FFFFFFFFFFFFE0
FFFFFFFFFFFFE0
FFFFFFFFFFFFE0
FFFFFFFFFFFFE0
FFFFFFFFFFFFE0
FFFFFFFFFFFFE0
FFFFFFFFFFFFE0
ENDCHAR
STARTCHAR 0046
ENCODING 70
SWIDTH 526 0
DWIDTH 57 0
BBX 47 78 8 0
BITMAP
FFFFFFFFFFFE
FFFFFFFFFFFE
FFFFFFFFFFFE
FFFFFFFFFFFE
FFFFFFFFFFFE
FFFFFFFFFFFE
FFFFFFFFFFFE
FFFFFFFFFFFE
FFFFFFFFFFFE
FFFFFFFFFFFE
FFFFFFFFFFFE
FFFFFFFFFFFE
FFFFFFFFFFFE
FFFFFFFFFFFE
FFFFFFFFFFFE
FFFC00000000
FFFC00000000
FFFC00000000
FFFC00000000
FFFC00000000
FFFC00000000
FFFC00000000
FFFC00000000
FFFC00000000
FFFC00000000
FFFC00000000
FFFC00000000
FFFC00000000
FFFC00000000
FFFC00000000
FFFC00000000
FFFFFFFFFF80
FFFFFFFFFF80
FFFFFFFFFF80
FFFFFFFFFF80
FFFFFFFFFF80
FFFFFFFFFF80
FFFFFFFFFF80
FFFFFFFFFF80
FFFFFFFFFF80
FFFFFFFFFF80
FFFFFFFFFF80
FFFFFFFFFF80
FFFFFFFFFF80
FFFFFFFFFF80
FFFFFFFFFF80
FFFC00000000
FFFC00000000
FFFC00000000
FFFC00000000
FFFC00000000
FFFC00000000
FFFC00000000
FFFC00000000
FFFC00000000
FFFC00000000
FFFC00000000
FFFC00000000
FFFC00000000
FFFC00000000
FFFC00000000
FFFC00000000
FFFC00000000
FFFC00000000
FFFC00000000
FFFC00000000
FFFC00000000
FFFC00000000
FFFC00000000
FFFC00000000
FFFC00000000
FFFC00000000
FFFC00000000
FFFC00000000
FFFC00000000
FFFC00000000
FFFC00000000
FFFC00000000
ENDCHAR
STARTCHAR 0047
ENCODING 71
SWIDTH 738 0
DWIDTH 80 0
BBX 74 82 3 -2
BITMAP
00000001FFF000000000
0000003FFFFF80000000
000001FFFFFFF8000000
000007FFFFFFFE000000
00001FFFFFFFFF800000
00007FFFFFFFFFE00000
0000FFFFFFFFFFF00000
0003FFFFFFFFFFF80000
0007FFFFFFFFFFFC0000
000FFFFFFFFFFFFE0000
001FFFFFFFFFFFFF0000
003FFFFFFFFFFFFF8000
007FFFFFFFFFFFFFC000
007FFFFFFFFFFFFFE000
00FFFFFF001FFFFFE000
01FFFFF80003FFFFF000
03FFFFE00000FFFFF000
03FFFF8000003FFFF800
07FFFF0000001FFFF800
07FFFE0000000FFFFC00
0FFFFC00000007FFFC00
0FFFF800000007FFFE00
1FFFF000000003FFFE00
1FFFF000000001FFFE00
1FFFE000000001FFFF00
3FFFE000000000FFFF00
3FFFC000000000FFFF00
3FFFC0000000007FF000
3FFFC000000000780000
7FFF8000000000000000
7FFF8000000000000000
7FFF8000000000000000
7FFF8000000000000000
7FFF0000000000000000
7FFF0000000000000000
FFFF0000000000000000
FFFF0000000000000000
FFFF0000000000000000
FFFF0000000000000000
FFFF00000003FFFFFFC0
FFFF00000003FFFFFFC0
FFFF00000003FFFFFFC0
FFFF00000003FFFFFFC0
FFFF00000003FFFFFFC0
FFFF00000003FFFFFFC0
FFFF00000003FFFFFFC0
FFFF00000003FFFFFFC0
7FFF00000003FFFFFFC0
7FFF00000003FFFFFFC0
7FFF80000003FFFFFFC0
7FFF80000000003FFF80
7FFF80000000003FFF80
7FFF80000000003FFF80
3FFFC0000000007FFF80
3FFFC0000000007FFF80
3FFFC0000000007FFF00
3FFFE000000000FFFF00
1FFFE000000000FFFF00
1FFFF000000001FFFF00
0FFFF800000001FFFE00
0FFFF800000003FFFE00
0FFFFC00000007FFFC00
07FFFE0000000FFFFC00
07FFFF0000001FFFF800
03FFFF8000003FFFF800
01FFFFE000007FFFF000
01FFFFF80001FFFFF000
00FFFFFF000FFFFFE000
007FFFFFFFFFFFFFC000
007FFFFFFFFFFFFF8000
003FFFFFFFFFFFFF8000
001FFFFFFFFFFFFF0000
000FFFFFFFFFFFFE0000
0007FFFFFFFFFFFC0000
0003FFFFFFFFFFF00000
0000FFFFFFFFFFE00000
00007FFFFFFFFFC00000
00001FFFFFFFFF000000
000007FFFFFFFC000000
000001FFFFFFF0000000
0000003FFFFF80000000
00000001FFF000000000
ENDCHAR
STARTCHAR 0048
ENCODING 72
SWIDTH 738 0
DWIDTH 80 0
BBX 64 78 8 0
BITMAP
FFFC000000007FFF
FFFC000000007FFF
FFFC000000007FFF
FFFC000000007FFF
FFFC000000007FFF
FFFC000000007FFF
FFFC000000007FFF
FFFC000000007FFF
FFFC000000007FFF
FFFC000000007FFF
FFFC000000007FFF
FFFC000000007FFF
FFFC000000007FFF
FFFC000000007FFF
FFFC000000007FFF
FFFC000000007FFF
FFFC000000007FFF
FFFC000000007FFF
FFFC000000007FFF
FFFC000000007FFF
FFFC000000007FFF
FFFC000000007FFF
FFFC000000007FFF
FFFC000000007FFF
FFFC000000007FFF
FFFC000000007FFF
FFFC000000007FFF
FFFC000000007FFF
FFFC000000007FFF
FFFC000000007FFF
FFFC000000007FFF
FFFC000000007FFF
FFFFFFFFFFFFFFFF
FFFFFFFFFFFFFFFF
FFFFFFFFFFFFFFFF
FFFFFFFFFFFFFFFF
FFFFFFFFFFFFFFFF
FFFFFFFFFFFFFFFF
FFFFFFFFFFFFFFFF
FFFFFFFFFFFFFFFF
FFFFFFFFFFFFFFFF
FFFFFFFFFFFFFFFF
FFFFFFFFFFFFFFFF
FFFFFFFFFFFFFFFF
FFFFFFFFFFFFFFFF
FFFFFFFFFFFFFFFF
FFFC000000007FFF
FFFC000000007FFF
FFFC000000007FFF
FFFC000000007FFF
FFFC000000007FFF
FFFC000000007FFF
FFFC000000007FFF
FFFC000000007FFF
FFFC000000007FFF
FFFC000000007FFF
FFFC000000007FFF
FFFC000000007FFF
FFFC000000007FFF
FFFC000000007FFF
FFFC000000007FFF
FFFC000000007FFF
FFFC000000007FFF
FFFC000000007FFF
FFFC000000007FFF
FFFC000000007FFF
FFFC000000007FFF
FFFC000000007FFF
FFFC000000007FFF
FFFC000000007FFF
FFFC000000007FFF
FFFC000000007FFF
FFFC000000007FFF
FFFC000000007FFF
FFFC000000007FFF
FFFC000000007FFF
FFFC000000007FFF
FFFC000000007FFF
ENDCHAR
STARTCHAR 0049
ENCODING 73
SWIDTH 295 0
DWIDTH 32 0
BBX 14 78 9 0
BITMAP
FFFC
FFFC
FFFC
FFFC
FFFC
FFFC
FFFC
FFFC
FFFC
FFFC
FFFC
FFFC
FFFC
FFFC
FFFC
FFFC
FFFC
FFFC
FFFC
FFFC
FFFC
FFFC
FFFC
FFFC
FFFC
FFFC
FFFC
FFFC
FFFC
FFFC
FFFC
FFFC
FFFC
FFFC
FFFC
FFFC
FFFC
FFFC
FFFC
FFFC
FFFC
FFFC
FFFC
FFFC
FFFC
FFFC
FFFC
FFFC
FFFC
FFFC
FFFC
FFFC
FFFC
FFFC
FFFC
FFFC
FFFC
FFFC
FFFC
FFFC
FFFC
FFFC
FFFC
FFFC
FFFC
FFFC
FFFC
FFFC
FFFC
FFFC
FFFC
FFFC
FFFC
FFFC
FFFC
FFFC
FFFC
FFFC
ENDCHAR
STARTCHAR 004A
ENCODING 74
SWIDTH 516 0
DWIDTH 56 0
BBX 47 80 0 -2
BITMAP
00000000FFFE
00000000FFFE
00000000FFFE
00000000FFFE
00000000FFFE
00000000FFFE
00000000FFFE
00000000FFFE
00000000FFFE
00000000FFFE
00000000FFFE
00000000FFFE
00000000FFFE
00000000FFFE
00000000FFFE
00000000FFFE
00000000FFFE
00000000FFFE
00000000FFFE
00000000FFFE
00000000FFFE
00000000FFFE
00000000FFFE
00000000FFFE
00000000FFFE
00000000FFFE
00000000FFFE
00000000FFFE
00000000FFFE
00000000FFFE
00000000FFFE
00000000FFFE
00000000FFFE
00000000FFFE
00000000FFFE
00000000FFFE
00000000FFFE
00000000FFFE
00000000FFFE
00000000FFFE
00000000FFFE
00000000FFFE
00000000FFFE
00000000FFFE
00000000FFFE
00000000FFFE
00000000FFFE
00000000FFFE
00000000FFFE
00000000FFFE
00000000FFFE
00000000FFFE
00000000FFFE
00000000FFFE
00000000FFFE
00000000FFFE
00000000FFFE
00000000FFFE
00000000FFFE
000E0000FFFE
00FE0001FFFE
1FFE0001FFFE
FFFF0001FFFE
FFFF8003FFFC
7FFFC007FFFC
7FFFF01FFFFC
3FFFFFFFFFFC
3FFFFFFFFFF8
1FFFFFFFFFF8
1FFFFFFFFFF0
0FFFFFFFFFE0
07FFFFFFFFE0
03FFFFFFFFC0
03FFFFFFFF80
00FFFFFFFF00
007FFFFFFE00
003FFFFFF800
000FFFFFF000
0001FFFF8000
00001FF80000
ENDCHAR
STARTCHAR 004B
ENCODING 75
SWIDTH 664 0
DWIDTH 72 0
BBX 64 78 8 0
BITMAP
FFFC0000000FFFFC
FFFC0000001FFFF8
FFFC0000003FFFF0
FFFC0000007FFFE0
FFFC000000FFFFC0
FFFC000001FFFF80
FFFC000001FFFF00
FFFC000003FFFF00
FFFC000007FFFE00
FFFC00000FFFFC00
FFFC00001FFFF800
FFFC00003FFFF000
FFFC00003FFFE000
FFFC00007FFFE000
FFFC0000FFFFC000
FFFC0001FFFF8000
FFFC0003FFFF0000
FFFC0003FFFE0000
FFFC0007FFFC0000
FFFC000FFFF80000
FFFC001FFFF80000
FFFC003FFFF00000
FFFC007FFFE00000
FFFC007FFFC00000
FFFC00FFFF800000
FFFC01FFFF000000
FFFC03FFFF000000
FFFC07FFFE000000
FFFC0FFFFC000000
FFFC0FFFF8000000
FFFC1FFFF0000000
FFFC3FFFE0000000
FFFC7FFFC0000000
FFFCFFFFC0000000
FFFCFFFF80000000
FFFDFFFF00000000
FFFFFFFE00000000
FFFFFFFC00000000
FFFFFFF800000000
FFFFFFFC00000000
FFFFFFFE00000000
FFFFFFFF00000000
FFFFFFFF80000000
FFFDFFFFC0000000
FFFCFFFFE0000000
FFFC7FFFF0000000
FFFC3FFFF0000000
FFFC1FFFF8000000
FFFC0FFFFC000000
FFFC0FFFFE000000
FFFC07FFFF000000
FFFC03FFFF800000
FFFC01FFFFC00000
FFFC00FFFFE00000
FFFC007FFFE00000
FFFC003FFFF00000
FFFC001FFFF80000
FFFC001FFFFC0000
FFFC000FFFFE0000
FFFC0007FFFF0000
FFFC0003FFFF8000
FFFC0001FFFFC000
FFFC0000FFFFC000
FFFC00007FFFE000
FFFC00003FFFF000
FFFC00003FFFF800
FFFC00001FFFFC00
FFFC00000FFFFE00
FFFC000007FFFF00
FFFC000003FFFF80
FFFC000001FFFF80
FFFC000000FFFFC0
FFFC0000007FFFE0
FFFC0000007FFFF0
FFFC0000003FFFF8
FFFC0000001FFFFC
FFFC0000000FFFFE
FFFC00000007FFFF
ENDCHAR
STARTCHAR 004C
ENCODING 76
SWIDTH 544 0
DWIDTH 59 0
BBX 48 78 9 0
BITMAP
FFFC00000000
FFFC00000000
FFFC00000000
FFFC00000000
FFFC00000000
FFFC00000000
FFFC00000000
FFFC00000000
FFFC00000000
FFFC00000000
FFFC00000000
FFFC00000000
FFFC00000000
FFFC00000000
FFFC00000000
FFFC00000000
FFFC00000000
FFFC00000000
FFFC00000000
FFFC00000000
FFFC00000000
FFFC00000000
FFFC00000000
FFFC00000000
FFFC00000000
FFFC00000000
FFFC00000000
FFFC00000000
FFFC00000000
FFFC00000000
FFFC00000000
FFFC00000000
FFFC00000000
FFFC00000000
FFFC00000000
FFFC00000000
FFFC00000000
FFFC00000000
FFFC00000000
FFFC00000000
FFFC00000000
FFFC00000000
FFFC00000000
FFFC00000000
FFFC00000000
FFFC00000000
FFFC00000000
FFFC00000000
FFFC00000000
FFFC00000000
FFFC00000000
FFFC00000000
FFFC00000000
FFFC00000000
FFFC00000000
FFFC00000000
FFFC00000000
FFFC00000000
FFFC00000000
FFFC00000000
FFFC00000000
FFFC00000000
FFFC00000000
FFFC00000000
FFFFFFFFFFFF
FFFFFFFFFFFF
FFFFFFFFFFFF
FFFFFFFFFFFF
FFFFFFFFFFFF
FFFFFFFFFFFF
FFFFFFFFFFFF
FFFFFFFFFFFF
FFFFFFFFFFFF
FFFFFFFFFFFF
FFFFFFFFFFFF
FFFFFFFFFFFF
FFFFFFFFFFFF
FFFFFFFFFFFF
ENDCHAR
STARTCHAR 004D
ENCODING 77
SWIDTH 858 0
DWIDTH 93 0
BBX 78 78 8 0
BITMAP
FFF8000000000000FFFC
FFFC000000000000FFFC
FFFC000000000001FFFC
FFFE000000000001FFFC
FFFE000000000003FFFC
FFFF000000000003FFFC
FFFF000000000007FFFC
FFFF800000000007FFFC
FFFF80000000000FFFFC
FFFFC0000000000FFFFC
FFFFC0000000001FFFFC
FFFFE0000000001FFFFC
FFFFE0000000003FFFFC
FFFFF0000000003FFFFC
FFFFF0000000007FFFFC
FFFFF8000000007FFFFC
FFFFF800000000FFFFFC
FFFFFC00000000FFFFFC
FFFFFC00000001FFFFFC
FFFFFE00000001FFFFFC
FFFFFE00000003FFFFFC
FFFFFF00000003FFFFFC
FFFFFF00000007FFFFFC
FFFFFF80000007FFFFFC
FFFFFF8000000FFFFFFC
FFFFFFC000000FFFFFFC
FFFFFFC000001FFFFFFC
FFFFFFE000001FFFFFFC
FFFFFFE000003FFFFFFC
FFFFFFF000003FFFFFFC
FFFFFFF000007FFFFFFC
FFFFFFF000007FFFFFFC
FFFBFFF80000FFFEFFFC
FFFBFFF80000FFFEFFFC
FFF9FFFC0001FFFCFFFC
FFF9FFFC0001FFFCFFFC
FFF8FFFE0003FFF8FFFC
FFF8FFFE0003FFF8FFFC
FFF87FFF0007FFF0FFFC
FFF87FFF0007FFF0FFFC
FFF83FFF800FFFE0FFFC
FFF83FFF800FFFE0FFFC
FFF81FFFC01FFFC0FFFC
FFF81FFFC01FFFC0FFFC
FFF80FFFE03FFF80FFFC
FFF80FFFE03FFF80FFFC
FFF807FFF07FFF00FFFC
FFF807FFF07FFF00FFFC
FFF803FFF8FFFF00FFFC
FFF803FFF8FFFE00FFFC
FFF801FFFDFFFE00FFFC
FFF801FFFDFFFC00FFFC
FFF800FFFFFFFC00FFFC
FFF800FFFFFFF800FFFC
FFF8007FFFFFF800FFFC
FFF8007FFFFFF000FFFC
FFF8003FFFFFF000FFFC
FFF8003FFFFFE000FFFC
FFF8003FFFFFE000FFFC
FFF8001FFFFFC000FFFC
FFF8001FFFFFC000FFFC
FFF8000FFFFF8000FFFC
FFF8000FFFFF8000FFFC
FFF80007FFFF0000FFFC
FFF80007FFFF0000FFFC
FFF80003FFFE0000FFFC
FFF80003FFFE0000FFFC
FFF80001FFFC0000FFFC
FFF80001FFFC0000FFFC
FFF80000FFF80000FFFC
FFF80000FFF80000FFFC
FFF800007FF00000FFFC
FFF800007FF00000FFFC
FFF800003FE00000FFFC
FFF800003FE00000FFFC
FFF800001FC00000FFFC
FFF800001FC00000FFFC
FFF800000F800000FFFC
ENDCHAR
STARTCHAR 004E
ENCODING 78
SWIDTH 729 0
DWIDTH 79 0
BBX 63 78 8 0
BITMAP
FFFE00000000FFFE
FFFF00000000FFFE
FFFF00000000FFFE
FFFF80000000FFFE
FFFF80000000FFFE
FFFFC0000000FFFE
FFFFE0000000FFFE
FFFFE0000000FFFE
FFFFF0000000FFFE
FFFFF8000000FFFE
FFFFF8000000FFFE
FFFFFC000000FFFE
FFFFFE000000FFFE
FFFFFE000000FFFE
FFFFFF000000FFFE
FFFFFF800000FFFE
FFFFFF800000FFFE
FFFFFFC00000FFFE
FFFFFFE00000FFFE
FFFFFFE00000FFFE
FFFFFFF00000FFFE
FFFFFFF80000FFFE
FFFFFFF80000FFFE
FFFFFFFC0000FFFE
FFFFFFFE0000FFFE
FFFFFFFE0000FFFE
FFFFFFFF0000FFFE
FFFFFFFF0000FFFE
FFFEFFFF8000FFFE
FFFE7FFFC000FFFE
FFFE7FFFC000FFFE
FFFE3FFFE000FFFE
FFFE1FFFF000FFFE
FFFE1FFFF000FFFE
FFFE0FFFF800FFFE
FFFE07FFFC00FFFE
FFFE07FFFC00FFFE
FFFE03FFFE00FFFE
FFFE01FFFF00FFFE
FFFE01FFFF00FFFE
FFFE00FFFF80FFFE
FFFE007FFFC0FFFE
FFFE007FFFC0FFFE
FFFE003FFFE0FFFE
FFFE001FFFF0FFFE
FFFE001FFFF0FFFE
FFFE000FFFF8FFFE
FFFE0007FFFCFFFE
FFFE0007FFFCFFFE
FFFE0003FFFEFFFE
FFFE0003FFFEFFFE
FFFE0001FFFFFFFE
FFFE0000FFFFFFFE
FFFE0000FFFFFFFE
FFFE00007FFFFFFE
FFFE00003FFFFFFE
FFFE00003FFFFFFE
FFFE00001FFFFFFE
FFFE00000FFFFFFE
FFFE00000FFFFFFE
FFFE000007FFFFFE
FFFE000003FFFFFE
FFFE000003FFFFFE
FFFE000001FFFFFE
FFFE000000FFFFFE
FFFE000000FFFFFE
FFFE0000007FFFFE
FFFE0000003FFFFE
FFFE0000003FFFFE
FFFE0000001FFFFE
FFFE0000000FFFFE
FFFE0000000FFFFE
FFFE00000007FFFE
FFFE00000007FFFE
FFFE00000003FFFE
FFFE00000001FFFE
FFFE00000001FFFE
FFFE00000000FFFE
ENDCHAR
STARTCHAR 004F
ENCODING 79
SWIDTH 756 0
DWIDTH 82 0
BBX 76 82 3 -2
BITMAP
00000001FFF800000000
0000003FFFFFC0000000
000001FFFFFFF8000000
000007FFFFFFFE000000
00001FFFFFFFFF800000
00007FFFFFFFFFE00000
0000FFFFFFFFFFF00000
0003FFFFFFFFFFFC0000
0007FFFFFFFFFFFE0000
000FFFFFFFFFFFFF0000
001FFFFFFFFFFFFF8000
003FFFFFFFFFFFFFC000
007FFFFFFFFFFFFFE000
00FFFFFFFFFFFFFFF000
00FFFFFF001FFFFFF000
01FFFFF80001FFFFF800
03FFFFE000007FFFFC00
03FFFF8000001FFFFC00
07FFFF0000000FFFFE00
07FFFE00000007FFFE00
0FFFFC00000003FFFF00
0FFFF800000001FFFF00
1FFFF000000000FFFF80
1FFFF000000000FFFF80
1FFFE0000000007FFF80
3FFFE0000000007FFFC0
3FFFC0000000003FFFC0
3FFFC0000000003FFFC0
3FFFC0000000003FFFC0
7FFF80000000001FFFE0
7FFF80000000001FFFE0
7FFF80000000001FFFE0
7FFF80000000001FFFE0
7FFF00000000000FFFE0
7FFF00000000000FFFE0
FFFF00000000000FFFF0
FFFF00000000000FFFF0
FFFF00000000000FFFF0
FFFF00000000000FFFF0
FFFF00000000000FFFF0
FFFF00000000000FFFF0
FFFF00000000000FFFF0
FFFF00000000000FFFF0
FFFF00000000000FFFF0
FFFF00000000000FFFF0
FFFF00000000000FFFF0
FFFF00000000000FFFF0
7FFF00000000000FFFE0
7FFF00000000000FFFE0
7FFF80000000001FFFE0
7FFF80000000001FFFE0
7FFF80000000001FFFE0
7FFF80000000001FFFE0
3FFFC0000000003FFFC0
3FFFC0000000003FFFC0
3FFFC0000000003FFFC0
3FFFE0000000007FFFC0
1FFFE0000000007FFF80
1FFFF000000000FFFF80
1FFFF800000000FFFF80
0FFFF800000001FFFF00
0FFFFC00000003FFFF00
07FFFE00000007FFFE00
07FFFF0000000FFFFE00
03FFFF8000001FFFFC00
03FFFFE000007FFFFC00
01FFFFF80001FFFFF800
00FFFFFF000FFFFFF000
007FFFFFFFFFFFFFF000
007FFFFFFFFFFFFFE000
003FFFFFFFFFFFFFC000
001FFFFFFFFFFFFF8000
000FFFFFFFFFFFFF0000
0007FFFFFFFFFFFE0000
0003FFFFFFFFFFFC0000
0000FFFFFFFFFFF00000
00007FFFFFFFFFE00000
00001FFFFFFFFF800000
000007FFFFFFFE000000
000001FFFFFFF8000000
0000001FFFFFC0000000
00000001FFF800000000
ENDCHAR
STARTCHAR 0050
ENCODING 80
SWIDTH 646 0
DWIDTH 70 0
BBX 59 78 8 0
BITMAP
FFFFFFFFFE000000
FFFFFFFFFFE00000
FFFFFFFFFFFC0000
FFFFFFFFFFFF0000
FFFFFFFFFFFFC000
FFFFFFFFFFFFE000
FFFFFFFFFFFFF000
FFFFFFFFFFFFF800
FFFFFFFFFFFFFC00
FFFFFFFFFFFFFE00
FFFFFFFFFFFFFE00
FFFFFFFFFFFFFF00
FFFFFFFFFFFFFF00
FFFFFFFFFFFFFF80
FFFC000007FFFF80
FFFC000001FFFFC0
FFFC0000007FFFC0
FFFC0000003FFFC0
FFFC0000003FFFC0
FFFC0000001FFFE0
FFFC0000001FFFE0
FFFC0000000FFFE0
FFFC0000000FFFE0
FFFC0000000FFFE0
FFFC0000000FFFE0
FFFC0000000FFFE0
FFFC0000000FFFE0
FFFC0000000FFFE0
FFFC0000000FFFE0
FFFC0000000FFFE0
FFFC0000000FFFE0
FFFC0000001FFFE0
FFFC0000001FFFE0
FFFC0000003FFFC0
FFFC0000003FFFC0
FFFC0000007FFFC0
FFFC000001FFFFC0
FFFC000007FFFF80
FFFFFFFFFFFFFF80
FFFFFFFFFFFFFF00
FFFFFFFFFFFFFF00
FFFFFFFFFFFFFE00
FFFFFFFFFFFFFC00
FFFFFFFFFFFFFC00
FFFFFFFFFFFFF800
FFFFFFFFFFFFF000
FFFFFFFFFFFFE000
FFFFFFFFFFFF8000
FFFFFFFFFFFF0000
FFFFFFFFFFFC0000
FFFFFFFFFFE00000
FFFFFFFFF0000000
FFFC000000000000
FFFC000000000000
FFFC000000000000
FFFC000000000000
FFFC000000000000
FFFC000000000000
FFFC000000000000
FFFC000000000000
FFFC000000000000
FFFC000000000000
FFFC000000000000
FFFC000000000000
FFFC000000000000
FFFC000000000000
FFFC000000000000
FFFC000000000000
FFFC000000000000
FFFC000000000000
FFFC000000000000
FFFC000000000000
FFFC000000000000
FFFC000000000000
FFFC000000000000
FFFC000000000000
FFFC000000000000
FFFC000000000000
ENDCHAR
STARTCHAR 0051
ENCODING 81
SWIDTH 756 0
DWIDTH 82 0
BBX 76 82 3 -2
BITMAP
00000001FFF800000000
0000003FFFFFC0000000
000001FFFFFFF8000000
000007FFFFFFFE000000
00001FFFFFFFFF800000
00007FFFFFFFFFE00000
0000FFFFFFFFFFF00000
0003FFFFFFFFFFFC0000
0007FFFFFFFFFFFE0000
000FFFFFFFFFFFFF0000
001FFFFFFFFFFFFF8000
003FFFFFFFFFFFFFC000
007FFFFFFFFFFFFFE000
00FFFFFFFFFFFFFFF000
00FFFFFF001FFFFFF000
01FFFFF80001FFFFF800
03FFFFE000007FFFFC00
03FFFF8000001FFFFC00
07FFFF0000000FFFFE00
07FFFE00000007FFFE00
0FFFFC00000003FFFF00
0FFFF800000001FFFF00
1FFFF000000000FFFF80
1FFFF000000000FFFF80
1FFFE0000000007FFF80
3FFFE0000000007FFFC0
3FFFC0000000003FFFC0
3FFFC0000000003FFFC0
3FFFC0000000003FFFC0
7FFF80000000001FFFE0
7FFF80000000001FFFE0
7FFF80000000001FFFE0
7FFF80000000001FFFE0
7FFF00000000000FFFE0
7FFF00000000000FFFE0
FFFF00000000000FFFF0
FFFF00000000000FFFF0
FFFF00000000000FFFF0
FFFF00000000000FFFF0
FFFF00000000000FFFF0
FFFF00000000000FFFF0
FFFF00000000000FFFF0
FFFF00000000000FFFF0
FFFF00000000000FFFF0
FFFF00000000000FFFF0
FFFF00000000000FFFF0
FFFF00000000000FFFF0
7FFF00000000000FFFE0
7FFF00000000000FFFE0
7FFF80000000000FFFE0
7FFF80000000101FFFE0
7FFF80000000381FFFE0
7FFF800000007C1FFFE0
3FFFC0000000FE3FFFC0
3FFFC0000001FF3FFFC0
3FFFC0000003FFBFFFC0
3FFFE0000007FFFFFFC0
1FFFE0000007FFFFFF80
1FFFF000000FFFFFFF80
1FFFF800001FFFFFFF80
0FFFF800000FFFFFFF00
0FFFFC000007FFFFFF00
07FFFE000003FFFFFE00
07FFFF000001FFFFFE00
03FFFF800000FFFFFC00
03FFFFE000007FFFFC00
01FFFFF80001FFFFF800
00FFFFFF000FFFFFF800
007FFFFFFFFFFFFFFC00
007FFFFFFFFFFFFFFE00
003FFFFFFFFFFFFFFF00
001FFFFFFFFFFFFFFF80
000FFFFFFFFFFFFFFFC0
0007FFFFFFFFFFFFFFC0
0003FFFFFFFFFFFFFF80
0000FFFFFFFFFFFFFF00
00007FFFFFFFFFEFFE00
00001FFFFFFFFF87FC00
000007FFFFFFFE03F800
000001FFFFFFF801F000
0000001FFFFFC000E000
00000001FFF800004000
ENDCHAR
STARTCHAR 0052
ENCODING 82
SWIDTH 673 0
DWIDTH 73 0
BBX 60 78 8 0
BITMAP
FFFFFFFFFE000000
FFFFFFFFFFE00000
FFFFFFFFFFFC0000
FFFFFFFFFFFF0000
FFFFFFFFFFFFC000
FFFFFFFFFFFFE000
FFFFFFFFFFFFF000
FFFFFFFFFFFFF800
FFFFFFFFFFFFFC00
FFFFFFFFFFFFFE00
FFFFFFFFFFFFFE00
FFFFFFFFFFFFFF00
FFFFFFFFFFFFFF00
FFFFFFFFFFFFFF80
FFFC000007FFFF80
FFFC000001FFFFC0
FFFC0000007FFFC0
FFFC0000003FFFC0
FFFC0000003FFFC0
FFFC0000001FFFE0
FFFC0000001FFFE0
FFFC0000000FFFE0
FFFC0000000FFFE0
FFFC0000000FFFE0
FFFC0000000FFFE0
FFFC0000000FFFE0
FFFC0000000FFFE0
FFFC0000000FFFE0
FFFC0000000FFFE0
FFFC0000000FFFE0
FFFC0000000FFFE0
FFFC0000001FFFE0
FFFC0000001FFFE0
FFFC0000003FFFC0
FFFC0000003FFFC0
FFFC0000007FFFC0
FFFC000001FFFFC0
FFFC000007FFFF80
FFFFFFFFFFFFFF80
FFFFFFFFFFFFFF00
FFFFFFFFFFFFFF00
FFFFFFFFFFFFFE00
FFFFFFFFFFFFFC00
FFFFFFFFFFFFFC00
FFFFFFFFFFFFF800
FFFFFFFFFFFFF000
FFFFFFFFFFFFE000
FFFFFFFFFFFF8000
FFFFFFFFFFFF0000
FFFFFFFFFFFC0000
FFFFFFFFFFFE0000
FFFFFFFFFFFE0000
FFFC0001FFFF0000
FFFC0000FFFF0000
FFFC0000FFFF8000
FFFC00007FFF8000
FFFC00007FFFC000
FFFC00003FFFC000
FFFC00003FFFE000
FFFC00003FFFE000
FFFC00001FFFF000
FFFC00001FFFF000
FFFC00000FFFF800
FFFC00000FFFF800
FFFC000007FFFC00
FFFC000007FFFC00
FFFC000003FFFE00
FFFC000003FFFE00
FFFC000001FFFF00
FFFC000001FFFF00
FFFC000000FFFF80
FFFC000000FFFF80
FFFC0000007FFFC0
FFFC0000007FFFC0
FFFC0000003FFFE0
FFFC0000003FFFE0
FFFC0000001FFFF0
FFFC0000001FFFF0
ENDCHAR
STARTCHAR 0053
ENCODING 83
SWIDTH 673 0
DWIDTH 73 0
BBX 64 82 4 -2
BITMAP
0000003FFE000000
000007FFFFE00000
00003FFFFFFC0000
0000FFFFFFFF8000
0003FFFFFFFFC000
000FFFFFFFFFF000
001FFFFFFFFFF800
003FFFFFFFFFFE00
007FFFFFFFFFFF00
00FFFFFFFFFFFF80
01FFFFFFFFFFFFC0
03FFFFFFFFFFFFC0
03FFFFFFFFFFFFE0
07FFFFFFFFFFFFF0
07FFFFE007FFFFF0
07FFFF0000FFFFF8
0FFFFC00007FFFF8
0FFFF800001FFFFC
0FFFF000000FFFFC
0FFFF0000007FFFE
0FFFE0000007FFFE
1FFFE0000003FFFE
1FFFE0000001FFFF
1FFFE0000001FFF8
1FFFE0000001FE00
1FFFE00000008000
1FFFF00000000000
0FFFF80000000000
0FFFFC0000000000
0FFFFF0000000000
0FFFFFE000000000
07FFFFFE00000000
07FFFFFFC0000000
03FFFFFFFC000000
03FFFFFFFF800000
01FFFFFFFFF80000
00FFFFFFFFFF0000
007FFFFFFFFFE000
003FFFFFFFFFF800
001FFFFFFFFFFE00
000FFFFFFFFFFF00
0003FFFFFFFFFF80
0000FFFFFFFFFFE0
00001FFFFFFFFFF0
000003FFFFFFFFF0
0000003FFFFFFFF8
00000007FFFFFFFC
00000000FFFFFFFC
000000000FFFFFFE
0000000001FFFFFE
00000000003FFFFE
000000000007FFFF
000000000003FFFF
000000000001FFFF
000700000000FFFF
03FF00000000FFFF
FFFF000000007FFF
FFFF800000007FFF
7FFF800000007FFF
7FFFC00000007FFF
7FFFC0000000FFFF
7FFFE0000000FFFF
3FFFF0000000FFFF
3FFFF8000001FFFF
1FFFFC000003FFFE
1FFFFF00000FFFFE
0FFFFFC0001FFFFC
0FFFFFF000FFFFFC
07FFFFFFFFFFFFF8
03FFFFFFFFFFFFF8
03FFFFFFFFFFFFF0
01FFFFFFFFFFFFE0
00FFFFFFFFFFFFE0
007FFFFFFFFFFFC0
003FFFFFFFFFFF00
001FFFFFFFFFFE00
0007FFFFFFFFFC00
0001FFFFFFFFF000
00007FFFFFFFC000
00001FFFFFFF0000
000003FFFFF80000
0000003FFF000000
ENDCHAR
STARTCHAR 0054
ENCODING 84
SWIDTH 609 0
DWIDTH 66 0
BBX 64 78 1 0
BITMAP
FFFFFFFFFFFFFFFF
FFFFFFFFFFFFFFFF
FFFFFFFFFFFFFFFF
FFFFFFFFFFFFFFFF
FFFFFFFFFFFFFFFF
FFFFFFFFFFFFFFFF
FFFFFFFFFFFFFFFF
FFFFFFFFFFFFFFFF
FFFFFFFFFFFFFFFF
FFFFFFFFFFFFFFFF
FFFFFFFFFFFFFFFF
FFFFFFFFFFFFFFFF
FFFFFFFFFFFFFFFF
FFFFFFFFFFFFFFFF
0000007FFE000000
0000007FFE000000
0000007FFE000000
0000007FFE000000
0000007FFE000000
0000007FFE000000
0000007FFE000000
0000007FFE000000
0000007FFE000000
0000007FFE000000
0000007FFE000000
0000007FFE000000
0000007FFE000000
0000007FFE000000
0000007FFE000000
0000007FFE000000
0000007FFE000000
0000007FFE000000
0000007FFE000000
0000007FFE000000
0000007FFE000000
0000007FFE000000
0000007FFE000000
0000007FFE000000
0000007FFE000000
0000007FFE000000
0000007FFE000000
0000007FFE000000
0000007FFE000000
0000007FFE000000
0000007FFE000000
0000007FFE000000
0000007FFE000000
0000007FFE000000
0000007FFE000000
0000007FFE000000
0000007FFE000000
0000007FFE000000
0000007FFE000000
0000007FFE000000
0000007FFE000000
0000007FFE000000
0000007FFE000000
0000007FFE000000
0000007FFE000000
0000007FFE000000
0000007FFE000000
0000007FFE000000
0000007FFE000000
0000007FFE000000
0000007FFE000000
0000007FFE000000
0000007FFE000000
0000007FFE000000
0000007FFE000000
0000007FFE000000
0000007FFE000000
0000007FFE000000
0000007FFE000000
0000007FFE000000
0000007FFE000000
0000007FFE000000
0000007FFE000000
0000007FFE000000
ENDCHAR
STARTCHAR 0055
ENCODING 85
SWIDTH 729 0
DWIDTH 79 0
BBX 63 80 8 -2
BITMAP
FFFE00000000FFFE
FFFE00000000FFFE
FFFE00000000FFFE
FFFE00000000FFFE
FFFE00000000FFFE
FFFE00000000FFFE
FFFE00000000FFFE
FFFE00000000FFFE
FFFE00000000FFFE
FFFE00000000FFFE
FFFE00000000FFFE
FFFE00000000FFFE
FFFE00000000FFFE
FFFE00000000FFFE
FFFE00000000FFFE
FFFE00000000FFFE
FFFE00000000FFFE
FFFE00000000FFFE
FFFE00000000FFFE
FFFE00000000FFFE
FFFE00000000FFFE
FFFE00000000FFFE
FFFE00000000FFFE
FFFE00000000FFFE
FFFE00000000FFFE
FFFE00000000FFFE
FFFE00000000FFFE
FFFE00000000FFFE
FFFE00000000FFFE
FFFE00000000FFFE
FFFE00000000FFFE
FFFE00000000FFFE
FFFE00000000FFFE
FFFE00000000FFFE
FFFE00000000FFFE
FFFE00000000FFFE
FFFE00000000FFFE
FFFE00000000FFFE
FFFE00000000FFFE
FFFE00000000FFFE
FFFE00000000FFFE
FFFE00000000FFFE
FFFE00000000FFFE
FFFE00000000FFFE
FFFE00000000FFFE
FFFE00000000FFFE
FFFE00000000FFFE
FFFE00000000FFFE
FFFE00000000FFFE
FFFE00000000FFFE
FFFE00000000FFFE
FFFE00000000FFFE
FFFE00000000FFFE
FFFE00000000FFFE
FFFE00000001FFFE
FFFF00000001FFFC
FFFF00000001FFFC
FFFF80000003FFFC
7FFF80000007FFFC
7FFFC0000007FFFC
7FFFE000000FFFF8
3FFFF000001FFFF8
3FFFF800003FFFF0
1FFFFC00007FFFF0
1FFFFF0001FFFFF0
0FFFFFC00FFFFFE0
0FFFFFFFFFFFFFC0
07FFFFFFFFFFFFC0
03FFFFFFFFFFFF80
03FFFFFFFFFFFF00
01FFFFFFFFFFFE00
00FFFFFFFFFFFC00
007FFFFFFFFFF800
001FFFFFFFFFF000
000FFFFFFFFFE000
0003FFFFFFFF8000
0001FFFFFFFE0000
00003FFFFFF80000
000007FFFFC00000
0000007FFC000000
ENDCHAR
STARTCHAR 0056
ENCODING 86
SWIDTH 655 0
DWIDTH 71 0
BBX 69 78 1 0
BITMAP
FFFE0000000003FFF8
FFFE0000000003FFF8
FFFE0000000007FFF0
7FFF0000000007FFF0
7FFF0000000007FFF0
7FFF000000000FFFF0
3FFF800000000FFFE0
3FFF800000000FFFE0
3FFF800000001FFFE0
3FFFC00000001FFFC0
1FFFC00000001FFFC0
1FFFC00000003FFFC0
1FFFE00000003FFF80
0FFFE00000003FFF80
0FFFE00000003FFF80
0FFFE00000007FFF00
07FFF00000007FFF00
07FFF00000007FFF00
07FFF0000000FFFF00
07FFF8000000FFFE00
03FFF8000000FFFE00
03FFF8000001FFFE00
03FFFC000001FFFC00
01FFFC000001FFFC00
01FFFC000003FFFC00
01FFFC000003FFF800
00FFFE000003FFF800
00FFFE000003FFF800
00FFFE000007FFF000
007FFF000007FFF000
007FFF000007FFF000
007FFF00000FFFF000
007FFF80000FFFE000
003FFF80000FFFE000
003FFF80001FFFE000
003FFFC0001FFFC000
001FFFC0001FFFC000
001FFFC0003FFFC000
001FFFC0003FFF8000
000FFFE0003FFF8000
000FFFE0003FFF8000
000FFFE0007FFF8000
0007FFF0007FFF0000
0007FFF0007FFF0000
0007FFF000FFFF0000
0007FFF800FFFE0000
0003FFF800FFFE0000
0003FFF801FFFE0000
0003FFF801FFFC0000
0001FFFC01FFFC0000
0001FFFC03FFFC0000
0001FFFC03FFF80000
0000FFFE03FFF80000
0000FFFE07FFF80000
0000FFFE07FFF80000
0000FFFF07FFF00000
00007FFF07FFF00000
00007FFF0FFFF00000
00007FFF8FFFE00000
00003FFF8FFFE00000
00003FFF9FFFE00000
00003FFF9FFFC00000
00001FFFDFFFC00000
00001FFFFFFFC00000
00001FFFFFFF800000
00000FFFFFFF800000
00000FFFFFFF800000
00000FFFFFFF800000
00000FFFFFFF000000
000007FFFFFF000000
000007FFFFFF000000
000007FFFFFE000000
000003FFFFFE000000
000003FFFFFE000000
000003FFFFFC000000
000001FFFFFC000000
000001FFFFFC000000
000001FFFFFC000000
ENDCHAR
STARTCHAR 0057
ENCODING 87
SWIDTH 987 0
DWIDTH 107 0
BBX 105 78 1 0
BITMAP
FFFF00000007FFF00000007FFF80
FFFF0000000FFFF80000007FFF80
7FFF0000000FFFF80000007FFF00
7FFF8000000FFFF80000007FFF00
7FFF8000000FFFFC000000FFFF00
3FFF8000001FFFFC000000FFFE00
3FFF8000001FFFFC000000FFFE00
3FFFC000001FFFFC000000FFFE00
1FFFC000001FFFFE000001FFFE00
1FFFC000003FFFFE000001FFFC00
1FFFC000003FFFFE000001FFFC00
1FFFE000003FFFFE000003FFFC00
0FFFE000007FFFFF000003FFF800
0FFFE000007FFFFF000003FFF800
0FFFF000007FFFFF000003FFF800
07FFF000007FFFFF800007FFF800
07FFF00000FFFFFF800007FFF000
07FFF00000FFFFFF800007FFF000
07FFF80000FFFFFF800007FFF000
03FFF80000FFFFFFC0000FFFE000
03FFF80001FFFFFFC0000FFFE000
03FFF80001FFFFFFC0000FFFE000
01FFFC0001FFFFFFC0001FFFC000
01FFFC0003FFFFFFE0001FFFC000
01FFFC0003FFFFFFE0001FFFC000
00FFFE0003FFFFFFE0001FFFC000
00FFFE0003FFF7FFF0003FFF8000
00FFFE0007FFF7FFF0003FFF8000
00FFFE0007FFF7FFF0003FFF8000
007FFF0007FFE3FFF0003FFF0000
007FFF0007FFE3FFF8007FFF0000
007FFF000FFFE3FFF8007FFF0000
003FFF000FFFE1FFF8007FFF0000
003FFF800FFFC1FFF800FFFE0000
003FFF801FFFC1FFFC00FFFE0000
003FFF801FFFC1FFFC00FFFE0000
001FFFC01FFF80FFFC00FFFC0000
001FFFC01FFF80FFFE01FFFC0000
001FFFC03FFF80FFFE01FFFC0000
000FFFC03FFF807FFE01FFF80000
000FFFE03FFF007FFE01FFF80000
000FFFE07FFF007FFF03FFF80000
0007FFE07FFF007FFF03FFF80000
0007FFE07FFE003FFF03FFF00000
0007FFF07FFE003FFF07FFF00000
0007FFF0FFFE003FFF87FFF00000
0003FFF0FFFE001FFF87FFE00000
0003FFF8FFFC001FFF87FFE00000
0003FFF8FFFC001FFFCFFFE00000
0001FFF9FFFC001FFFCFFFE00000
0001FFF9FFF8000FFFCFFFC00000
0001FFFDFFF8000FFFCFFFC00000
0001FFFFFFF8000FFFFFFFC00000
0000FFFFFFF00007FFFFFF800000
0000FFFFFFF00007FFFFFF800000
0000FFFFFFF00007FFFFFF800000
00007FFFFFF00007FFFFFF800000
00007FFFFFE00003FFFFFF000000
00007FFFFFE00003FFFFFF000000
00007FFFFFE00003FFFFFF000000
00003FFFFFC00001FFFFFE000000
00003FFFFFC00001FFFFFE000000
00003FFFFFC00001FFFFFE000000
00001FFFFFC00000FFFFFC000000
00001FFFFF800000FFFFFC000000
00001FFFFF800000FFFFFC000000
00000FFFFF800000FFFFFC000000
00000FFFFF0000007FFFF8000000
00000FFFFF0000007FFFF8000000
00000FFFFF0000007FFFF8000000
000007FFFF0000003FFFF0000000
000007FFFE0000003FFFF0000000
000007FFFE0000003FFFF0000000
000003FFFE0000003FFFF0000000
000003FFFC0000001FFFE0000000
000003FFFC0000001FFFE0000000
000003FFFC0000001FFFE0000000
000001FFFC0000000FFFC0000000
ENDCHAR
STARTCHAR 0058
ENCODING 88
SWIDTH 673 0
DWIDTH 73 0
BBX 70 78 1 0
BITMAP
7FFFE00000000FFFFC
3FFFF00000001FFFF8
3FFFF80000003FFFF0
1FFFF80000003FFFF0
0FFFFC0000007FFFE0
0FFFFC000000FFFFC0
07FFFE000000FFFFC0
03FFFF000001FFFF80
03FFFF000001FFFF00
01FFFF800003FFFF00
00FFFFC00007FFFE00
00FFFFC00007FFFC00
007FFFE0000FFFFC00
003FFFF0001FFFF800
003FFFF0001FFFF800
001FFFF8003FFFF000
000FFFF8007FFFE000
000FFFFC007FFFE000
0007FFFE00FFFFC000
0003FFFE00FFFF8000
0003FFFF01FFFF8000
0001FFFF83FFFF0000
0000FFFF83FFFE0000
0000FFFFC7FFFE0000
00007FFFEFFFFC0000
00003FFFEFFFF80000
00003FFFFFFFF80000
00001FFFFFFFF00000
00000FFFFFFFE00000
00000FFFFFFFE00000
000007FFFFFFC00000
000003FFFFFF800000
000003FFFFFF800000
000001FFFFFF000000
000000FFFFFE000000
000000FFFFFE000000
0000007FFFFC000000
0000003FFFF8000000
0000003FFFF8000000
0000003FFFF8000000
0000007FFFFC000000
000000FFFFFE000000
000000FFFFFE000000
000001FFFFFF000000
000003FFFFFF800000
000003FFFFFF800000
000007FFFFFFC00000
00000FFFFFFFE00000
00000FFFFFFFE00000
00001FFFFFFFF00000
00003FFFFFFFF80000
00003FFFEFFFF80000
00007FFFEFFFFC0000
0000FFFFC7FFFE0000
0000FFFF83FFFE0000
0001FFFF83FFFF0000
0003FFFF01FFFF0000
0003FFFE00FFFF8000
0007FFFE00FFFFC000
000FFFFC007FFFC000
000FFFFC007FFFE000
001FFFF8003FFFF000
003FFFF0001FFFF000
003FFFF0001FFFF800
007FFFE0000FFFFC00
00FFFFC00007FFFC00
00FFFFC00007FFFE00
01FFFF800003FFFF00
03FFFF000001FFFF00
03FFFF000001FFFF80
07FFFE000000FFFFC0
0FFFFC000000FFFFC0
0FFFFC0000007FFFE0
1FFFF80000003FFFF0
3FFFF80000003FFFF0
3FFFF00000001FFFF8
7FFFE00000000FFFFC
FFFFE00000000FFFFC
ENDCHAR
STARTCHAR 0059
ENCODING 89
SWIDTH 627 0
DWIDTH 68 0
BBX 68 78 0 0
BITMAP
FFFFC00000001FFFF0
7FFFC00000003FFFE0
7FFFE00000003FFFE0
3FFFE00000007FFFC0
1FFFF0000000FFFFC0
1FFFF0000000FFFF80
0FFFF8000001FFFF80
0FFFFC000001FFFF00
07FFFC000003FFFE00
07FFFE000003FFFE00
03FFFE000007FFFC00
01FFFF00000FFFFC00
01FFFF00000FFFF800
00FFFF80001FFFF000
00FFFFC0001FFFF000
007FFFC0003FFFE000
007FFFE0003FFFE000
003FFFE0007FFFC000
001FFFF000FFFFC000
001FFFF000FFFF8000
000FFFF801FFFF0000
000FFFFC01FFFF0000
0007FFFC03FFFE0000
0003FFFE03FFFE0000
0003FFFE07FFFC0000
0001FFFF0FFFFC0000
0001FFFF0FFFF80000
0000FFFF9FFFF00000
0000FFFFDFFFF00000
00007FFFFFFFE00000
00003FFFFFFFE00000
00003FFFFFFFC00000
00001FFFFFFFC00000
00001FFFFFFF800000
00000FFFFFFF000000
00000FFFFFFF000000
000007FFFFFE000000
000003FFFFFE000000
000003FFFFFC000000
000001FFFFF8000000
000001FFFFF8000000
000000FFFFF0000000
000000FFFFF0000000
0000007FFFE0000000
0000003FFFE0000000
0000003FFFC0000000
0000001FFFC0000000
0000001FFFC0000000
0000001FFFC0000000
0000001FFFC0000000
0000001FFFC0000000
0000001FFFC0000000
0000001FFFC0000000
0000001FFFC0000000
0000001FFFC0000000
0000001FFFC0000000
0000001FFFC0000000
0000001FFFC0000000
0000001FFFC0000000
0000001FFFC0000000
0000001FFFC0000000
0000001FFFC0000000
0000001FFFC0000000
0000001FFFC0000000
0000001FFFC0000000
0000001FFFC0000000
0000001FFFC0000000
0000001FFFC0000000
0000001FFFC0000000
0000001FFFC0000000
0000001FFFC0000000
0000001FFFC0000000
0000001FFFC0000000
0000001FFFC0000000
0000001FFFC0000000
0000001FFFC0000000
0000001FFFC0000000
0000001FFFC0000000
ENDCHAR
STARTCHAR 005A
ENCODING 90
SWIDTH 683 0
DWIDTH 74 0
BBX 63 78 5 0
BITMAP
0FFFFFFFFFFFFFFE
0FFFFFFFFFFFFFFE
0FFFFFFFFFFFFFFE
0FFFFFFFFFFFFFFC
0FFFFFFFFFFFFFFC
0FFFFFFFFFFFFFF8
0FFFFFFFFFFFFFF8
0FFFFFFFFFFFFFF0
0FFFFFFFFFFFFFE0
0FFFFFFFFFFFFFE0
0FFFFFFFFFFFFFC0
0FFFFFFFFFFFFFC0
0FFFFFFFFFFFFF80
0FFFFFFFFFFFFF00
0000000007FFFF00
000000000FFFFE00
000000000FFFFE00
000000001FFFFC00
000000001FFFF800
000000003FFFF800
000000007FFFF000
000000007FFFF000
00000000FFFFE000
00000000FFFFC000
00000001FFFFC000
00000003FFFF8000
00000003FFFF8000
00000007FFFF0000
00000007FFFE0000
0000000FFFFE0000
0000000FFFFC0000
0000001FFFFC0000
0000003FFFF80000
0000003FFFF80000
0000007FFFF00000
0000007FFFE00000
000000FFFFE00000
000001FFFFC00000
000001FFFFC00000
000003FFFF800000
000003FFFF000000
000007FFFF000000
00000FFFFE000000
00000FFFFE000000
00001FFFFC000000
00001FFFF8000000
00003FFFF8000000
00007FFFF0000000
00007FFFF0000000
0000FFFFE0000000
0000FFFFC0000000
0001FFFFC0000000
0003FFFF80000000
0003FFFF80000000
0007FFFF00000000
0007FFFF00000000
000FFFFE00000000
001FFFFC00000000
001FFFFC00000000
003FFFF800000000
003FFFF800000000
007FFFF000000000
007FFFE000000000
00FFFFE000000000
01FFFFFFFFFFFFFC
01FFFFFFFFFFFFFC
03FFFFFFFFFFFFFC
03FFFFFFFFFFFFFC
07FFFFFFFFFFFFFC
0FFFFFFFFFFFFFFC
0FFFFFFFFFFFFFFC
1FFFFFFFFFFFFFFC
1FFFFFFFFFFFFFFC
3FFFFFFFFFFFFFFC
7FFFFFFFFFFFFFFC
7FFFFFFFFFFFFFFC
FFFFFFFFFFFFFFFC
FFFFFFFFFFFFFFFC
ENDCHAR
STARTCHAR 005B
ENCODING 91
SWIDTH 424 0
DWIDTH 46 0
BBX 25 121 15 -23
BITMAP
FFFFFF80
FFFFFF80
FFFFFF80
FFFFFF80
FFFFFF80
FFFFFF80
FFFFFF80
FFFFFF80
FFFFFF80
FFFFFF80
FFFFFF80
FFFFFF80
FFFFFF80
FFF80000
FFF80000
FFF80000
FFF80000
FFF80000
FFF80000
FFF80000
FFF80000
FFF80000
FFF80000
FFF80000
FFF80000
FFF80000
FFF80000
FFF80000
FFF80000
FFF80000
FFF80000
FFF80000
FFF80000
FFF80000
FFF80000
FFF80000
FFF80000
FFF80000
FFF80000
FFF80000
FFF80000
FFF80000
FFF80000
FFF80000
FFF80000
FFF80000
FFF80000
FFF80000
FFF80000
FFF80000
FFF80000
FFF80000
FFF80000
FFF80000
FFF80000
FFF80000
FFF80000
FFF80000
FFF80000
FFF80000
FFF80000
FFF80000
FFF80000
FFF80000
FFF80000
FFF80000
FFF80000
FFF80000
FFF80000
FFF80000
FFF80000
FFF80000
FFF80000
FFF80000
FFF80000
FFF80000
FFF80000
FFF80000
FFF80000
FFF80000
FFF80000
FFF80000
FFF80000
FFF80000
FFF80000
FFF80000
FFF80000
FFF80000
FFF80000
FFF80000
FFF80000
FFF80000
FFF80000
FFF80000
FFF80000
FFF80000
FFF80000
FFF80000
FFF80000
FFF80000
FFF80000
FFF80000
FFF80000
FFF80000
FFF80000
FFF80000
FFF80000
FFF80000
FFFFFF80
FFFFFF80
FFFFFF80
FFFFFF80
FFFFFF80
FFFFFF80
FFFFFF80
FFFFFF80
FFFFFF80
FFFFFF80
FFFFFF80
FFFFFF80
FFFFFF80
ENDCHAR
STARTCHAR 005C
ENCODING 92
SWIDTH 452 0
DWIDTH 49 0
BBX 35 78 7 0
BITMAP
FFFC000000
FFFE000000
FFFE000000
FFFE000000
7FFE000000
7FFF000000
7FFF000000
7FFF000000
3FFF000000
3FFF800000
3FFF800000
1FFF800000
1FFFC00000
1FFFC00000
1FFFC00000
0FFFC00000
0FFFE00000
0FFFE00000
0FFFE00000
07FFE00000
07FFF00000
07FFF00000
07FFF00000
03FFF00000
03FFF80000
03FFF80000
01FFF80000
01FFFC0000
01FFFC0000
01FFFC0000
00FFFC0000
00FFFE0000
00FFFE0000
00FFFE0000
007FFE0000
007FFF0000
007FFF0000
007FFF0000
003FFF0000
003FFF8000
003FFF8000
001FFF8000
001FFFC000
001FFFC000
001FFFC000
000FFFC000
000FFFE000
000FFFE000
000FFFE000
0007FFE000
0007FFF000
0007FFF000
0007FFF000
0003FFF800
0003FFF800
0003FFF800
0001FFF800
0001FFFC00
0001FFFC00
0001FFFC00
0000FFFC00
0000FFFE00
0000FFFE00
0000FFFE00
00007FFE00
00007FFF00
00007FFF00
00007FFF00
00003FFF80
00003FFF80
00003FFF80
00001FFF80
00001FFFC0
00001FFFC0
00001FFFC0
00000FFFC0
00000FFFE0
00000FFFE0
ENDCHAR
STARTCHAR 005D
ENCODING 93
SWIDTH 424 0
DWIDTH 46 0
BBX 25 121 6 -23
BITMAP
FFFFFF80
FFFFFF80
FFFFFF80
FFFFFF80
FFFFFF80
FFFFFF80
FFFFFF80
FFFFFF80
FFFFFF80
FFFFFF80
FFFFFF80
FFFFFF80
FFFFFF80
000FFF80
000FFF80
000FFF80
000FFF80
000FFF80
000FFF80
000FFF80
000FFF80
000FFF80
000FFF80
000FFF80
000FFF80
000FFF80
000FFF80
000FFF80
000FFF80
000FFF80
000FFF80
000FFF80
000FFF80
000FFF80
000FFF80
000FFF80
000FFF80
000FFF80
000FFF80
000FFF80
000FFF80
000FFF80
000FFF80
000FFF80
000FFF80
000FFF80
000FFF80
000FFF80
000FFF80
000FFF80
000FFF80
000FFF80
000FFF80
000FFF80
000FFF80
000FFF80
000FFF80
000FFF80
000FFF80
000FFF80
000FFF80
000FFF80
000FFF80
000FFF80
000FFF80
000FFF80
000FFF80
000FFF80
000FFF80
000FFF80
000FFF80
000FFF80
000FFF80
000FFF80
000FFF80
000FFF80
000FFF80
000FFF80
000FFF80
000FFF80
000FFF80
000FFF80
000FFF80
000FFF80
000FFF80
000FFF80
000FFF80
000FFF80
000FFF80
000FFF80
000FFF80
000FFF80
000FFF80
000FFF80
000FFF80
000FFF80
000FFF80
000FFF80
000FFF80
000FFF80
000FFF80
000FFF80
000FFF80
000FFF80
000FFF80
000FFF80
000FFF80
000FFF80
FFFFFF80
FFFFFF80
FFFFFF80
FFFFFF80
FFFFFF80
FFFFFF80
FFFFFF80
FFFFFF80
FFFFFF80
FFFFFF80
FFFFFF80
FFFFFF80
FFFFFF80
ENDCHAR
STARTCHAR 005E
ENCODING 94
SWIDTH 683 0
DWIDTH 74 0
BBX 52 35 12 45
BITMAP
00000040000000
000000E0000000
000001F0000000
000003F8000000
000007FC000000
00000FFE000000
00001FFF000000
00003FFF800000
00007FFFC00000
0000FFFFE00000
0001FFFFF00000
0003FFFFF80000
0007FFFFFC0000
000FFFFFFE0000
001FFFFFFF0000
003FFFFFFF8000
007FFFFFFFC000
00FFFFFFFFE000
01FFFFBFFFF000
03FFFF1FFFF800
07FFFE0FFFFC00
0FFFFC07FFFE00
1FFFF803FFFF00
3FFFF001FFFF80
7FFFE000FFFFC0
FFFFC0007FFFE0
FFFF80003FFFF0
7FFF00001FFFE0
3FFE00000FFFC0
1FFC000007FF80
0FF8000003FF00
07F0000001FE00
03E0000000FC00
01C00000007800
00800000003000
ENDCHAR
STARTCHAR 005F
ENCODING 95
SWIDTH 664 0
DWIDTH 72 0
BBX 72 11 0 -14
BITMAP
FFFFFFFFFFFFFFFFFF
FFFFFFFFFFFFFFFFFF
FFFFFFFFFFFFFFFFFF
FFFFFFFFFFFFFFFFFF
FFFFFFFFFFFFFFFFFF
FFFFFFFFFFFFFFFFFF
FFFFFFFFFFFFFFFFFF
FFFFFFFFFFFFFFFFFF
FFFFFFFFFFFFFFFFFF
FFFFFFFFFFFFFFFFFF
FFFFFFFFFFFFFFFFFF
ENDCHAR
STARTCHAR 0060
ENCODING 96
SWIDTH 553 0
DWIDTH 60 0
BBX 19 21 18 86
BITMAP
FFE000
FFE000
FFE000
7FF000
7FF000
3FF800
3FF800
1FFC00
1FFC00
1FFC00
0FFE00
0FFE00
07FF00
07FF00
03FF80
03FF80
03FF80
01FFC0
01FFC0
00FFE0
00FFE0
ENDCHAR
STARTCHAR 0061
ENCODING 97
SWIDTH 581 0
DWIDTH 63 0
BBX 53 62 4 -2
BITMAP
000007FFC00000
00007FFFFE0000
0003FFFFFF8000
000FFFFFFFE000
001FFFFFFFF800
007FFFFFFFFC00
00FFFFFFFFFE00
01FFFFFFFFFF00
03FFFFFFFFFF80
03FFFFFFFFFFC0
07FFFFFFFFFFC0
0FFFFFFFFFFFE0
0FFFFFFFFFFFE0
1FFFFFEFFFFFE0
1FFFFC003FFFF0
1FFFF0001FFFF0
1FFFE0000FFFF0
03FFC00007FFF0
007F800007FFF0
000F000003FFF8
0001000003FFF8
0000000003FFF8
00000000FFFFF8
0000007FFFFFF8
00000FFFFFFFF8
0000FFFFFFFFF8
0007FFFFFFFFF8
001FFFFFFFFFF8
007FFFFFFFFFF8
01FFFFFFFFFFF8
03FFFFFFFFFFF8
07FFFFFFFFFFF8
0FFFFFFFFFFFF8
1FFFFFFFFFFFF8
1FFFFFFF03FFF8
3FFFFFE003FFF8
3FFFFE0003FFF8
7FFFF00003FFF8
7FFFC00003FFF8
7FFF800007FFF8
7FFF000007FFF8
FFFE000007FFF8
FFFE000007FFF8
FFFE00000FFFF8
FFFE00001FFFF8
FFFE00003FFFF8
FFFE00007FFFF8
7FFF0000FFFFF8
7FFF8001FFFFF8
7FFFC00FFFFFF8
7FFFFFFFFFFFF8
3FFFFFFFFFFFF8
3FFFFFFFFFFFF8
1FFFFFFFFFFFF8
1FFFFFFFFEFFF8
0FFFFFFFFCFFF8
07FFFFFFF8FFF8
03FFFFFFE0FFF8
01FFFFFFC0FFF8
007FFFFF00FFF8
001FFFFC000000
0001FFC0000000
ENDCHAR
STARTCHAR 0062
ENCODING 98
SWIDTH 627 0
DWIDTH 68 0
BBX 56 80 7 -2
BITMAP
FFFE0000000000
FFFE0000000000
FFFE0000000000
FFFE0000000000
FFFE0000000000
FFFE0000000000
FFFE0000000000
FFFE0000000000
FFFE0000000000
FFFE0000000000
FFFE0000000000
FFFE0000000000
FFFE0000000000
FFFE0000000000
FFFE0000000000
FFFE0000000000
FFFE0000000000
FFFE0000000000
FFFE01FFC00000
FFFE0FFFFC0000
FFFE7FFFFF0000
FFFFFFFFFFC000
FFFFFFFFFFF000
FFFFFFFFFFF800
FFFFFFFFFFFC00
FFFFFFFFFFFE00
FFFFFFFFFFFF00
FFFFFFFFFFFF80
FFFFFFFFFFFFC0
FFFFFFFFFFFFE0
FFFFFFFFFFFFE0
FFFFFE03FFFFF0
FFFFF0007FFFF8
FFFFE0003FFFF8
FFFFC0000FFFF8
FFFF80000FFFFC
FFFF000007FFFC
FFFF000003FFFE
FFFE000003FFFE
FFFE000001FFFE
FFFC000001FFFE
FFFC000000FFFF
FFFC000000FFFF
FFFC000000FFFF
FFFC000000FFFF
FFFC000000FFFF
FFFC0000007FFF
FFF80000007FFF
FFF80000007FFF
FFF80000007FFF
FFF80000007FFF
FFFC0000007FFF
FFFC000000FFFF
FFFC000000FFFF
FFFC000000FFFF
FFFC000000FFFF
FFFC000000FFFF
FFFC000001FFFE
FFFE000001FFFE
FFFE000001FFFE
FFFF000003FFFE
FFFF000007FFFC
FFFF800007FFFC
FFFFC0000FFFF8
FFFFE0001FFFF8
FFFFF0007FFFF8
FFFFFE03FFFFF0
FFFFFFFFFFFFE0
FFFFFFFFFFFFE0
FFFFFFFFFFFFC0
FFFFFFFFFFFF80
FFFFFFFFFFFF80
FFFFFFFFFFFF00
FFFFFFFFFFFE00
FFFFFFFFFFF800
FFFBFFFFFFF000
FFF8FFFFFFE000
FFF83FFFFF8000
00000FFFFC0000
000000FFC00000
ENDCHAR
STARTCHAR 0063
ENCODING 99
SWIDTH 581 0
DWIDTH 63 0
BBX 56 62 4 -2
BITMAP
000000FFE00000
00000FFFFF0000
00007FFFFFC000
0001FFFFFFF000
0007FFFFFFFC00
000FFFFFFFFE00
001FFFFFFFFF00
007FFFFFFFFF80
00FFFFFFFFFFC0
00FFFFFFFFFFE0
01FFFFFFFFFFF0
03FFFFFFFFFFF8
07FFFFFFFFFFF8
07FFFFFFFFFFFC
0FFFFF807FFFFC
0FFFFE000FFFFE
1FFFF80007FFFE
1FFFF00003FFFE
3FFFE00001FFFF
3FFFE00001FFFF
3FFFC00000FFF0
7FFFC00000FF80
7FFF8000007800
7FFF8000000000
7FFF8000000000
7FFF0000000000
7FFF0000000000
FFFF0000000000
FFFF0000000000
FFFF0000000000
FFFF0000000000
FFFF0000000000
FFFF0000000000
FFFF0000000000
FFFF0000000000
7FFF0000000000
7FFF0000000000
7FFF8000000000
7FFF8000000000
7FFF8000000000
7FFFC00000FC00
3FFFC00000FFE0
3FFFE00000FFFF
3FFFE00001FFFF
1FFFF00003FFFE
1FFFF80007FFFE
0FFFFE000FFFFE
0FFFFF803FFFFC
07FFFFFFFFFFFC
07FFFFFFFFFFF8
03FFFFFFFFFFF0
01FFFFFFFFFFF0
01FFFFFFFFFFE0
00FFFFFFFFFFC0
007FFFFFFFFF80
003FFFFFFFFF00
000FFFFFFFFE00
0007FFFFFFFC00
0001FFFFFFF000
00007FFFFFC000
00001FFFFE0000
000000FFF00000
ENDCHAR
STARTCHAR 0064
ENCODING 100
SWIDTH 627 0
DWIDTH 68 0
BBX 56 80 4 -2
BITMAP
00000000007FFF
00000000007FFF
00000000007FFF
00000000007FFF
00000000007FFF
00000000007FFF
00000000007FFF
00000000007FFF
00000000007FFF
00000000007FFF
00000000007FFF
00000000007FFF
00000000007FFF
00000000007FFF
00000000007FFF
00000000007FFF
00000000007FFF
00000000007FFF
000001FF807FFF
00001FFFF87FFF
0000FFFFFE7FFF
0003FFFFFFFFFF
0007FFFFFFFFFF
001FFFFFFFFFFF
003FFFFFFFFFFF
007FFFFFFFFFFF
00FFFFFFFFFFFF
01FFFFFFFFFFFF
03FFFFFFFFFFFF
03FFFFFFFFFFFF
07FFFFFFFFFFFF
0FFFFFE03FFFFF
0FFFFF000FFFFF
1FFFFC0003FFFF
1FFFF80001FFFF
1FFFF00000FFFF
3FFFE00000FFFF
3FFFE000007FFF
3FFFC000007FFF
7FFFC000003FFF
7FFF8000003FFF
7FFF8000003FFF
7FFF8000001FFF
7FFF0000001FFF
7FFF0000001FFF
FFFF0000001FFF
FFFF0000001FFF
FFFF0000001FFF
FFFF0000001FFF
FFFF0000001FFF
FFFF0000001FFF
FFFF0000001FFF
FFFF0000001FFF
7FFF0000001FFF
7FFF0000001FFF
7FFF8000001FFF
7FFF8000003FFF
7FFF8000003FFF
7FFFC000003FFF
3FFFC000007FFF
3FFFC000007FFF
3FFFE00000FFFF
1FFFF00000FFFF
1FFFF80001FFFF
0FFFFC0003FFFF
0FFFFF000FFFFF
07FFFFC07FFFFF
07FFFFFFFFFFFF
03FFFFFFFFFFFF
03FFFFFFFFFFFF
01FFFFFFFFFFFF
00FFFFFFFFFFFF
007FFFFFFFFFFF
003FFFFFFFFFFF
001FFFFFFFFFFF
000FFFFFFFFFFF
0003FFFFFF9FFF
0000FFFFFE1FFF
00003FFFF80000
000003FF800000
ENDCHAR
STARTCHAR 0065
ENCODING 101
SWIDTH 609 0
DWIDTH 66 0
BBX 57 62 4 -2
BITMAP
000000FFE0000000
00000FFFFF000000
00007FFFFFC00000
0001FFFFFFF00000
0003FFFFFFFC0000
000FFFFFFFFE0000
001FFFFFFFFF0000
003FFFFFFFFF8000
007FFFFFFFFFC000
00FFFFFFFFFFE000
01FFFFFFFFFFF000
03FFFFFFFFFFF000
07FFFFFFFFFFF800
07FFFF801FFFFC00
0FFFFE0003FFFC00
0FFFF80001FFFE00
1FFFF00000FFFE00
1FFFE00000FFFE00
1FFFE000007FFF00
3FFFC000007FFF00
3FFFC000003FFF00
3FFF8000003FFF80
7FFF8000003FFF80
7FFF8000003FFF80
7FFFFFFFFFFFFF80
7FFFFFFFFFFFFF80
7FFFFFFFFFFFFF80
FFFFFFFFFFFFFF80
FFFFFFFFFFFFFF80
FFFFFFFFFFFFFF80
FFFFFFFFFFFFFF80
FFFFFFFFFFFFFF80
FFFFFFFFFFFFFF80
FFFFFFFFFFFFFF80
FFFFFFFFFFFFFF80
FFFF000000000000
7FFF000000000000
7FFF800000000000
7FFF800000000000
7FFF800000000000
7FFFC00000000000
3FFFC00000380000
3FFFE000007F0000
3FFFE00000FFE000
1FFFF00001FFFE00
1FFFF80003FFFF80
0FFFFE0007FFFF00
0FFFFF801FFFFF00
07FFFFFFFFFFFE00
07FFFFFFFFFFFC00
03FFFFFFFFFFFC00
01FFFFFFFFFFF800
00FFFFFFFFFFF000
007FFFFFFFFFE000
003FFFFFFFFFC000
001FFFFFFFFF8000
000FFFFFFFFF0000
0003FFFFFFFC0000
0000FFFFFFF80000
00003FFFFFE00000
000007FFFF000000
0000007FF0000000
ENDCHAR
STARTCHAR 0066
ENCODING 102
SWIDTH 387 0
DWIDTH 42 0
BBX 38 80 3 1
BITMAP
000003FFFC
00001FFFFC
00007FFFFC
0001FFFFFC
0003FFFFFC
0007FFFFFC
000FFFFFFC
000FFFFFFC
001FFFFFFC
001FFFFFFC
003FFFFFFC
003FFFFFFC
003FFFF000
003FFFC000
003FFF8000
003FFF8000
007FFF0000
007FFF0000
007FFF0000
007FFF0000
007FFF0000
FFFFFFFFFC
FFFFFFFFFC
FFFFFFFFFC
FFFFFFFFFC
FFFFFFFFFC
FFFFFFFFFC
FFFFFFFFFC
FFFFFFFFFC
FFFFFFFFFC
FFFFFFFFFC
FFFFFFFFFC
007FFF0000
007FFF0000
007FFF0000
007FFF0000
007FFF0000
007FFF0000
007FFF0000
007FFF0000
007FFF0000
007FFF0000
007FFF0000
007FFF0000
007FFF0000
007FFF0000
007FFF0000
007FFF0000
007FFF0000
007FFF0000
007FFF0000
007FFF0000
007FFF0000
007FFF0000
007FFF0000
007FFF0000
007FFF0000
007FFF0000
007FFF0000
007FFF0000
007FFF0000
007FFF0000
007FFF0000
007FFF0000
007FFF0000
007FFF0000
007FFF0000
007FFF0000
007FFF0000
007FFF0000
007FFF0000
007FFF0000
007FFF0000
007FFF0000
007FFF0000
007FFF0000
007FFF0000
007FFF0000
007FFF0000
007FFF0000
ENDCHAR
STARTCHAR 0067
ENCODING 103
SWIDTH 627 0
DWIDTH 68 0
BBX 56 88 4 -28
BITMAP
000001FF800000
00001FFFF81FFF
0000FFFFFE1FFF
0003FFFFFF9FFF
0007FFFFFFFFFF
001FFFFFFFFFFF
003FFFFFFFFFFF
007FFFFFFFFFFF
00FFFFFFFFFFFF
01FFFFFFFFFFFF
03FFFFFFFFFFFF
03FFFFFFFFFFFF
07FFFFFFFFFFFF
07FFFFE03FFFFF
0FFFFF000FFFFF
1FFFFC0003FFFF
1FFFF80001FFFF
1FFFF00000FFFF
3FFFE00000FFFF
3FFFE000007FFF
3FFFC000007FFF
7FFFC000003FFF
7FFF8000003FFF
7FFF8000003FFF
7FFF8000001FFF
7FFF0000001FFF
7FFF0000001FFF
FFFF0000001FFF
FFFF0000001FFF
FFFF0000001FFF
FFFF0000001FFF
FFFF0000001FFF
FFFF0000001FFF
FFFF0000001FFF
FFFF0000001FFF
7FFF0000001FFF
7FFF0000001FFF
7FFF8000001FFF
7FFF8000003FFF
7FFF8000003FFF
7FFFC000003FFF
3FFFC000007FFF
3FFFC000007FFF
3FFFE00000FFFF
1FFFF00000FFFF
1FFFF80001FFFF
0FFFFC0003FFFF
0FFFFF000FFFFF
07FFFFC07FFFFF
07FFFFFFFFFFFF
03FFFFFFFFFFFF
03FFFFFFFFFFFF
01FFFFFFFFFFFF
00FFFFFFFFFFFF
007FFFFFFFFFFF
003FFFFFFFFFFF
001FFFFFFFFFFF
0007FFFFFFFFFF
0003FFFFFFFFFF
0000FFFFFE7FFF
00003FFFF87FFF
000003FF807FFF
00000000007FFF
00000000007FFF
00000000007FFF
00000000007FFF
00000000007FFF
00000000007FFF
0000000000FFFF
0000600000FFFF
0001F00001FFFF
0007F80003FFFE
001FFE000FFFFE
007FFF807FFFFE
01FFFFFFFFFFFC
07FFFFFFFFFFFC
03FFFFFFFFFFF8
01FFFFFFFFFFF8
01FFFFFFFFFFF0
00FFFFFFFFFFE0
007FFFFFFFFFE0
001FFFFFFFFFC0
000FFFFFFFFF00
0007FFFFFFFE00
0001FFFFFFF800
00007FFFFFE000
00001FFFFF0000
000001FFF00000
ENDCHAR
STARTCHAR 0068
ENCODING 104
SWIDTH 636 0
DWIDTH 69 0
BBX 55 78 7 0
BITMAP
FFFC0000000000
FFFC0000000000
FFFC0000000000
FFFC0000000000
FFFC0000000000
FFFC0000000000
FFFC0000000000
FFFC0000000000
FFFC0000000000
FFFC0000000000
FFFC0000000000
FFFC0000000000
FFFC0000000000
FFFC0000000000
FFFC0000000000
FFFC0000000000
FFFC0000000000
FFFC0000000000
FFFC001FFC0000
FFFC01FFFFC000
FFFC07FFFFF000
FFFC1FFFFFFC00
FFFC7FFFFFFE00
FFFCFFFFFFFF00
FFFDFFFFFFFF80
FFFFFFFFFFFFC0
FFFFFFFFFFFFE0
FFFFFFFFFFFFE0
FFFFFFFFFFFFF0
FFFFFFFFFFFFF0
FFFFFFFFFFFFF8
FFFFFFFFFFFFF8
FFFFFF00FFFFFC
FFFFF8003FFFFC
FFFFF0000FFFFC
FFFFE00007FFFC
FFFFC00007FFFE
FFFFC00003FFFE
FFFF800001FFFE
FFFF800001FFFE
FFFF000001FFFE
FFFF000000FFFE
FFFF000000FFFE
FFFF000000FFFE
FFFF000000FFFE
FFFF000000FFFE
FFFE000000FFFE
FFFE000000FFFE
FFFE000000FFFE
FFFE000000FFFE
FFFE000000FFFE
FFFE000000FFFE
FFFE000000FFFE
FFFE000000FFFE
FFFE000000FFFE
FFFE000000FFFE
FFFE000000FFFE
FFFE000000FFFE
FFFE000000FFFE
FFFE000000FFFE
FFFE000000FFFE
FFFE000000FFFE
FFFE000000FFFE
FFFE000000FFFE
FFFE000000FFFE
FFFE000000FFFE
FFFE000000FFFE
FFFE000000FFFE
FFFE000000FFFE
FFFE000000FFFE
FFFE000000FFFE
FFFE000000FFFE
FFFE000000FFFE
FFFE000000FFFE
FFFE000000FFFE
FFFE000000FFFE
FFFE000000FFFE
FFFE000000FFFE
ENDCHAR
STARTCHAR 0069
ENCODING 105
SWIDTH 295 0
DWIDTH 32 0
BBX 14 80 9 0
BITMAP
FFFC
FFFC
FFFC
FFFC
FFFC
FFFC
FFFC
FFFC
FFFC
FFFC
FFFC
FFFC
FFFC
0000
0000
0000
0000
0000
0000
0000
0000
FFFC
FFFC
FFFC
FFFC
FFFC
FFFC
FFFC
FFFC
FFFC
FFFC
FFFC
FFFC
FFFC
FFFC
FFFC
FFFC
FFFC
FFFC
FFFC
FFFC
FFFC
FFFC
FFFC
FFFC
FFFC
FFFC
FFFC
FFFC
FFFC
FFFC
FFFC
FFFC
FFFC
FFFC
FFFC
FFFC
FFFC
FFFC
FFFC
FFFC
FFFC
FFFC
FFFC
FFFC
FFFC
FFFC
FFFC
FFFC
FFFC
FFFC
FFFC
FFFC
FFFC
FFFC
FFFC
FFFC
FFFC
FFFC
FFFC
ENDCHAR
STARTCHAR 006A
ENCODING 106
SWIDTH 304 0
DWIDTH 33 0
BBX 26 106 -1 -26
BITMAP
001FFFC0
001FFFC0
001FFFC0
001FFFC0
001FFFC0
001FFFC0
001FFFC0
001FFFC0
001FFFC0
001FFFC0
001FFFC0
001FFFC0
001FFFC0
00000000
00000000
00000000
00000000
00000000
00000000
00000000
00000000
001FFFC0
001FFFC0
001FFFC0
001FFFC0
001FFFC0
001FFFC0
001FFFC0
001FFFC0
001FFFC0
001FFFC0
001FFFC0
001FFFC0
001FFFC0
001FFFC0
001FFFC0
001FFFC0
001FFFC0
001FFFC0
001FFFC0
001FFFC0
001FFFC0
001FFFC0
001FFFC0
001FFFC0
001FFFC0
001FFFC0
001FFFC0
001FFFC0
001FFFC0
001FFFC0
001FFFC0
001FFFC0
001FFFC0
001FFFC0
001FFFC0
001FFFC0
001FFFC0
001FFFC0
001FFFC0
001FFFC0
001FFFC0
001FFFC0
001FFFC0
001FFFC0
001FFFC0
001FFFC0
001FFFC0
001FFFC0
001FFFC0
001FFFC0
001FFFC0
001FFFC0
001FFFC0
001FFFC0
001FFFC0
001FFFC0
001FFFC0
001FFFC0
001FFFC0
001FFFC0
001FFFC0
001FFFC0
001FFFC0
001FFFC0
001FFFC0
001FFFC0
001FFFC0
003FFFC0
003FFFC0
007FFFC0
01FFFFC0
FFFFFFC0
FFFFFFC0
FFFFFFC0
FFFFFF80
FFFFFF80
FFFFFF80
FFFFFF00
FFFFFF00
FFFFFE00
FFFFFC00
FFFFF800
FFFFE000
FFFFC000
FFFE0000
ENDCHAR
STARTCHAR 006B
ENCODING 107
SWIDTH 553 0
DWIDTH 60 0
BBX 55 78 7 0
BITMAP
7FFF0000000000
7FFF0000000000
7FFF0000000000
7FFF0000000000
7FFF0000000000
7FFF0000000000
7FFF0000000000
7FFF0000000000
7FFF0000000000
7FFF0000000000
7FFF0000000000
7FFF0000000000
7FFF0000000000
7FFF0000000000
7FFF0000000000
7FFF0000000000
7FFF0000000000
7FFF0000000000
7FFF0000000000
7FFF00001FFFF8
7FFF00003FFFF0
7FFF00003FFFF0
7FFF00007FFFE0
7FFF0000FFFFC0
7FFF0000FFFFC0
7FFF0001FFFF80
7FFF0003FFFF00
7FFF0007FFFE00
7FFF0007FFFE00
7FFF000FFFFC00
7FFF001FFFF800
7FFF001FFFF800
7FFF003FFFF000
7FFF007FFFE000
7FFF007FFFC000
7FFF00FFFFC000
7FFF01FFFF8000
7FFF03FFFF0000
7FFF03FFFF0000
7FFF07FFFE0000
7FFF0FFFFC0000
7FFF0FFFF80000
7FFF1FFFF80000
7FFF3FFFF00000
7FFF3FFFE00000
7FFF7FFFE00000
7FFFFFFFC00000
7FFFFFFF800000
7FFFFFFF000000
7FFFFFFF800000
7FFFFFFFC00000
7FFF7FFFE00000
7FFF3FFFE00000
7FFF3FFFF00000
7FFF1FFFF80000
7FFF0FFFFC0000
FFFF0FFFFE0000
FFFF07FFFE0000
FFFF03FFFF0000
FFFF01FFFF8000
FFFF01FFFFC000
FFFF00FFFFC000
FFFF007FFFE000
FFFF007FFFF000
FFFF003FFFF800
FFFF001FFFF800
FFFF000FFFFC00
FFFF000FFFFE00
FFFF0007FFFF00
FFFF0003FFFF00
FFFF0003FFFF80
FFFF0001FFFFC0
FFFF0000FFFFE0
FFFF00007FFFF0
FFFF00007FFFF0
FFFF00003FFFF8
FFFF00001FFFFC
FFFF00001FFFFE
ENDCHAR
STARTCHAR 006C
ENCODING 108
SWIDTH 295 0
DWIDTH 32 0
BBX 14 78 9 0
BITMAP
FFFC
FFFC
FFFC
FFFC
FFFC
FFFC
FFFC
FFFC
FFFC
FFFC
FFFC
FFFC
FFFC
FFFC
FFFC
FFFC
FFFC
FFFC
FFFC
FFFC
FFFC
FFFC
FFFC
FFFC
FFFC
FFFC
FFFC
FFFC
FFFC
FFFC
FFFC
FFFC
FFFC
FFFC
FFFC
FFFC
FFFC
FFFC
FFFC
FFFC
FFFC
FFFC
FFFC
FFFC
FFFC
FFFC
FFFC
FFFC
FFFC
FFFC
FFFC
FFFC
FFFC
FFFC
FFFC
FFFC
FFFC
FFFC
FFFC
FFFC
FFFC
FFFC
FFFC
FFFC
FFFC
FFFC
FFFC
FFFC
FFFC
FFFC
FFFC
FFFC
FFFC
FFFC
FFFC
FFFC
FFFC
FFFC
ENDCHAR
STARTCHAR 006D
ENCODING 109
SWIDTH 913 0
DWIDTH 99 0
BBX 86 60 7 0
BITMAP
0000003FF0000007FE0000
FFF803FFFE00007FFFC000
FFF80FFFFF8001FFFFF000
FFF83FFFFFE007FFFFFC00
FFF87FFFFFF00FFFFFFE00
FFF8FFFFFFF81FFFFFFF00
FFF9FFFFFFFC3FFFFFFF80
FFFBFFFFFFFE7FFFFFFFC0
FFFFFFFFFFFEFFFFFFFFC0
FFFFFFFFFFFFFFFFFFFFE0
FFFFFFFFFFFFFFFFFFFFF0
FFFFFFFFFFFFFFFFFFFFF0
FFFFFFFFFFFFFFFFFFFFF0
FFFFFE07FFFFFFC0FFFFF8
FFFFF001FFFFFE003FFFF8
FFFFE000FFFFFC001FFFF8
FFFFC0007FFFF8000FFFF8
FFFF80003FFFF00007FFF8
FFFF80003FFFF00003FFFC
FFFF00001FFFE00003FFFC
FFFF00001FFFE00003FFFC
FFFF00001FFFE00001FFFC
FFFE00000FFFE00001FFFC
FFFE00000FFFE00001FFFC
FFFE00000FFFE00001FFFC
FFFE00000FFFE00001FFFC
FFFE00000FFFE00001FFFC
FFFE00000FFFE00001FFFC
FFFE00000FFFE00001FFFC
FFFE00000FFFE00001FFFC
FFFE00000FFFE00001FFFC
FFFE00000FFFE00001FFFC
FFFE00000FFFE00001FFFC
FFFE00000FFFE00001FFFC
FFFE00000FFFE00001FFFC
FFFE00000FFFE00001FFFC
FFFE00000FFFE00001FFFC
FFFE00000FFFE00001FFFC
FFFE00000FFFE00001FFFC
FFFE00000FFFE00001FFFC
FFFE00000FFFE00001FFFC
FFFE00000FFFE00001FFFC
FFFE00000FFFE00001FFFC
FFFE00000FFFE00001FFFC
FFFE00000FFFE00001FFFC
FFFE00000FFFE00001FFFC
FFFE00000FFFE00001FFFC
FFFE00000FFFE00001FFFC
FFFE00000FFFE00001FFFC
FFFE00000FFFE00001FFFC
FFFE00000FFFE00001FFFC
FFFE00000FFFE00001FFFC
FFFE00000FFFE00001FFFC
FFFE00000FFFE00001FFFC
FFFE00000FFFE00001FFFC
FFFE00000FFFE00001FFFC
FFFE00000FFFE00001FFFC
FFFE00000FFFE00001FFFC
FFFE00000FFFE00001FFFC
FFFE00000FFFE00001FFFC
ENDCHAR
STARTCHAR 006E
ENCODING 110
SWIDTH 636 0
DWIDTH 69 0
BBX 55 61 7 0
BITMAP
0000000FF80000
000001FFFF8000
FFFC07FFFFF000
FFFC1FFFFFF800
FFFC7FFFFFFE00
FFFCFFFFFFFF00
FFFDFFFFFFFF80
FFFFFFFFFFFFC0
FFFFFFFFFFFFC0
FFFFFFFFFFFFE0
FFFFFFFFFFFFF0
FFFFFFFFFFFFF0
FFFFFFFFFFFFF8
FFFFFFFFFFFFF8
FFFFFF00FFFFF8
FFFFFC003FFFFC
FFFFF0001FFFFC
FFFFE0000FFFFC
FFFFC00007FFFE
FFFFC00003FFFE
FFFF800003FFFE
FFFF800001FFFE
FFFF800001FFFE
FFFF000001FFFE
FFFF000000FFFE
FFFF000000FFFE
FFFF000000FFFE
FFFF000000FFFE
FFFE000000FFFE
FFFE000000FFFE
FFFE000000FFFE
FFFE000000FFFE
FFFE000000FFFE
FFFE000000FFFE
FFFE000000FFFE
FFFE000000FFFE
FFFE000000FFFE
FFFE000000FFFE
FFFE000000FFFE
FFFE000000FFFE
FFFE000000FFFE
FFFE000000FFFE
FFFE000000FFFE
FFFE000000FFFE
FFFE000000FFFE
FFFE000000FFFE
FFFE000000FFFE
FFFE000000FFFE
FFFE000000FFFE
FFFE000000FFFE
FFFE000000FFFE
FFFE000000FFFE
FFFE000000FFFE
FFFE000000FFFE
FFFE000000FFFE
FFFE000000FFFE
FFFE000000FFFE
FFFE000000FFFE
FFFE000000FFFE
FFFE000000FFFE
FFFE000000FFFE
ENDCHAR
STARTCHAR 006F
ENCODING 111
SWIDTH 627 0
DWIDTH 68 0
BBX 60 62 4 -2
BITMAP
000000FFF0000000
00000FFFFF000000
00007FFFFFC00000
0001FFFFFFF80000
0003FFFFFFFC0000
000FFFFFFFFF0000
001FFFFFFFFF8000
003FFFFFFFFFC000
007FFFFFFFFFE000
00FFFFFFFFFFF000
01FFFFFFFFFFF800
03FFFFFFFFFFFC00
07FFFFFFFFFFFC00
07FFFFFFFFFFFE00
0FFFFF801FFFFF00
0FFFFE0007FFFF00
1FFFF80003FFFF80
1FFFF00000FFFF80
3FFFE00000FFFF80
3FFFE000007FFFC0
3FFFC000003FFFC0
7FFFC000003FFFC0
7FFF8000001FFFE0
7FFF8000001FFFE0
7FFF8000001FFFE0
7FFF0000001FFFE0
7FFF0000000FFFE0
FFFF0000000FFFE0
FFFF0000000FFFE0
FFFF0000000FFFF0
FFFF0000000FFFF0
FFFF0000000FFFF0
FFFF0000000FFFF0
FFFF0000000FFFE0
FFFF0000000FFFE0
7FFF0000000FFFE0
7FFF0000001FFFE0
7FFF8000001FFFE0
7FFF8000001FFFE0
7FFF8000001FFFE0
7FFFC000003FFFC0
3FFFC000003FFFC0
3FFFE000007FFFC0
3FFFE00000FFFF80
1FFFF00001FFFF80
1FFFF80003FFFF80
0FFFFE0007FFFF00
0FFFFF801FFFFF00
07FFFFFFFFFFFE00
07FFFFFFFFFFFC00
03FFFFFFFFFFFC00
01FFFFFFFFFFF800
00FFFFFFFFFFF000
007FFFFFFFFFE000
003FFFFFFFFFC000
001FFFFFFFFF8000
000FFFFFFFFF0000
0003FFFFFFFC0000
0001FFFFFFF80000
00007FFFFFE00000
00000FFFFF000000
000000FFF0000000
ENDCHAR
STARTCHAR 0070
ENCODING 112
SWIDTH 627 0
DWIDTH 68 0
BBX 56 86 7 -26
BITMAP
000001FFC00000
FFF80FFFFC0000
FFF87FFFFF0000
FFF9FFFFFFC000
FFFBFFFFFFF000
FFFFFFFFFFF800
FFFFFFFFFFFC00
FFFFFFFFFFFE00
FFFFFFFFFFFF00
FFFFFFFFFFFF80
FFFFFFFFFFFFC0
FFFFFFFFFFFFE0
FFFFFFFFFFFFE0
FFFFFE03FFFFF0
FFFFF0007FFFF8
FFFFE0003FFFF8
FFFFC0000FFFF8
FFFF80000FFFFC
FFFF000007FFFC
FFFF000003FFFE
FFFE000003FFFE
FFFE000001FFFE
FFFC000001FFFE
FFFC000000FFFF
FFFC000000FFFF
FFFC000000FFFF
FFFC000000FFFF
FFFC000000FFFF
FFFC0000007FFF
FFF80000007FFF
FFF80000007FFF
FFF80000007FFF
FFF80000007FFF
FFFC0000007FFF
FFFC000000FFFF
FFFC000000FFFF
FFFC000000FFFF
FFFC000000FFFF
FFFC000000FFFF
FFFC000001FFFE
FFFE000001FFFE
FFFE000001FFFE
FFFF000003FFFE
FFFF000007FFFC
FFFF800007FFFC
FFFFC0000FFFF8
FFFFE0001FFFF8
FFFFF0007FFFF8
FFFFFE03FFFFF0
FFFFFFFFFFFFE0
FFFFFFFFFFFFE0
FFFFFFFFFFFFC0
FFFFFFFFFFFF80
FFFFFFFFFFFF00
FFFFFFFFFFFF00
FFFFFFFFFFFE00
FFFFFFFFFFF800
FFFFFFFFFFF000
FFFEFFFFFFE000
FFFE7FFFFF8000
FFFE0FFFFC0000
FFFE00FFC00000
FFFE0000000000
FFFE0000000000
FFFE0000000000
FFFE0000000000
FFFE0000000000
FFFE0000000000
FFFE0000000000
FFFE0000000000
FFFE0000000000
FFFE0000000000
FFFE0000000000
FFFE0000000000
FFFE0000000000
FFFE0000000000
FFFE0000000000
FFFE0000000000
FFFE0000000000
FFFE0000000000
FFFE0000000000
FFFE0000000000
FFFE0000000000
FFFE0000000000
FFFE0000000000
FFFE0000000000
ENDCHAR
STARTCHAR 0071
ENCODING 113
SWIDTH 627 0
DWIDTH 68 0
BBX 56 86 4 -26
BITMAP
000001FF800000
00001FFFF81FFF
0000FFFFFE1FFF
0003FFFFFF9FFF
0007FFFFFFFFFF
001FFFFFFFFFFF
003FFFFFFFFFFF
007FFFFFFFFFFF
00FFFFFFFFFFFF
01FFFFFFFFFFFF
03FFFFFFFFFFFF
03FFFFFFFFFFFF
07FFFFFFFFFFFF
07FFFFE03FFFFF
0FFFFF000FFFFF
1FFFFC0003FFFF
1FFFF80001FFFF
1FFFF00000FFFF
3FFFE00000FFFF
3FFFE000007FFF
3FFFC000007FFF
7FFFC000003FFF
7FFF8000003FFF
7FFF8000003FFF
7FFF8000001FFF
7FFF0000001FFF
7FFF0000001FFF
FFFF0000001FFF
FFFF0000001FFF
FFFF0000001FFF
FFFF0000001FFF
FFFF0000001FFF
FFFF0000001FFF
FFFF0000001FFF
FFFF0000001FFF
7FFF0000001FFF
7FFF0000001FFF
7FFF8000001FFF
7FFF8000003FFF
7FFF8000003FFF
7FFFC000003FFF
3FFFC000007FFF
3FFFE000007FFF
3FFFE00000FFFF
1FFFF00000FFFF
1FFFF80001FFFF
0FFFFC0003FFFF
0FFFFF000FFFFF
07FFFFC07FFFFF
07FFFFFFFFFFFF
03FFFFFFFFFFFF
03FFFFFFFFFFFF
01FFFFFFFFFFFF
00FFFFFFFFFFFF
007FFFFFFFFFFF
003FFFFFFFFFFF
001FFFFFFFFFFF
0007FFFFFFFFFF
0003FFFFFFFFFF
0000FFFFFE7FFF
00003FFFF87FFF
000003FF807FFF
00000000007FFF
00000000007FFF
00000000007FFF
00000000007FFF
00000000007FFF
00000000007FFF
00000000007FFF
00000000007FFF
00000000007FFF
00000000007FFF
00000000007FFF
00000000007FFF
00000000007FFF
00000000007FFF
00000000007FFF
00000000007FFF
00000000007FFF
00000000007FFF
00000000007FFF
00000000007FFF
00000000007FFF
00000000007FFF
00000000007FFF
00000000007FFF
ENDCHAR
STARTCHAR 0072
ENCODING 114
SWIDTH 415 0
DWIDTH 45 0
BBX 34 59 8 1
BITMAP
FFF8007FC0
FFF807FFC0
FFF81FFFC0
FFF83FFFC0
FFF8FFFFC0
FFF9FFFFC0
FFF9FFFFC0
FFFBFFFFC0
FFFFFFFFC0
FFFFFFFFC0
FFFFFFFFC0
FFFFFFFFC0
FFFFFFFFC0
FFFFFFF9C0
FFFFFF0000
FFFFF80000
FFFFF00000
FFFFE00000
FFFFC00000
FFFF800000
FFFF000000
FFFF000000
FFFE000000
FFFE000000
FFFE000000
FFFE000000
FFFE000000
FFFC000000
FFFC000000
FFFC000000
FFFC000000
FFFC000000
FFFC000000
FFFC000000
FFFC000000
FFFC000000
FFFC000000
FFFC000000
FFFC000000
FFFC000000
FFFC000000
FFFC000000
FFFC000000
FFFC000000
FFFC000000
FFFC000000
FFFC000000
FFFC000000
FFFC000000
FFFC000000
FFFC000000
FFFC000000
FFFC000000
FFFC000000
FFFC000000
FFFC000000
FFFC000000
FFFC000000
FFFC000000
ENDCHAR
STARTCHAR 0073
ENCODING 115
SWIDTH 544 0
DWIDTH 59 0
BBX 51 62 4 -2
BITMAP
00001FFF000000
0001FFFFF00000
0007FFFFFE0000
001FFFFFFF8000
007FFFFFFFC000
00FFFFFFFFF000
01FFFFFFFFF800
03FFFFFFFFFC00
07FFFFFFFFFE00
07FFFFFFFFFE00
0FFFFFFFFFFF00
0FFFFFFFFFFF80
1FFFFFFFFFFF80
1FFFF003FFFF80
1FFFC000FFFFC0
3FFFC0007FFFC0
3FFF80003FFFC0
3FFF80001FFFC0
3FFF80001FF000
3FFF80001E0000
3FFFC000000000
3FFFF000000000
1FFFFE00000000
1FFFFFC0000000
1FFFFFFC000000
0FFFFFFF800000
0FFFFFFFF80000
07FFFFFFFE0000
03FFFFFFFFC000
01FFFFFFFFF000
00FFFFFFFFF800
003FFFFFFFFC00
000FFFFFFFFE00
0003FFFFFFFF00
00007FFFFFFF80
000007FFFFFF80
000000FFFFFFC0
0000000FFFFFC0
00000001FFFFC0
000000007FFFE0
000000001FFFE0
007F00000FFFE0
3FFF00000FFFE0
FFFF00000FFFE0
7FFF80000FFFE0
7FFFC0001FFFE0
7FFFE0001FFFE0
3FFFF0003FFFC0
3FFFFC00FFFFC0
3FFFFFFFFFFFC0
1FFFFFFFFFFF80
1FFFFFFFFFFF80
0FFFFFFFFFFF00
07FFFFFFFFFF00
03FFFFFFFFFE00
01FFFFFFFFFC00
00FFFFFFFFF800
007FFFFFFFF000
001FFFFFFFC000
0007FFFFFF0000
0000FFFFF80000
00000FFF800000
ENDCHAR
STARTCHAR 0074
ENCODING 116
SWIDTH 443 0
DWIDTH 48 0
BBX 42 76 1 -2
BITMAP
003FFF800000
003FFF800000
003FFF800000
003FFF800000
003FFF800000
003FFF800000
003FFF800000
003FFF800000
003FFF800000
003FFF800000
003FFF800000
003FFF800000
003FFF800000
003FFF800000
003FFF800000
003FFF800000
FFFFFFFFFFC0
FFFFFFFFFFC0
FFFFFFFFFFC0
FFFFFFFFFFC0
FFFFFFFFFFC0
FFFFFFFFFFC0
FFFFFFFFFFC0
FFFFFFFFFFC0
FFFFFFFFFFC0
FFFFFFFFFFC0
FFFFFFFFFFC0
003FFF800000
003FFF800000
003FFF800000
003FFF800000
003FFF800000
003FFF800000
003FFF800000
003FFF800000
003FFF800000
003FFF800000
003FFF800000
003FFF800000
003FFF800000
003FFF800000
003FFF800000
003FFF800000
003FFF800000
003FFF800000
003FFF800000
003FFF800000
003FFF800000
003FFF800000
003FFF800000
003FFF800000
003FFF800000
003FFF800000
003FFF800000
003FFF800000
003FFF800000
003FFF800000
003FFF800000
003FFF800000
003FFFC00000
003FFFE00000
003FFFF00000
003FFFF80000
001FFFFFFFC0
001FFFFFFFC0
001FFFFFFFC0
000FFFFFFFC0
000FFFFFFFC0
0007FFFFFFC0
0003FFFFFFC0
0003FFFFFFC0
0000FFFFFFC0
00007FFFFFC0
00001FFFFFC0
000007FFFFC0
0000007FFE00
ENDCHAR
STARTCHAR 0075
ENCODING 117
SWIDTH 636 0
DWIDTH 69 0
BBX 55 61 6 -2
BITMAP
FFFE000000FFFE
FFFE000000FFFE
FFFE000000FFFE
FFFE000000FFFE
FFFE000000FFFE
FFFE000000FFFE
FFFE000000FFFE
FFFE000000FFFE
FFFE000000FFFE
FFFE000000FFFE
FFFE000000FFFE
FFFE000000FFFE
FFFE000000FFFE
FFFE000000FFFE
FFFE000000FFFE
FFFE000000FFFE
FFFE000000FFFE
FFFE000000FFFE
FFFE000000FFFE
FFFE000000FFFE
FFFE000000FFFE
FFFE000000FFFE
FFFE000000FFFE
FFFE000000FFFE
FFFE000000FFFE
FFFE000000FFFE
FFFE000000FFFE
FFFE000000FFFE
FFFE000000FFFE
FFFE000000FFFE
FFFE000000FFFE
FFFF000000FFFE
FFFF000000FFFE
FFFF000000FFFE
FFFF000000FFFE
7FFF000000FFFE
7FFF000000FFFE
7FFF000000FFFE
7FFF800001FFFE
7FFF800001FFFE
7FFF800001FFFE
7FFFC00003FFFE
7FFFE00007FFFE
7FFFE00007FFFE
3FFFF0000FFFFE
3FFFFC003FFFFE
3FFFFF00FFFFFE
1FFFFFFFFFFFFE
1FFFFFFFFFFFFE
0FFFFFFFFFFFFE
0FFFFFFFFFFFFE
07FFFFFFFFFFFE
07FFFFFFFFFFFE
03FFFFFFFFFFFE
01FFFFFFFFBFFE
00FFFFFFFF3FFE
007FFFFFFE3FFE
003FFFFFF83FFE
000FFFFFE03FFE
0003FFFF000000
00001FF8000000
ENDCHAR
STARTCHAR 0076
ENCODING 118
SWIDTH 572 0
DWIDTH 62 0
BBX 57 59 2 0
BITMAP
FFFE0000003FFF80
7FFE0000003FFF80
7FFF0000003FFF00
7FFF0000007FFF00
3FFF0000007FFF00
3FFF8000007FFE00
3FFF800000FFFE00
1FFF800000FFFE00
1FFFC00000FFFC00
0FFFC00001FFFC00
0FFFC00001FFFC00
0FFFE00001FFF800
07FFE00003FFF800
07FFE00003FFF800
07FFF00003FFF000
03FFF00007FFF000
03FFF80007FFE000
03FFF80007FFE000
01FFF8000FFFE000
01FFFC000FFFC000
00FFFC000FFFC000
00FFFC001FFFC000
00FFFE001FFF8000
007FFE001FFF8000
007FFE003FFF8000
007FFF003FFF0000
003FFF003FFF0000
003FFF007FFE0000
003FFF807FFE0000
001FFF807FFE0000
001FFF80FFFC0000
001FFFC0FFFC0000
000FFFC0FFFC0000
000FFFC1FFF80000
0007FFE1FFF80000
0007FFE1FFF80000
0007FFE3FFF00000
0003FFF3FFF00000
0003FFF3FFF00000
0003FFF7FFE00000
0001FFFFFFE00000
0001FFFFFFC00000
0001FFFFFFC00000
0000FFFFFFC00000
0000FFFFFF800000
00007FFFFF800000
00007FFFFF800000
00007FFFFF000000
00003FFFFF000000
00003FFFFF000000
00003FFFFE000000
00001FFFFE000000
00001FFFFC000000
00001FFFFC000000
00000FFFFC000000
00000FFFF8000000
00000FFFF8000000
000007FFF8000000
000007FFF0000000
ENDCHAR
STARTCHAR 0077
ENCODING 119
SWIDTH 812 0
DWIDTH 88 0
BBX 84 59 2 0
BITMAP
FFFE00000FFF000007FFF0
7FFE00000FFF800007FFF0
7FFE00001FFF800007FFE0
7FFF00001FFF800007FFE0
3FFF00001FFFC0000FFFE0
3FFF00003FFFC0000FFFC0
3FFF80003FFFC0000FFFC0
3FFF80003FFFE0001FFFC0
1FFF80007FFFE0001FFF80
1FFF80007FFFE0001FFF80
1FFFC0007FFFE0003FFF80
0FFFC000FFFFF0003FFF80
0FFFC000FFFFF0003FFF00
0FFFE000FFFFF0003FFF00
07FFE000FFFFF8007FFF00
07FFE001FFFFF8007FFE00
07FFF001FFFFF8007FFE00
07FFF001FFFFFC00FFFE00
03FFF003FFFFFC00FFFC00
03FFF003FFFFFC00FFFC00
03FFF803FFFFFE01FFFC00
01FFF807FFFFFE01FFFC00
01FFF807FF9FFE01FFF800
01FFFC07FF9FFE01FFF800
00FFFC0FFF9FFF03FFF800
00FFFC0FFF0FFF03FFF000
00FFFE0FFF0FFF03FFF000
00FFFE0FFF0FFF87FFF000
007FFE1FFE07FF87FFE000
007FFE1FFE07FF87FFE000
007FFF1FFE07FFCFFFE000
003FFF3FFC03FFCFFFC000
003FFF3FFC03FFCFFFC000
003FFFBFFC03FFDFFFC000
001FFFFFF801FFFFFFC000
001FFFFFF801FFFFFF8000
001FFFFFF801FFFFFF8000
000FFFFFF000FFFFFF8000
000FFFFFF000FFFFFF0000
000FFFFFF000FFFFFF0000
000FFFFFE0007FFFFF0000
0007FFFFE0007FFFFE0000
0007FFFFE0007FFFFE0000
0007FFFFC0003FFFFE0000
0003FFFFC0003FFFFE0000
0003FFFFC0003FFFFC0000
0003FFFF80001FFFFC0000
0001FFFF80001FFFFC0000
0001FFFF80001FFFF80000
0001FFFF00000FFFF80000
0001FFFF00000FFFF80000
0000FFFF00000FFFF00000
0000FFFE000007FFF00000
0000FFFE000007FFF00000
00007FFE000007FFF00000
00007FFC000003FFE00000
00007FFC000003FFE00000
00003FFC000003FFE00000
00003FF8000001FFC00000
ENDCHAR
STARTCHAR 0078
ENCODING 120
SWIDTH 563 0
DWIDTH 61 0
BBX 59 59 1 0
BITMAP
7FFFC000007FFFC0
3FFFE00000FFFF80
3FFFF00001FFFF80
1FFFF00001FFFF00
0FFFF80003FFFE00
0FFFFC0007FFFE00
07FFFC0007FFFC00
03FFFE000FFFF800
03FFFF001FFFF000
01FFFF001FFFF000
00FFFF803FFFE000
007FFFC07FFFC000
007FFFC07FFFC000
003FFFE0FFFF8000
001FFFF1FFFF0000
001FFFF1FFFE0000
000FFFFBFFFE0000
0007FFFFFFFC0000
0007FFFFFFF80000
0003FFFFFFF80000
0001FFFFFFF00000
0000FFFFFFE00000
0000FFFFFFE00000
00007FFFFFC00000
00003FFFFF800000
00003FFFFF000000
00001FFFFF000000
00000FFFFE000000
00000FFFFC000000
000007FFFC000000
00000FFFFE000000
00001FFFFF000000
00001FFFFF000000
00003FFFFF800000
00007FFFFFC00000
00007FFFFFC00000
0000FFFFFFE00000
0001FFFFFFF00000
0003FFFFFFF00000
0003FFFFFFF80000
0007FFFFFFFC0000
000FFFFBFFFE0000
000FFFF1FFFE0000
001FFFF1FFFF0000
003FFFE0FFFF8000
003FFFC07FFF8000
007FFFC07FFFC000
00FFFF803FFFE000
01FFFF001FFFF000
01FFFF001FFFF000
03FFFE000FFFF800
07FFFC0007FFFC00
07FFFC0007FFFC00
0FFFF80003FFFE00
1FFFF00001FFFF00
1FFFF00001FFFF00
3FFFE00000FFFF80
7FFFC000007FFFC0
FFFFC000007FFFE0
ENDCHAR
STARTCHAR 0079
ENCODING 121
SWIDTH 572 0
DWIDTH 62 0
BBX 61 85 1 -26
BITMAP
FFFF00000003FFF8
7FFF00000007FFF0
7FFF00000007FFF0
7FFF80000007FFE0
3FFF8000000FFFE0
3FFF8000000FFFE0
1FFFC000000FFFC0
1FFFC000001FFFC0
0FFFE000001FFF80
0FFFE000003FFF80
0FFFE000003FFF80
07FFF000003FFF00
07FFF000007FFF00
03FFF800007FFE00
03FFF80000FFFE00
03FFF80000FFFE00
01FFFC0000FFFC00
01FFFC0001FFFC00
00FFFE0001FFFC00
00FFFE0001FFF800
00FFFE0003FFF800
007FFF0003FFF000
007FFF0007FFF000
003FFF0007FFF000
003FFF8007FFE000
003FFF800FFFE000
001FFFC00FFFC000
001FFFC01FFFC000
000FFFC01FFFC000
000FFFE01FFF8000
000FFFE03FFF8000
0007FFF03FFF0000
0007FFF03FFF0000
0003FFF07FFF0000
0003FFF87FFE0000
0001FFF8FFFE0000
0001FFF8FFFC0000
0001FFFCFFFC0000
0000FFFDFFFC0000
0000FFFFFFF80000
00007FFFFFF80000
00007FFFFFF80000
00007FFFFFF00000
00003FFFFFF00000
00003FFFFFE00000
00001FFFFFE00000
00001FFFFFE00000
00001FFFFFC00000
00000FFFFFC00000
00000FFFFF800000
000007FFFF800000
000007FFFF800000
000007FFFF000000
000003FFFF000000
000003FFFE000000
000001FFFE000000
000001FFFE000000
000001FFFC000000
000000FFFC000000
000001FFF8000000
000001FFF8000000
000003FFF8000000
000003FFF0000000
000003FFF0000000
000007FFF0000000
000007FFE0000000
000007FFE0000000
00000FFFC0000000
00000FFFC0000000
00000FFFC0000000
00001FFF80000000
00001FFF80000000
00003FFF00000000
00003FFF00000000
00003FFF00000000
00007FFE00000000
00007FFE00000000
00007FFC00000000
0000FFFC00000000
0000FFFC00000000
0000FFF800000000
0001FFF800000000
0001FFF000000000
0003FFF000000000
0003FFF000000000
ENDCHAR
STARTCHAR 007A
ENCODING 122
SWIDTH 535 0
DWIDTH 58 0
BBX 52 59 2 0
BITMAP
1FFFFFFFFFFFF0
1FFFFFFFFFFFF0
1FFFFFFFFFFFE0
1FFFFFFFFFFFE0
1FFFFFFFFFFFC0
1FFFFFFFFFFF80
1FFFFFFFFFFF80
1FFFFFFFFFFF00
1FFFFFFFFFFE00
1FFFFFFFFFFE00
1FFFFFFFFFFC00
1FFFFFFFFFF800
1FFFFFFFFFF800
0000000FFFF000
0000000FFFE000
0000001FFFE000
0000003FFFC000
0000003FFFC000
0000007FFF8000
0000007FFF0000
000000FFFF0000
000001FFFE0000
000001FFFC0000
000003FFFC0000
000007FFF80000
000007FFF00000
00000FFFF00000
00001FFFE00000
00001FFFC00000
00003FFFC00000
00007FFF800000
00007FFF800000
0000FFFF000000
0001FFFE000000
0001FFFE000000
0003FFFC000000
0003FFF8000000
0007FFF8000000
000FFFF0000000
000FFFE0000000
001FFFE0000000
003FFFC0000000
003FFF80000000
007FFF80000000
00FFFF00000000
00FFFE00000000
01FFFFFFFFFFE0
03FFFFFFFFFFE0
03FFFFFFFFFFE0
07FFFFFFFFFFE0
0FFFFFFFFFFFE0
0FFFFFFFFFFFE0
1FFFFFFFFFFFE0
1FFFFFFFFFFFE0
3FFFFFFFFFFFE0
7FFFFFFFFFFFE0
7FFFFFFFFFFFE0
FFFFFFFFFFFFE0
FFFFFFFFFFFFE0
ENDCHAR
STARTCHAR 007B
ENCODING 123
SWIDTH 461 0
DWIDTH 50 0
BBX 30 121 15 -23
BITMAP
00001FFC
0001FFFC
0007FFFC
000FFFFC
001FFFFC
003FFFFC
007FFFFC
007FFFFC
00FFFFFC
00FFFFFC
01FFFFFC
01FFFFFC
01FFFFFC
01FFFFFC
01FFFC00
01FFF800
01FFF800
01FFF800
01FFF800
01FFF800
01FFF800
01FFF800
01FFF800
01FFF800
01FFF800
01FFF800
01FFF800
01FFF800
01FFF800
01FFF800
01FFF800
01FFF800
01FFF800
01FFF800
01FFF800
01FFF800
01FFF800
01FFF800
01FFF800
01FFF800
01FFF800
01FFF800
01FFF800
01FFF800
01FFF800
01FFF800
01FFF800
01FFF800
01FFF800
03FFF800
03FFF000
07FFF000
0FFFF000
1FFFF000
1FFFE000
3FFFE000
7FFFC000
7FFFC000
FFFF8000
FFFF0000
FFFE0000
FFFF0000
FFFF8000
7FFFC000
7FFFC000
3FFFE000
1FFFE000
0FFFF000
0FFFF000
07FFF000
03FFF000
03FFF800
01FFF800
01FFF800
01FFF800
01FFF800
01FFF800
01FFF800
01FFF800
01FFF800
01FFF800
01FFF800
01FFF800
01FFF800
01FFF800
01FFF800
01FFF800
01FFF800
01FFF800
01FFF800
01FFF800
01FFF800
01FFF800
01FFF800
01FFF800
01FFF800
01FFF800
01FFF800
01FFF800
01FFF800
01FFF800
01FFF800
01FFF800
01FFF800
01FFF800
01FFF800
01FFFC00
01FFFFFC
01FFFFFC
01FFFFFC
01FFFFFC
00FFFFFC
00FFFFFC
007FFFFC
007FFFFC
003FFFFC
001FFFFC
000FFFFC
0003FFFC
0000FFFC
00001FFC
ENDCHAR
STARTCHAR 007C
ENCODING 124
SWIDTH 313 0
DWIDTH 34 0
BBX 14 78 10 0
BITMAP
FFFC
FFFC
FFFC
FFFC
FFFC
FFFC
FFFC
FFFC
FFFC
FFFC
FFFC
FFFC
FFFC
FFFC
FFFC
FFFC
FFFC
FFFC
FFFC
FFFC
FFFC
FFFC
FFFC
FFFC
FFFC
FFFC
FFFC
FFFC
FFFC
FFFC
FFFC
FFFC
FFFC
FFFC
FFFC
FFFC
FFFC
FFFC
FFFC
FFFC
FFFC
FFFC
FFFC
FFFC
FFFC
FFFC
FFFC
FFFC
FFFC
FFFC
FFFC
FFFC
FFFC
FFFC
FFFC
FFFC
FFFC
FFFC
FFFC
FFFC
FFFC
FFFC
FFFC
FFFC
FFFC
FFFC
FFFC
FFFC
FFFC
FFFC
FFFC
FFFC
FFFC
FFFC
FFFC
FFFC
FFFC
FFFC
ENDCHAR
STARTCHAR 007D
ENCODING 125
SWIDTH 461 0
DWIDTH 50 0
BBX 31 121 4 -23
BITMAP
FFF00000
FFFE0000
FFFF8000
FFFFE000
FFFFF000
FFFFF800
FFFFF800
FFFFFC00
FFFFFC00
FFFFFE00
FFFFFE00
FFFFFE00
FFFFFF00
FFFFFF00
007FFF00
003FFF00
003FFF00
003FFF00
003FFF00
003FFF00
003FFF00
003FFF00
003FFF00
003FFF00
003FFF00
003FFF00
003FFF00
003FFF00
003FFF00
003FFF00
003FFF00
003FFF00
003FFF00
003FFF00
003FFF00
003FFF00
003FFF00
003FFF00
003FFF00
003FFF00
003FFF00
003FFF00
003FFF00
003FFF00
003FFF00
003FFF00
003FFF00
003FFF00
003FFF00
003FFF00
003FFF80
003FFFC0
001FFFE0
001FFFE0
001FFFF0
000FFFF8
000FFFF8
0007FFFC
0003FFFC
0001FFFE
0001FFFE
0001FFFC
0003FFFC
0007FFFC
000FFFF8
000FFFF8
001FFFF0
001FFFE0
001FFFC0
003FFFC0
003FFF80
003FFF00
003FFF00
003FFF00
003FFF00
003FFF00
003FFF00
003FFF00
003FFF00
003FFF00
003FFF00
003FFF00
003FFF00
003FFF00
003FFF00
003FFF00
003FFF00
003FFF00
003FFF00
003FFF00
003FFF00
003FFF00
003FFF00
003FFF00
003FFF00
003FFF00
003FFF00
003FFF00
003FFF00
003FFF00
003FFF00
003FFF00
003FFF00
003FFF00
003FFF00
003FFF00
007FFF00
FFFFFF00
FFFFFF00
FFFFFE00
FFFFFE00
FFFFFE00
FFFFFC00
FFFFFC00
FFFFF800
FFFFF800
FFFFF000
FFFFE000
FFFF8000
FFFE0000
FFF00000
ENDCHAR
STARTCHAR 007E
ENCODING 126
SWIDTH 738 0
DWIDTH 80 0
BBX 56 26 12 21
BITMAP
003FC000000000
01FFF800000000
07FFFE00003FFE
0FFFFF80003FFE
1FFFFFE0003FFE
3FFFFFF0003FFE
3FFFFFFC003FFF
7FFFFFFE003FFF
7FFFFFFF003FFF
7FFFFFFFC03FFF
FFFFFFFFF07FFF
FFFFFFFFFFFFFF
FFFFFFFFFFFFFF
FFFFFFFFFFFFFF
FFFFFFFFFFFFFE
FFFE0FFFFFFFFE
FFFC03FFFFFFFE
FFF801FFFFFFFC
FFF8007FFFFFFC
FFF8003FFFFFF8
FFF8000FFFFFF8
FFF80007FFFFF0
FFF80001FFFFE0
7FF800007FFFC0
000000001FFF00
0000000003F800
ENDCHAR
STARTCHAR 00A0
ENCODING 160
SWIDTH 203 0
DWIDTH 22 0
BBX 0 0 0 0
BITMAP
ENDCHAR
STARTCHAR 00A1
ENCODING 161
SWIDTH 378 0
DWIDTH 41 0
BBX 15 78 13 -19
BITMAP
FFFE
FFFE
FFFE
FFFE
FFFE
FFFE
FFFE
FFFE
FFFE
FFFE
FFFE
FFFE
FFFE
0000
0000
0000
0000
0000
0000
0000
FFFE
FFFE
FFFE
FFFE
FFFE
FFFE
FFFE
FFFE
FFFE
FFFE
FFFE
FFFE
FFFE
FFFE
FFFE
FFFE
FFFE
FFFE
FFFE
FFFE
FFFE
FFFE
FFFE
FFFE
FFFE
FFFE
FFFE
FFFE
FFFE
FFFE
FFFE
FFFE
FFFE
FFFE
FFFE
FFFE
FFFE
FFFE
FFFE
FFFE
FFFE
FFFE
FFFE
FFFE
FFFE
FFFE
FFFE
FFFE
FFFE
FFFE
FFFE
FFFE
FFFE
FFFE
FFFE
FFFE
FFFE
FFFE
ENDCHAR
STARTCHAR 00A2
ENCODING 162
SWIDTH 581 0
DWIDTH 63 0
BBX 56 81 4 -3
BITMAP
000000FFF00000
000000FFF00000
000000FFF00000
000000FFF00000
000000FFF00000
000000FFF00000
000000FFF00000
000000FFF00000
000000FFF00000
000000FFF00000
000001FFF80000
00001FFFFF0000
00007FFFFFE000
0001FFFFFFF800
0007FFFFFFFC00
000FFFFFFFFF00
003FFFFFFFFF80
007FFFFFFFFFC0
00FFFFFFFFFFE0
01FFFFFFFFFFE0
01FFFFFFFFFFF0
03FFFFFFFFFFF8
07FFFFFFFFFFF8
07FFFFFFFFFFFC
0FFFFF003FFFFC
0FFFFC000FFFFE
1FFFF80007FFFE
1FFFF00003FFFE
3FFFE00001FFFF
3FFFC00000FFFE
3FFFC00000FFE0
7FFF8000007E00
7FFF8000007000
7FFF8000000000
7FFF8000000000
7FFF0000000000
7FFF0000000000
FFFF0000000000
FFFF0000000000
FFFF0000000000
FFFF0000000000
FFFF0000000000
FFFF0000000000
FFFF0000000000
FFFF0000000000
7FFF0000000000
7FFF0000000000
7FFF8000000000
7FFF8000000000
7FFF8000006000
3FFFC00000FF00
3FFFC00000FFF8
3FFFE00001FFFF
3FFFF00001FFFE
1FFFF80003FFFE
1FFFFC0007FFFE
0FFFFE001FFFFC
0FFFFFE0FFFFFC
07FFFFFFFFFFF8
03FFFFFFFFFFF8
03FFFFFFFFFFF0
01FFFFFFFFFFE0
00FFFFFFFFFFE0
007FFFFFFFFFC0
003FFFFFFFFF80
001FFFFFFFFF00
000FFFFFFFFC00
0003FFFFFFF800
0000FFFFFFE000
00003FFFFF8000
000007FFFC0000
000000FFF00000
000000FFF00000
000000FFF00000
000000FFF00000
000000FFF00000
000000FFF00000
000000FFF00000
000000FFF00000
000000FFF00000
000000FFF00000
ENDCHAR
STARTCHAR 00A3
ENCODING 163
SWIDTH 572 0
DWIDTH 62 0
BBX 53 80 4 0
BITMAP
0000003FF00000
000001FFFE0000
00000FFFFF8000
00003FFFFFE000
00007FFFFFF000
0000FFFFFFF800
0001FFFFFFFC00
0003FFFFFFFE00
0007FFFFFFFF00
000FFFFFFFFF00
001FFFFFFFFF80
001FFFFFFFFFC0
003FFFFFFFFFC0
003FFFFFFFFFE0
003FFFF03FFFE0
007FFFC00FFFF0
007FFF8007FFF0
007FFF8007FFF8
007FFF0003FFF8
007FFF0003FFF8
007FFF0001FFF0
007FFF0001FF80
007FFF0000FC00
007FFF0000E000
007FFF00000000
007FFF00000000
007FFF00000000
007FFF00000000
007FFF00000000
007FFF00000000
007FFF00000000
007FFF00000000
007FFF00000000
007FFF00000000
FFFFFFFFFE0000
FFFFFFFFFE0000
FFFFFFFFFE0000
FFFFFFFFFE0000
FFFFFFFFFE0000
FFFFFFFFFE0000
FFFFFFFFFE0000
FFFFFFFFFE0000
FFFFFFFFFE0000
FFFFFFFFFE0000
FFFFFFFFFE0000
FFFFFFFFFE0000
FFFFFFFFFE0000
FFFFFFFFFE0000
007FFF00000000
007FFF00000000
007FFF00000000
007FFF00000000
007FFF00000000
007FFF00000000
007FFF00000000
007FFF00000000
007FFF00000000
007FFF00000000
007FFF00000000
00FFFF00000000
00FFFF00000000
00FFFF00000000
01FFFF00000000
03FFFF00000000
07FFFF00000000
0FFFFF00000000
FFFFFFFFFFFF00
FFFFFFFFFFFF00
FFFFFFFFFFFF00
FFFFFFFFFFFF00
FFFFFFFFFFFF00
FFFFFFFFFFFF00
FFFFFFFFFFFF00
FFFFFFFFFFFF00
FFFFFFFFFFFF00
FFFFFFFFFFFF00
FFFFFFFFFFFF00
FFFFFFFFFFFF00
FFFFFFFFFFFF00
FFFFFFFFFFFF00
ENDCHAR
STARTCHAR 00A4
ENCODING 164
SWIDTH 683 0
DWIDTH 74 0
BBX 67 66 3 6
BITMAP
006000000000006000
00F00000000000F000
01F80000000001F800
03FC0000000003FC00
07FE0000000007FE00
0FFF001FFF800FFF00
1FFF81FFFFF01FFF80
3FFFC7FFFFFC3FFFC0
7FFFFFFFFFFF7FFFE0
FFFFFFFFFFFFFFFFE0
7FFFFFFFFFFFFFFFC0
3FFFFFFFFFFFFFFF80
1FFFFFFFFFFFFFFF00
0FFFFFFFFFFFFFFE00
07FFFFFFFFFFFFFC00
03FFFFFFFFFFFFF800
01FFFFFFFFFFFFF000
00FFFFFC03FFFFE000
007FFFE0007FFFC000
007FFF80003FFFE000
00FFFF00000FFFE000
00FFFE000007FFF000
01FFFC000003FFF000
01FFF8000001FFF800
01FFF0000001FFF800
03FFF0000000FFF800
03FFE0000000FFFC00
03FFE00000007FFC00
03FFC00000007FFC00
03FFC00000007FFC00
03FFC00000003FFC00
07FFC00000003FFC00
07FFC00000003FFC00
07FFC00000003FFC00
07FFC00000003FFC00
03FFC00000003FFC00
03FFC00000007FFC00
03FFC00000007FFC00
03FFE00000007FFC00
03FFE0000000FFFC00
03FFF0000000FFF800
01FFF0000001FFF800
01FFF8000001FFF800
01FFFC000003FFF000
00FFFE000007FFF000
00FFFF00000FFFE000
007FFF80003FFFE000
007FFFE000FFFFC000
007FFFFC03FFFFE000
00FFFFFFFFFFFFF000
01FFFFFFFFFFFFF800
03FFFFFFFFFFFFFC00
07FFFFFFFFFFFFFE00
0FFFFFFFFFFFFFFF00
1FFFFFFFFFFFFFFF80
3FFFFFFFFFFFFFFFC0
7FFFFFFFFFFFFFFFE0
7FFFEFFFFFFF7FFFE0
3FFFC7FFFFFC3FFFC0
1FFF80FFFFF01FFF80
0FFF001FFF800FFF00
07FE0000000007FE00
03FC0000000003FC00
01F80000000001F800
00F00000000000F000
006000000000006000
ENDCHAR
STARTCHAR 00A5
ENCODING 165
SWIDTH 627 0
DWIDTH 68 0
BBX 68 78 0 0
BITMAP
FFFFC00000001FFFF0
7FFFC00000003FFFE0
7FFFE00000003FFFE0
3FFFE00000007FFFC0
1FFFF0000000FFFFC0
1FFFF0000000FFFF80
0FFFF8000001FFFF00
0FFFFC000001FFFF00
07FFFC000003FFFE00
07FFFE000003FFFE00
03FFFE000007FFFC00
01FFFF00000FFFFC00
01FFFF00000FFFF800
00FFFF80001FFFF000
00FFFFC0001FFFF000
007FFFC0003FFFE000
003FFFE0007FFFE000
003FFFE0007FFFC000
001FFFF000FFFFC000
001FFFF800FFFF8000
000FFFF801FFFF0000
000FFFFC01FFFF0000
0007FFFC03FFFE0000
0003FFFE07FFFE0000
0003FFFE07FFFC0000
0001FFFF0FFFF80000
0001FFFF8FFFF80000
0000FFFF9FFFF00000
0000FFFFDFFFF00000
00007FFFFFFFE00000
00003FFFFFFFE00000
00003FFFFFFFC00000
00001FFFFFFF800000
00001FFFFFFF800000
00000FFFFFFF000000
000007FFFFFF000000
000007FFFFFE000000
000003FFFFFE000000
001FFFFFFFFFFF8000
001FFFFFFFFFFF8000
001FFFFFFFFFFF8000
001FFFFFFFFFFF8000
001FFFFFFFFFFF8000
001FFFFFFFFFFF8000
001FFFFFFFFFFF8000
001FFFFFFFFFFF8000
001FFFFFFFFFFF8000
001FFFFFFFFFFF8000
001FFFFFFFFFFF8000
0000001FFFC0000000
0000001FFFC0000000
0000001FFFC0000000
0000001FFFC0000000
0000001FFFC0000000
0000001FFFC0000000
0000001FFFC0000000
0000001FFFC0000000
001FFFFFFFFFFF8000
001FFFFFFFFFFF8000
001FFFFFFFFFFF8000
001FFFFFFFFFFF8000
001FFFFFFFFFFF8000
001FFFFFFFFFFF8000
001FFFFFFFFFFF8000
001FFFFFFFFFFF8000
001FFFFFFFFFFF8000
001FFFFFFFFFFF8000
001FFFFFFFFFFF8000
0000001FFFC0000000
0000001FFFC0000000
0000001FFFC0000000
0000001FFFC0000000
0000001FFFC0000000
0000001FFFC0000000
0000001FFFC0000000
0000001FFFC0000000
0000001FFFC0000000
0000001FFFC0000000
ENDCHAR
STARTCHAR 00A6
ENCODING 166
SWIDTH 313 0
DWIDTH 34 0
BBX 14 102 10 -24
BITMAP
FFFC
FFFC
FFFC
FFFC
FFFC
FFFC
FFFC
FFFC
FFFC
FFFC
FFFC
FFFC
FFFC
FFFC
FFFC
FFFC
FFFC
FFFC
FFFC
FFFC
FFFC
FFFC
FFFC
FFFC
FFFC
FFFC
FFFC
FFFC
FFFC
FFFC
FFFC
FFFC
FFFC
FFFC
FFFC
FFFC
FFFC
FFFC
FFFC
FFFC
FFFC
FFFC
FFFC
FFFC
FFFC
FFFC
0000
0000
0000
0000
0000
0000
0000
0000
0000
0000
FFFC
FFFC
FFFC
FFFC
FFFC
FFFC
FFFC
FFFC
FFFC
FFFC
FFFC
FFFC
FFFC
FFFC
FFFC
FFFC
FFFC
FFFC
FFFC
FFFC
FFFC
FFFC
FFFC
FFFC
FFFC
FFFC
FFFC
FFFC
FFFC
FFFC
FFFC
FFFC
FFFC
FFFC
FFFC
FFFC
FFFC
FFFC
FFFC
FFFC
FFFC
FFFC
FFFC
FFFC
FFFC
FFFC
ENDCHAR
STARTCHAR 00A7
ENCODING 167
SWIDTH 544 0
DWIDTH 59 0
BBX 50 87 5 -15
BITMAP
00003FF8000000
0003FFFF000000
001FFFFFE00000
007FFFFFF80000
00FFFFFFFC0000
01FFFFFFFF0000
03FFFFFFFF8000
07FFFFFFFFC000
0FFFFFFFFFE000
0FFFFFFFFFE000
1FFFFFFFFFF000
1FFFFFFFFFF000
3FFFFFFFFFF800
3FFFC01FFFF800
3FFF800FFFF800
7FFF0007FFFC00
7FFF0003FFFC00
7FFF0003FFF800
7FFF0001FF0000
7FFF0001C00000
7FFF8000000000
7FFFE000000000
3FFFFC00000000
3FFFFF80000000
3FFFFFF8000000
1FFFFFFF800000
1FFFFFFFF00000
0FFFFFFFFE0000
07FFFFFFFF8000
03FFFFFFFFE000
01FFFFFFFFF000
007FFFFFFFFC00
01FFFFFFFFFE00
03FFFFFFFFFE00
07FFFFFFFFFF00
0FFFFFFFFFFF80
1FFFF0FFFFFF80
3FFFC00FFFFF80
3FFF8001FFFFC0
7FFF00007FFFC0
7FFE00003FFFC0
FFFE00001FFFC0
FFFE00001FFFC0
FFFE00001FFFC0
FFFE00001FFFC0
FFFF00003FFFC0
FFFFC0003FFF80
FFFFF8007FFF80
7FFFFF00FFFF80
7FFFFFF1FFFF00
3FFFFFFFFFFF00
3FFFFFFFFFFE00
1FFFFFFFFFFC00
0FFFFFFFFFF800
07FFFFFFFFE000
01FFFFFFFFE000
00FFFFFFFFF800
003FFFFFFFFC00
0007FFFFFFFC00
0000FFFFFFFE00
00001FFFFFFF00
000001FFFFFF00
0000001FFFFF00
00000003FFFF00
00000000FFFF80
000300007FFF80
01FF00007FFF80
FFFF00003FFF80
7FFF80003FFF80
7FFF80003FFF80
7FFFC0007FFF80
7FFFE0007FFF00
3FFFF000FFFF00
3FFFFE03FFFF00
1FFFFFFFFFFF00
1FFFFFFFFFFE00
0FFFFFFFFFFE00
0FFFFFFFFFFC00
07FFFFFFFFF800
03FFFFFFFFF000
01FFFFFFFFF000
00FFFFFFFFC000
003FFFFFFF8000
001FFFFFFE0000
0007FFFFF80000
0000FFFFC00000
000007F0000000
ENDCHAR
STARTCHAR 00A8
ENCODING 168
SWIDTH 572 0
DWIDTH 62 0
BBX 36 13 13 86
BITMAP
FFF801FFF0
FFF801FFF0
FFF801FFF0
FFF801FFF0
FFF801FFF0
FFF801FFF0
FFF801FFF0
FFF801FFF0
FFF801FFF0
FFF801FFF0
FFF801FFF0
FFF801FFF0
FFF801FFF0
ENDCHAR
STARTCHAR 00A9
ENCODING 169
SWIDTH 913 0
DWIDTH 99 0
BBX 93 93 3 -8
BITMAP
0000000001FFF80000000000
000000001FFFFFC000000000
00000001FFFFFFFC00000000
00000007FFFFFFFF00000000
0000003FFFFFFFFFC0000000
0000007FFFFFFFFFF0000000
000001FFFFFFFFFFFC000000
000007FFFFFFFFFFFF000000
00000FFFFFFFFFFFFF800000
00003FFFFFFFFFFFFFE00000
00007FFFFFFFFFFFFFF00000
0000FFFFFFFFFFFFFFF80000
0001FFFFFFFFFFFFFFFC0000
0003FFFFFFFFFFFFFFFE0000
0007FFFFFF0007FFFFFF0000
000FFFFFF000007FFFFF8000
001FFFFF8000000FFFFFC000
003FFFFE00000003FFFFE000
007FFFFC00000001FFFFF000
007FFFF0000000007FFFF000
00FFFFE0000000003FFFF800
01FFFF80000000000FFFFC00
01FFFF000000000007FFFC00
03FFFE00003FF80003FFFE00
03FFFC0001FFFF0001FFFE00
07FFF80007FFFFC000FFFF00
07FFF8001FFFFFF000FFFF00
0FFFF0003FFFFFF8007FFF80
0FFFE0007FFFFFFC003FFF80
1FFFE000FFFFFFFE003FFFC0
1FFFC001FFFFFFFF001FFFC0
1FFF8003FFFFFFFF801FFFC0
3FFF8007FFFFFFFF800FFFE0
3FFF8007FFFC7FFFC00FFFE0
3FFF000FFFE00FFFC007FFE0
7FFF000FFF8007FFE007FFE0
7FFE001FFF0003FFE007FFF0
7FFE001FFE0001FFE003FFF0
7FFE001FFE0001FF0003FFF0
7FFE003FFC0000F00003FFF0
7FFC003FFC0000800003FFF0
FFFC003FFC0000000001FFF8
FFFC003FFC0000000001FFF8
FFFC003FF80000000001FFF8
FFFC003FF80000000001FFF8
FFFC003FF80000000001FFF8
FFFC003FF80000000001FFF8
FFFC003FF80000000001FFF8
FFFC003FF80000000001FFF8
FFFC003FFC0000000001FFF8
FFFC003FFC0000000001FFF8
FFFC003FFC0000000001FFF0
7FFE003FFC0000000003FFF0
7FFE001FFE0000F80003FFF0
7FFE001FFE0001FFC003FFF0
7FFE001FFF0001FFE003FFF0
7FFF000FFF8003FFE007FFF0
3FFF000FFFC007FFC007FFE0
3FFF0007FFF01FFFC007FFE0
3FFF8007FFFFFFFF800FFFE0
3FFF8003FFFFFFFF800FFFE0
1FFFC003FFFFFFFF001FFFC0
1FFFC001FFFFFFFE001FFFC0
0FFFE000FFFFFFFC003FFF80
0FFFF0007FFFFFF8007FFF80
0FFFF0003FFFFFF0007FFF80
07FFF8000FFFFFE000FFFF00
07FFFC0003FFFF8001FFFF00
03FFFE0000FFFE0003FFFE00
03FFFF000000000007FFFE00
01FFFF80000000000FFFFC00
00FFFFC0000000001FFFF800
00FFFFE0000000003FFFF800
007FFFF000000000FFFFF000
003FFFFC00000001FFFFE000
001FFFFF00000007FFFFC000
001FFFFFC000001FFFFFC000
000FFFFFF80000FFFFFF8000
0007FFFFFF800FFFFFFF0000
0003FFFFFFFFFFFFFFFE0000
0001FFFFFFFFFFFFFFFC0000
0000FFFFFFFFFFFFFFF80000
00007FFFFFFFFFFFFFF00000
00001FFFFFFFFFFFFFC00000
00000FFFFFFFFFFFFF800000
000003FFFFFFFFFFFE000000
000001FFFFFFFFFFFC000000
0000007FFFFFFFFFF0000000
0000001FFFFFFFFFC0000000
00000003FFFFFFFF00000000
00000000FFFFFFF800000000
000000000FFFFF8000000000
00000000003FE00000000000
ENDCHAR
STARTCHAR 00AA
ENCODING 170
SWIDTH 323 0
DWIDTH 35 0
BBX 26 31 4 29
BITMAP
003FE000
01FFF800
07FFFE00
0FFFFF00
1FFFFF80
3FFFFF80
3FFFFFC0
3FE07FC0
3F803FC0
07001FC0
00001FC0
0003FFC0
007FFFC0
03FFFFC0
0FFFFFC0
1FFFFFC0
3FFFFFC0
7FFE1FC0
7FE01FC0
7F801FC0
FF001FC0
FF003FC0
FF003FC0
FF00FFC0
7F81FFC0
7FFFFFC0
7FFFFFC0
3FFFEFC0
1FFFCFC0
0FFF8FC0
01FC0000
ENDCHAR
STARTCHAR 00AB
ENCODING 171
SWIDTH 600 0
DWIDTH 65 0
BBX 50 48 9 5
BITMAP
00003000006000
00007800007000
00007C0000FC00
0000FF0001FE00
0001FF8003FF00
0003FFC007FFC0
0007FFC007FF80
0007FF800FFF00
000FFF001FFF00
001FFF003FFE00
003FFE003FFC00
007FFC007FF800
007FF800FFF000
00FFF001FFF000
01FFF003FFE000
03FFE003FFC000
07FFC007FF8000
07FF800FFF0000
0FFF001FFF0000
1FFF003FFE0000
3FFE003FFC0000
7FFC007FF80000
7FF800FFF00000
FFF001FFF00000
FFF801FFF00000
7FF800FFF80000
3FFC007FFC0000
1FFE003FFC0000
1FFF001FFE0000
0FFF801FFF0000
07FF800FFF8000
03FFC007FFC000
01FFE003FFC000
01FFF001FFE000
00FFF801FFF000
007FF800FFF800
003FFC007FFC00
003FFE003FFC00
001FFF001FFE00
000FFF801FFF00
0007FF800FFF80
0003FFC007FF80
0003FFC003FF80
0001FF8001FF00
0000FE0001FE00
00007C0000F800
00003800007000
00002000002000
ENDCHAR
STARTCHAR 00AC
ENCODING 172
SWIDTH 600 0
DWIDTH 65 0
BBX 53 23 6 20
BITMAP
FFFFFFFFFFFFF8
FFFFFFFFFFFFF8
FFFFFFFFFFFFF8
FFFFFFFFFFFFF8
FFFFFFFFFFFFF8
FFFFFFFFFFFFF8
FFFFFFFFFFFFF8
FFFFFFFFFFFFF8
FFFFFFFFFFFFF8
FFFFFFFFFFFFF8
FFFFFFFFFFFFF8
00000000007FF8
00000000007FF8
00000000007FF8
00000000007FF8
00000000007FF8
00000000007FF8
00000000007FF8
00000000007FF8
00000000007FF8
00000000007FF8
00000000007FF8
00000000007FF8
ENDCHAR
STARTCHAR 00AD
ENCODING 173
SWIDTH 424 0
DWIDTH 46 0
BBX 33 11 6 29
BITMAP
FFFFFFFF80
FFFFFFFF80
FFFFFFFF80
FFFFFFFF80
FFFFFFFF80
FFFFFFFF80
FFFFFFFF80
FFFFFFFF80
FFFFFFFF80
FFFFFFFF80
FFFFFFFF80
ENDCHAR
STARTCHAR 00AE
ENCODING 174
SWIDTH 664 0
DWIDTH 72 0
BBX 56 57 8 29
BITMAP
000001FF800000
00001FFFF80000
0000FFFFFF0000
0003FFFFFFC000
0007FFFFFFE000
001FFFFFFFF800
003FFFFFFFFC00
007FFFFFFFFE00
00FFFFFFFFFF00
01FFFFE7FFFF80
03FFFC003FFFC0
07FFE00007FFE0
0FFFC00003FFF0
0FFF000000FFF0
1FFE0000007FF8
1FFC1FFF003FF8
3FF81FFFE01FFC
3FF81FFFF00FFC
7FF01FFFF80FFE
7FE01FFFFC07FE
7FE01F00FC07FE
FFC01F007C03FF
FFC01F003E03FF
FFC01F003E03FF
FFC01F003E01FF
FF801F007E01FF
FF801F007C01FF
FF801F00FC01FF
FF801FFFFC01FF
FF801FFFF801FF
FF801FFFF001FF
FF801FFFE001FF
FFC01FFFE001FF
FFC01F03E003FF
FFC01F03F003FF
FFE01F01F003FF
7FE01F01F807FE
7FE01F00F807FE
7FF01F00FC0FFE
3FF81F007C1FFC
3FF81F007E1FFC
1FFC0000003FF8
1FFE0000007FF8
0FFF000001FFF0
0FFFC00003FFF0
07FFF0000FFFE0
03FFFC003FFFC0
01FFFFFFFFFF80
00FFFFFFFFFF00
007FFFFFFFFE00
003FFFFFFFFC00
001FFFFFFFF800
0007FFFFFFE000
0003FFFFFFC000
0000FFFFFF0000
00001FFFF80000
000001FF800000
ENDCHAR
STARTCHAR 00AF
ENCODING 175
SWIDTH 507 0
DWIDTH 55 0
BBX 29 11 13 91
BITMAP
FFFFFFF8
FFFFFFF8
FFFFFFF8
FFFFFFF8
FFFFFFF8
FFFFFFF8
FFFFFFF8
FFFFFFF8
FFFFFFF8
FFFFFFF8
FFFFFFF8
ENDCHAR
STARTCHAR 00B0
ENCODING 176
SWIDTH 452 0
DWIDTH 49 0
BBX 39 39 3 41
BITMAP
0001FF0000
000FFFE000
003FFFF800
007FFFFE00
01FFFFFF00
03FFFFFF80
07FFFFFFC0
0FFFFFFFE0
0FFFFFFFF0
1FFFFFFFF8
1FFFFFFFF8
3FFFFFFFFC
3FFFEFFFFC
7FFF01FFFC
7FFE007FFE
7FFC007FFE
FFF8003FFE
FFF8003FFE
FFF8001FFE
FFF8001FFE
FFF8001FFE
FFF8003FFE
FFF8003FFE
7FFC007FFE
7FFE007FFE
7FFF01FFFC
3FFFEFFFFC
3FFFFFFFFC
3FFFFFFFF8
1FFFFFFFF0
0FFFFFFFF0
0FFFFFFFE0
07FFFFFFC0
03FFFFFF80
01FFFFFF00
007FFFFE00
003FFFF800
000FFFE000
0001FF0000
ENDCHAR
STARTCHAR 00B1
ENCODING 177
SWIDTH 600 0
DWIDTH 65 0
BBX 53 52 6 7
BITMAP
000007FF000000
000007FF000000
000007FF000000
000007FF000000
000007FF000000
000007FF000000
000007FF000000
000007FF000000
000007FF000000
000007FF000000
000007FF000000
000007FF000000
FFFFFFFFFFFFF8
FFFFFFFFFFFFF8
FFFFFFFFFFFFF8
FFFFFFFFFFFFF8
FFFFFFFFFFFFF8
FFFFFFFFFFFFF8
FFFFFFFFFFFFF8
FFFFFFFFFFFFF8
FFFFFFFFFFFFF8
FFFFFFFFFFFFF8
FFFFFFFFFFFFF8
000007FF000000
000007FF000000
000007FF000000
000007FF000000
000007FF000000
000007FF000000
000007FF000000
000007FF000000
000007FF000000
000007FF000000
000007FF000000
000007FF000000
00000000000000
00000000000000
00000000000000
00000000000000
00000000000000
00000000000000
FFFFFFFFFFFFF8
FFFFFFFFFFFFF8
FFFFFFFFFFFFF8
FFFFFFFFFFFFF8
FFFFFFFFFFFFF8
FFFFFFFFFFFFF8
FFFFFFFFFFFFF8
FFFFFFFFFFFFF8
FFFFFFFFFFFFF8
FFFFFFFFFFFFF8
FFFFFFFFFFFFF8
ENDCHAR
STARTCHAR 00B2
ENCODING 178
SWIDTH 415 0
DWIDTH 45 0
BBX 35 50 5 29
BITMAP
0007FC0000
003FFF8000
00FFFFE000
03FFFFF800
07FFFFFC00
0FFFFFFE00
1FFFFFFE00
1FFFFFFF00
3FFFFFFF80
3FFC07FF80
7FF801FFC0
7FF000FFC0
7FE000FFC0
7FC0007FC0
FFC0007FE0
FFC0007FE0
0000007FE0
0000007FE0
0000007FE0
000000FFC0
000000FFC0
000001FFC0
000003FFC0
000007FF80
00000FFF80
00001FFF00
00003FFE00
0000FFFC00
0001FFF800
0003FFF000
0007FFE000
000FFFC000
001FFF0000
003FFE0000
007FFC0000
01FFF80000
03FFF00000
07FFE00000
0FFFC00000
1FFF000000
3FFE000000
7FFFFFFFE0
FFFFFFFFE0
FFFFFFFFE0
FFFFFFFFE0
FFFFFFFFE0
FFFFFFFFE0
FFFFFFFFE0
FFFFFFFFE0
FFFFFFFFE0
ENDCHAR
STARTCHAR 00B3
ENCODING 179
SWIDTH 406 0
DWIDTH 44 0
BBX 33 50 5 28
BITMAP
7FFFFFFF00
7FFFFFFF00
7FFFFFFF00
7FFFFFFF00
7FFFFFFF00
7FFFFFFF00
7FFFFFFF00
7FFFFFFF00
7FFFFFFF00
00000FFE00
00001FFC00
00007FF800
0000FFF000
0001FFE000
0003FFC000
000FFF8000
001FFF0000
003FFE0000
007FFE0000
00FFFF8000
00FFFFE000
007FFFF000
007FFFF800
003FFFFC00
001FFFFC00
001FFFFE00
00001FFE00
000007FF00
000003FF00
000003FF00
000001FF80
000001FF80
000001FF80
000001FF80
000001FF80
000001FF80
0F8001FF00
FF8003FF00
FFC007FF00
FFE00FFF00
FFF83FFE00
7FFFFFFE00
3FFFFFFC00
3FFFFFF800
1FFFFFF000
0FFFFFE000
07FFFFC000
01FFFF0000
007FFC0000
000FE00000
ENDCHAR
STARTCHAR 00B4
ENCODING 180
SWIDTH 553 0
DWIDTH 60 0
BBX 20 21 23 86
BITMAP
007FF0
00FFE0
00FFE0
01FFC0
01FFC0
03FF80
03FF80
03FF80
07FF00
07FF00
0FFE00
0FFE00
1FFC00
1FFC00
1FFC00
3FF800
3FF800
7FF000
7FF000
FFE000
FFE000
ENDCHAR
STARTCHAR 00B5
ENCODING 181
SWIDTH 646 0
DWIDTH 70 0
BBX 55 85 7 -26
BITMAP
FFFE000000FFFE
FFFE000000FFFE
FFFE000000FFFE
FFFE000000FFFE
FFFE000000FFFE
FFFE000000FFFE
FFFE000000FFFE
FFFE000000FFFE
FFFE000000FFFE
FFFE000000FFFE
FFFE000000FFFE
FFFE000000FFFE
FFFE000000FFFE
FFFE000000FFFE
FFFE000000FFFE
FFFE000000FFFE
FFFE000000FFFE
FFFE000000FFFE
FFFE000000FFFE
FFFE000000FFFE
FFFE000000FFFE
FFFE000000FFFE
FFFE000000FFFE
FFFE000000FFFE
FFFE000000FFFE
FFFE000000FFFE
FFFE000000FFFE
FFFE000000FFFE
FFFE000000FFFE
FFFE000000FFFE
FFFE000000FFFE
FFFE000000FFFE
FFFF000000FFFE
FFFF000000FFFE
FFFF000000FFFE
FFFF000000FFFE
FFFF000000FFFE
FFFF000000FFFE
FFFF800001FFFE
FFFF800001FFFE
FFFF800001FFFE
FFFFC00003FFFE
FFFFE00007FFFE
FFFFE00007FFFE
FFFFF0000FFFFE
FFFFFC003FFFFE
FFFFFF00FFFFFE
FFFFFFFFFFFFFE
FFFFFFFFFFFFFE
FFFFFFFFFFFFFE
FFFFFFFFFFFFFE
FFFFFFFFFFFFFE
FFFFFFFFFFFFFE
FFFFFFFFFFFFFE
FFFFFFFFFFBFFE
FFFFFFFFFF3FFE
FFFFFFFFFC3FFE
FFFFFFFFF83FFE
FFFFFFFFE03FFE
FFF9FFFF000000
FFF81FF8000000
FFF80000000000
FFF80000000000
FFF80000000000
FFF80000000000
FFF80000000000
FFF80000000000
FFF80000000000
FFF80000000000
FFF80000000000
FFF80000000000
FFF80000000000
FFF80000000000
FFF80000000000
FFF80000000000
FFF80000000000
FFF80000000000
FFF80000000000
FFF80000000000
FFF80000000000
FFF80000000000
FFF80000000000
FFF80000000000
FFF80000000000
FFF80000000000
ENDCHAR
STARTCHAR 00B6
ENCODING 182
SWIDTH 738 0
DWIDTH 80 0
BBX 72 93 4 -15
BITMAP
00000FFFFFFE007FFF
0000FFFFFFFE007FFF
0007FFFFFFFE007FFF
001FFFFFFFFE007FFF
003FFFFFFFFE007FFF
00FFFFFFFFFE007FFF
01FFFFFFFFFE007FFF
03FFFFFFFFFE007FFF
03FFFFFFFFFE007FFF
07FFFFFFFFFE007FFF
0FFFFFFFFFFE007FFF
0FFFFFFFFFFE007FFF
1FFFFFFFFFFE007FFF
1FFFFFFFFFFE007FFF
3FFFFFFFFFFE007FFF
3FFFFFFFFFFE007FFF
3FFFFFFFFFFE007FFF
7FFFFFFFFFFE007FFF
7FFFFFFFFFFE007FFF
7FFFFFFFFFFE007FFF
7FFFFFFFFFFE007FFF
7FFFFFFFFFFE007FFF
FFFFFFFFFFFE007FFF
FFFFFFFFFFFE007FFF
FFFFFFFFFFFE007FFF
FFFFFFFFFFFE007FFF
FFFFFFFFFFFE007FFF
FFFFFFFFFFFE007FFF
FFFFFFFFFFFE007FFF
FFFFFFFFFFFE007FFF
7FFFFFFFFFFE007FFF
7FFFFFFFFFFE007FFF
7FFFFFFFFFFE007FFF
7FFFFFFFFFFE007FFF
7FFFFFFFFFFE007FFF
3FFFFFFFFFFE007FFF
3FFFFFFFFFFE007FFF
3FFFFFFFFFFE007FFF
1FFFFFFFFFFE007FFF
1FFFFFFFFFFE007FFF
0FFFFFFFFFFE007FFF
0FFFFFFFFFFE007FFF
07FFFFFFFFFE007FFF
03FFFFFFFFFE007FFF
01FFFFFFFFFE007FFF
00FFFFFFFFFE007FFF
007FFFFFFFFE007FFF
003FFFFFFFFE007FFF
000FFFFFFFFE007FFF
0003FFFFFFFE007FFF
00007FFFFFFE007FFF
0000003FFFFE007FFF
00000000FFFE007FFF
00000000FFFE007FFF
00000000FFFE007FFF
00000000FFFE007FFF
00000000FFFE007FFF
00000000FFFE007FFF
00000000FFFE007FFF
00000000FFFE007FFF
00000000FFFE007FFF
00000000FFFE007FFF
00000000FFFE007FFF
00000000FFFE007FFF
00000000FFFE007FFF
00000000FFFE007FFF
00000000FFFE007FFF
00000000FFFE007FFF
00000000FFFE007FFF
00000000FFFE007FFF
00000000FFFE007FFF
00000000FFFE007FFF
00000000FFFE007FFF
00000000FFFE007FFF
00000000FFFE007FFF
00000000FFFE007FFF
00000000FFFE007FFF
00000000FFFE007FFF
00000000FFFE007FFF
00000000FFFE007FFF
00000000FFFE007FFF
00000000FFFE007FFF
00000000FFFE007FFF
00000000FFFE007FFF
00000000FFFE007FFF
00000000FFFE007FFF
00000000FFFE007FFF
00000000FFFE007FFF
00000000FFFE007FFF
00000000FFFE007FFF
00000000FFFE007FFF
00000000FFFE007FFF
00000000FFFE007FFF
ENDCHAR
STARTCHAR 00B7
ENCODING 183
SWIDTH 276 0
DWIDTH 30 0
BBX 18 17 6 26
BITMAP
03F000
0FFC00
1FFE00
3FFF00
7FFF80
7FFF80
7FFFC0
7FFFC0
FFFFC0
7FFFC0
7FFFC0
7FFF80
7FFF80
3FFF00
1FFF00
0FFE00
07F800
ENDCHAR
STARTCHAR 00B8
ENCODING 184
SWIDTH 415 0
DWIDTH 45 0
BBX 19 28 13 -26
BITMAP
03FE00
03FC00
07FC00
07FC00
07F800
0FF800
0FFC00
0FFF00
1FFF80
1FFF80
1FFFC0
0FFFC0
01FFE0
00FFE0
007FE0
007FE0
007FE0
00FFE0
1FFFE0
3FFFE0
3FFFE0
3FFFC0
7FFFC0
7FFF80
7FFF00
FFFE00
7FFC00
0FE000
ENDCHAR
STARTCHAR 00B9
ENCODING 185
SWIDTH 350 0
DWIDTH 38 0
BBX 19 49 6 29
BITMAP
007FE0
01FFE0
07FFE0
0FFFE0
3FFFE0
FFFFE0
FFFFE0
FFFFE0
FFFFE0
FFFFE0
FFBFE0
FE3FE0
FC3FE0
F03FE0
C03FE0
803FE0
003FE0
003FE0
003FE0
003FE0
003FE0
003FE0
003FE0
003FE0
003FE0
003FE0
003FE0
003FE0
003FE0
003FE0
003FE0
003FE0
003FE0
003FE0
003FE0
003FE0
003FE0
003FE0
003FE0
003FE0
003FE0
003FE0
003FE0
003FE0
003FE0
003FE0
003FE0
003FE0
003FE0
ENDCHAR
STARTCHAR 00BA
ENCODING 186
SWIDTH 350 0
DWIDTH 38 0
BBX 30 31 4 29
BITMAP
001FE000
00FFFC00
01FFFF00
07FFFF80
0FFFFFC0
1FFFFFE0
1FFFFFF0
3FF03FF0
3FE00FF8
7FC007F8
7F8007F8
7F8003FC
7F0003FC
FF0003FC
FF0003FC
FF0003FC
FF0003FC
FF0003FC
7F0003FC
7F8007FC
7F8007F8
7FC00FF8
3FE00FF8
3FF03FF0
1FFFFFE0
1FFFFFE0
0FFFFFC0
07FFFF80
01FFFF00
007FFC00
000FE000
ENDCHAR
STARTCHAR 00BB
ENCODING 187
SWIDTH 600 0
DWIDTH 65 0
BBX 49 48 7 5
BITMAP
03000006000000
0780000F000000
0F80001F800000
3FC0003FC00000
7FE000FFC00000
FFF001FFE00000
FFF801FFF00000
7FF800FFF80000
3FFC007FFC0000
3FFE003FFC0000
1FFF001FFE0000
0FFF801FFF0000
07FF800FFF8000
03FFC007FF8000
03FFE003FFC000
01FFF001FFE000
00FFF801FFF000
007FF800FFF800
003FFC007FF800
003FFE003FFC00
001FFF001FFE00
000FFF801FFF00
0007FF800FFF80
0003FFC007FF80
0007FFC007FF80
0007FF800FFF00
000FFF001FFF00
001FFE003FFE00
003FFE007FFC00
007FFC007FF800
007FF800FFF000
00FFF001FFF000
01FFF003FFE000
03FFE003FFC000
07FFC007FF8000
07FF800FFF0000
0FFF001FFF0000
1FFF003FFE0000
3FFE003FFC0000
7FFC007FF80000
7FF800FFF00000
FFF001FFF00000
FFF001FFE00000
7FE0007FC00000
1FC0003F800000
0F80001F000000
07000007000000
01000002000000
ENDCHAR
STARTCHAR 00BC
ENCODING 188
SWIDTH 1052 0
DWIDTH 114 0
BBX 95 79 6 0
BITMAP
000000000000000008000000
007FE000000000000E000000
01FFE000000000001F000000
07FFE000000000003F800000
0FFFE000000000003FE00000
3FFFE000000000007FF00000
FFFFE00000000000FFF80000
FFFFE00000000001FFF00000
FFFFE00000000001FFF00000
FFFFE00000000003FFE00000
FFFFE00000000007FFC00000
FFBFE00000000007FFC00000
FE3FE0000000000FFF800000
FC3FE0000000001FFF000000
F03FE0000000003FFE000000
E03FE0000000003FFE000000
803FE0000000007FFC000000
003FE000000000FFF8000000
003FE000000000FFF8000000
003FE000000001FFF0000000
003FE000000003FFE0000000
003FE000000007FFC0000000
003FE000000007FFC0000000
003FE00000000FFF80000000
003FE00000001FFF00000000
003FE00000001FFF00000000
003FE00000003FFE00000000
003FE00000007FFC00000000
003FE0000000FFF800000000
003FE0000000FFF800000000
003FE0000001FFF0000FFC00
003FE0000003FFE0001FFC00
003FE0000003FFC0001FF800
003FE0000007FFC0003FF800
003FE000000FFF80003FF800
003FE000001FFF00007FF000
003FE000001FFF00007FF000
003FE000003FFE0000FFE000
003FE000007FFC0000FFE000
003FE000007FF80000FFC000
003FE00000FFF80001FFC000
003FE00001FFF00001FF8000
003FE00003FFE00003FF8000
003FE00003FFE00003FF0000
003FE00007FFC00007FF0000
003FE0000FFF800007FE0000
003FE0000FFF00000FFE0000
003FE0001FFF00000FFC0000
003FE0003FFE00001FFC0000
003FE0007FFC00001FF80000
000000007FF800003FF80000
00000000FFF800003FF83FE0
00000001FFF000007FF03FE0
00000001FFE000007FF03FE0
00000003FFE00000FFE03FE0
00000007FFC00000FFE03FE0
0000000FFF800000FFC03FE0
0000000FFF000001FFC03FE0
0000001FFF000001FF803FE0
0000003FFE000003FF803FE0
0000003FFC000003FF003FE0
0000007FFC000007FF003FE0
000000FFF8000007FE003FE0
000001FFF0000007FFFFFFFE
000001FFE0000007FFFFFFFE
000003FFE0000007FFFFFFFE
000007FFC0000007FFFFFFFE
000007FF80000007FFFFFFFE
00000FFF80000007FFFFFFFE
00001FFF00000007FFFFFFFE
00003FFE00000007FFFFFFFE
00003FFC00000007FFFFFFFE
00007FFC0000000000003FE0
00007FF80000000000003FE0
00001FF00000000000003FE0
00000FE00000000000003FE0
000007E00000000000003FE0
000001C00000000000003FE0
000000800000000000003FE0
ENDCHAR
STARTCHAR 00BD
ENCODING 189
SWIDTH 1043 0
DWIDTH 113 0
BBX 101 79 6 0
BITMAP
00000000000000000800000000
007FE000000000000E00000000
01FFE000000000001F00000000
07FFE000000000003F80000000
0FFFE000000000003FE0000000
3FFFE000000000007FF0000000
FFFFE00000000000FFF8000000
FFFFE00000000001FFF0000000
FFFFE00000000001FFF0000000
FFFFE00000000003FFE0000000
FFFFE00000000007FFC0000000
FFBFE00000000007FFC0000000
FE3FE0000000000FFF80000000
FC3FE0000000001FFF00000000
F03FE0000000003FFE00000000
C03FE0000000003FFE00000000
803FE0000000007FFC00000000
003FE000000000FFF800000000
003FE000000000FFF000000000
003FE000000001FFF000000000
003FE000000003FFE000000000
003FE000000007FFC000000000
003FE000000007FFC000000000
003FE00000000FFF8000000000
003FE00000001FFF0000000000
003FE00000003FFE0000000000
003FE00000003FFE0000000000
003FE00000007FFC0000000000
003FE0000000FFF80000000000
003FE0000000FFF80000FF8000
003FE0000001FFF0000FFFF000
003FE0000003FFE0003FFFFC00
003FE0000007FFC0007FFFFE00
003FE0000007FFC000FFFFFF00
003FE000000FFF8001FFFFFF80
003FE000001FFF0003FFFFFFC0
003FE000001FFF0007FFFFFFE0
003FE000003FFE0007FFFFFFE0
003FE000007FFC000FFF80FFF0
003FE00000FFF8000FFE007FF0
003FE00000FFF8000FFC003FF8
003FE00001FFF0001FFC001FF8
003FE00003FFE0001FF8001FF8
003FE00003FFE0001FF8000FF8
003FE00007FFC0001FF8000FF8
003FE0000FFF80000000000FF8
003FE0001FFF00000000000FF8
003FE0001FFF00000000001FF8
003FE0003FFE00000000001FF8
003FE0007FFC00000000003FF8
000000007FF800000000003FF8
00000000FFF800000000007FF0
00000001FFF00000000000FFF0
00000003FFE00000000001FFE0
00000003FFE00000000003FFE0
00000007FFC0000000000FFFC0
0000000FFF80000000001FFF80
0000000FFF00000000003FFF00
0000001FFF00000000007FFE00
0000003FFE0000000000FFFC00
0000007FFC0000000001FFF800
0000007FFC0000000003FFE000
000000FFF80000000007FFC000
000001FFF0000000001FFF8000
000001FFE0000000003FFF0000
000003FFE0000000007FFE0000
000007FFC000000000FFFC0000
00000FFF8000000001FFF80000
00000FFF8000000003FFE00000
00001FFF0000000007FFC00000
00003FFE000000000FFFFFFFF8
00003FFC000000001FFFFFFFF8
00007FFC000000001FFFFFFFF8
00007FF8000000001FFFFFFFF8
00001FF0000000001FFFFFFFF8
00000FE0000000001FFFFFFFF8
000003E0000000001FFFFFFFF8
000001C0000000001FFFFFFFF8
00000080000000001FFFFFFFF8
ENDCHAR
STARTCHAR 00BE
ENCODING 190
SWIDTH 1043 0
DWIDTH 113 0
BBX 102 79 5 0
BITMAP
00000000000000000008000000
7FFFFFFF00000000001C000000
7FFFFFFF00000000003E000000
7FFFFFFF00000000003F800000
7FFFFFFF00000000007FC00000
7FFFFFFF0000000000FFE00000
7FFFFFFF0000000001FFF00000
7FFFFFFF0000000001FFF00000
7FFFFFFF0000000003FFE00000
7FFFFFFF0000000007FFC00000
00000FFE0000000007FFC00000
00001FFC000000000FFF800000
00007FF8000000001FFF000000
0000FFF0000000003FFE000000
0001FFE0000000003FFE000000
0003FFC0000000007FFC000000
000FFF8000000000FFF8000000
001FFF0000000000FFF0000000
003FFE0000000001FFF0000000
007FFE0000000003FFE0000000
00FFFF8000000007FFC0000000
00FFFFE000000007FFC0000000
007FFFF00000000FFF80000000
007FFFF80000001FFF00000000
003FFFFC0000001FFE00000000
001FFFFC0000003FFE00000000
001FFFFE0000007FFC00000000
00001FFE000000FFF800000000
000007FF000000FFF800000000
000003FF000001FFF000000000
000003FF000003FFE0003FF000
000001FF800003FFC0007FF000
000001FF800007FFC0007FF000
000001FF80000FFF8000FFE000
000001FF80001FFF0000FFE000
000001FF80001FFF0000FFC000
000001FF80003FFE0001FFC000
0F8001FF00007FFC0001FF8000
FF8003FF0000FFF80003FF8000
FFC007FF0000FFF80003FF0000
FFE00FFF0001FFF00007FF0000
FFF83FFE0003FFE00007FE0000
7FFFFFFE0003FFC0000FFE0000
3FFFFFFC0007FFC0000FFC0000
3FFFFFF8000FFF80001FFC0000
1FFFFFF0001FFF00001FF80000
0FFFFFE0001FFF00003FF80000
07FFFFC0003FFE00003FF80000
01FFFF00007FFC00007FF00000
007FFC00007FF800007FF00000
000FE00000FFF800007FE0FF80
0000000001FFF00000FFE0FF80
0000000003FFE00000FFC0FF80
0000000003FFE00001FFC0FF80
0000000007FFC00001FF80FF80
000000000FFF800003FF80FF80
000000000FFF000003FF00FF80
000000001FFF000007FF00FF80
000000003FFE000007FE00FF80
000000007FFC00000FFE00FF80
000000007FF800000FFC00FF80
00000000FFF800001FFC00FF80
00000001FFF000001FFC00FF80
00000001FFE000001FFFFFFFFC
00000003FFE000001FFFFFFFFC
00000007FFC000001FFFFFFFFC
0000000FFF8000001FFFFFFFFC
0000000FFF0000001FFFFFFFFC
0000001FFF0000001FFFFFFFFC
0000003FFE0000001FFFFFFFFC
0000003FFC0000001FFFFFFFFC
0000007FFC0000001FFFFFFFFC
000000FFF8000000000000FF80
000000FFF0000000000000FF80
0000003FE0000000000000FF80
0000001FE0000000000000FF80
00000007C0000000000000FF80
0000000380000000000000FF80
0000000180000000000000FF80
ENDCHAR
STARTCHAR 00BF
ENCODING 191
SWIDTH 563 0
DWIDTH 61 0
BBX 51 80 5 -21
BITMAP
00001FFFE00000
00001FFFE00000
00001FFFE00000
00001FFFE00000
00001FFFE00000
00001FFFE00000
00001FFFE00000
00001FFFE00000
00001FFFE00000
00001FFFE00000
00001FFFE00000
00001FFFE00000
00001FFFE00000
00001FFFE00000
00001FFFE00000
00001FFFE00000
00000000000000
00000000000000
00000000000000
00000000000000
00000000000000
00001FFFE00000
00001FFFE00000
00001FFFE00000
00001FFFC00000
00001FFFC00000
00001FFFC00000
00003FFFC00000
00003FFFC00000
00007FFFC00000
0000FFFF800000
0000FFFF800000
0001FFFF000000
0003FFFF000000
0007FFFF000000
000FFFFE000000
001FFFFC000000
003FFFFC000000
007FFFF8000000
00FFFFF0000000
01FFFFE0000000
01FFFFC0000000
03FFFF80000000
07FFFF00000000
07FFFE00000000
0FFFFC00000000
1FFFF800000000
1FFFF000000000
3FFFE000000000
3FFFC000000000
3FFFC000000000
7FFF8000000000
7FFF8000000000
7FFF0000000000
7FFF0000000000
7FFF0000000000
FFFF0000000000
FFFF00001FFFE0
FFFF00001FFFC0
FFFF00001FFFC0
7FFF00001FFFC0
7FFF80003FFFC0
7FFF80003FFFC0
7FFFC0007FFF80
7FFFE000FFFF80
3FFFF803FFFF80
3FFFFFFFFFFF00
1FFFFFFFFFFF00
1FFFFFFFFFFE00
0FFFFFFFFFFC00
0FFFFFFFFFFC00
07FFFFFFFFF800
03FFFFFFFFF000
01FFFFFFFFE000
00FFFFFFFFC000
007FFFFFFF8000
001FFFFFFE0000
0007FFFFF80000
0000FFFFE00000
00000FFE000000
ENDCHAR
STARTCHAR 00C0
ENCODING 192
SWIDTH 683 0
DWIDTH 74 0
BBX 70 107 2 0
BITMAP
00001FFC0000000000
00000FFE0000000000
00000FFE0000000000
000007FF0000000000
000007FF0000000000
000007FF0000000000
000003FF8000000000
000003FF8000000000
000001FFC000000000
000001FFC000000000
000000FFE000000000
000000FFE000000000
000000FFE000000000
0000007FF000000000
0000007FF000000000
0000003FF800000000
0000003FF800000000
0000001FFC00000000
0000001FFC00000000
0000001FFC00000000
0000000FFE00000000
000000000000000000
000000000000000000
000000000000000000
000000000000000000
000000000000000000
000000000000000000
000000000000000000
000000000000000000
000000FFFFFC000000
000000FFFFFC000000
000001FFFFFE000000
000001FFFFFE000000
000001FFFFFE000000
000003FFFFFF000000
000003FFFFFF000000
000003FFFFFF000000
000007FFFFFF800000
000007FFFFFF800000
000007FFFFFF800000
00000FFFFFFFC00000
00000FFFFFFFC00000
00000FFFFFFFC00000
00000FFFFFFFC00000
00001FFFEFFFE00000
00001FFFCFFFE00000
00001FFFCFFFE00000
00003FFFC7FFF00000
00003FFF87FFF00000
00003FFF87FFF00000
00007FFF87FFF80000
00007FFF03FFF80000
00007FFF03FFF80000
00007FFF03FFF80000
0000FFFF01FFFC0000
0000FFFE01FFFC0000
0000FFFE01FFFC0000
0001FFFE00FFFE0000
0001FFFC00FFFE0000
0001FFFC00FFFE0000
0003FFFC007FFF0000
0003FFF8007FFF0000
0003FFF8007FFF0000
0007FFF8007FFF8000
0007FFF0003FFF8000
0007FFF0003FFF8000
0007FFF0003FFF8000
000FFFF0001FFFC000
000FFFE0001FFFC000
000FFFE0001FFFC000
001FFFE0000FFFE000
001FFFC0000FFFE000
001FFFC0000FFFE000
003FFFC0000FFFF000
003FFF800007FFF000
003FFF800007FFF000
007FFF800007FFF800
007FFFFFFFFFFFF800
007FFFFFFFFFFFF800
007FFFFFFFFFFFF800
00FFFFFFFFFFFFFC00
00FFFFFFFFFFFFFC00
00FFFFFFFFFFFFFC00
01FFFFFFFFFFFFFE00
01FFFFFFFFFFFFFE00
01FFFFFFFFFFFFFE00
03FFFFFFFFFFFFFF00
03FFFFFFFFFFFFFF00
03FFFFFFFFFFFFFF00
03FFFFFFFFFFFFFF00
07FFFFFFFFFFFFFF80
07FFF00000003FFF80
07FFF00000003FFF80
0FFFF00000001FFFC0
0FFFE00000001FFFC0
0FFFE00000001FFFC0
1FFFE00000001FFFE0
1FFFC00000000FFFE0
1FFFC00000000FFFE0
3FFFC00000000FFFF0
3FFF8000000007FFF0
3FFF8000000007FFF0
3FFF8000000007FFF0
7FFF0000000003FFF8
7FFF0000000003FFF8
7FFF0000000003FFF8
FFFE0000000003FFFC
ENDCHAR
STARTCHAR 00C1
ENCODING 193
SWIDTH 683 0
DWIDTH 74 0
BBX 70 107 2 0
BITMAP
0000000000FFE00000
0000000001FFC00000
0000000001FFC00000
0000000003FF800000
0000000003FF800000
0000000003FF800000
0000000007FF000000
0000000007FF000000
000000000FFE000000
000000000FFE000000
000000001FFC000000
000000001FFC000000
000000001FFC000000
000000003FF8000000
000000003FF8000000
000000007FF0000000
000000007FF0000000
00000000FFE0000000
00000000FFE0000000
00000000FFE0000000
00000001FFC0000000
000000000000000000
000000000000000000
000000000000000000
000000000000000000
000000000000000000
000000000000000000
000000000000000000
000000000000000000
000000FFFFFC000000
000000FFFFFC000000
000001FFFFFE000000
000001FFFFFE000000
000001FFFFFE000000
000003FFFFFF000000
000003FFFFFF000000
000003FFFFFF000000
000007FFFFFF800000
000007FFFFFF800000
000007FFFFFF800000
00000FFFFFFFC00000
00000FFFFFFFC00000
00000FFFFFFFC00000
00000FFFFFFFC00000
00001FFFDFFFE00000
00001FFFCFFFE00000
00001FFFCFFFE00000
00003FFF8FFFF00000
00003FFF87FFF00000
00003FFF87FFF00000
00007FFF07FFF80000
00007FFF07FFF80000
00007FFF03FFF80000
00007FFF03FFF80000
0000FFFE03FFFC0000
0000FFFE01FFFC0000
0000FFFE01FFFC0000
0001FFFC01FFFE0000
0001FFFC00FFFE0000
0001FFFC00FFFE0000
0003FFF800FFFF0000
0003FFF8007FFF0000
0003FFF8007FFF0000
0007FFF8007FFF8000
0007FFF0003FFF8000
0007FFF0003FFF8000
0007FFF0003FFF8000
000FFFE0003FFFC000
000FFFE0001FFFC000
000FFFE0001FFFC000
001FFFC0001FFFE000
001FFFC0000FFFE000
001FFFC0000FFFE000
003FFF80000FFFF000
003FFF800007FFF000
003FFF800007FFF000
007FFF800007FFF800
007FFFFFFFFFFFF800
007FFFFFFFFFFFF800
007FFFFFFFFFFFF800
00FFFFFFFFFFFFFC00
00FFFFFFFFFFFFFC00
00FFFFFFFFFFFFFC00
01FFFFFFFFFFFFFE00
01FFFFFFFFFFFFFE00
01FFFFFFFFFFFFFE00
03FFFFFFFFFFFFFF00
03FFFFFFFFFFFFFF00
03FFFFFFFFFFFFFF00
03FFFFFFFFFFFFFF00
07FFFFFFFFFFFFFF80
07FFF00000003FFF80
07FFF00000003FFF80
0FFFE00000003FFFC0
0FFFE00000001FFFC0
0FFFE00000001FFFC0
1FFFE00000001FFFE0
1FFFC00000000FFFE0
1FFFC00000000FFFE0
3FFFC00000000FFFF0
3FFF8000000007FFF0
3FFF8000000007FFF0
3FFF8000000007FFF0
7FFF0000000003FFF8
7FFF0000000003FFF8
7FFF0000000003FFF8
FFFE0000000003FFFC
ENDCHAR
STARTCHAR 00C2
ENCODING 194
SWIDTH 683 0
DWIDTH 74 0
BBX 70 104 2 0
BITMAP
0000000FFF80000000
0000001FFFC0000000
0000001FFFE0000000
0000003FFFF0000000
0000007FFFF8000000
000000FFFFFC000000
000001FFFFFE000000
000003FFFFFE000000
000007FFFFFF000000
00000FFFCFFF800000
00000FFF87FFC00000
00001FFF03FFE00000
00003FFE03FFF00000
00007FFC01FFF80000
0000FFFC00FFFC0000
0001FFF8007FFC0000
0003FFF0003FFE0000
0007FFE0001FFF0000
000000000000000000
000000000000000000
000000000000000000
000000000000000000
000000000000000000
000000000000000000
000000000000000000
000000000000000000
000000FFFFFC000000
000000FFFFFC000000
000001FFFFFE000000
000001FFFFFE000000
000001FFFFFE000000
000003FFFFFF000000
000003FFFFFF000000
000003FFFFFF000000
000007FFFFFF800000
000007FFFFFF800000
000007FFFFFF800000
00000FFFFFFFC00000
00000FFFFFFFC00000
00000FFFFFFFC00000
00000FFFFFFFC00000
00001FFFDFFFE00000
00001FFFCFFFE00000
00001FFFCFFFE00000
00003FFF8FFFF00000
00003FFF87FFF00000
00003FFF87FFF00000
00007FFF07FFF80000
00007FFF07FFF80000
00007FFF03FFF80000
00007FFF03FFF80000
0000FFFE03FFFC0000
0000FFFE01FFFC0000
0000FFFE01FFFC0000
0001FFFC01FFFE0000
0001FFFC00FFFE0000
0001FFFC00FFFE0000
0003FFF800FFFF0000
0003FFF8007FFF0000
0003FFF8007FFF0000
0007FFF8007FFF8000
0007FFF0003FFF8000
0007FFF0003FFF8000
0007FFF0003FFF8000
000FFFE0003FFFC000
000FFFE0001FFFC000
000FFFE0001FFFC000
001FFFC0001FFFE000
001FFFC0000FFFE000
001FFFC0000FFFE000
003FFF80000FFFF000
003FFF800007FFF000
003FFF800007FFF000
007FFF800007FFF800
007FFFFFFFFFFFF800
007FFFFFFFFFFFF800
007FFFFFFFFFFFF800
00FFFFFFFFFFFFFC00
00FFFFFFFFFFFFFC00
00FFFFFFFFFFFFFC00
01FFFFFFFFFFFFFE00
01FFFFFFFFFFFFFE00
01FFFFFFFFFFFFFE00
03FFFFFFFFFFFFFF00
03FFFFFFFFFFFFFF00
03FFFFFFFFFFFFFF00
03FFFFFFFFFFFFFF00
07FFFFFFFFFFFFFF80
07FFF00000003FFF80
07FFF00000003FFF80
0FFFE00000003FFFC0
0FFFE00000001FFFC0
0FFFE00000001FFFC0
1FFFE00000001FFFE0
1FFFC00000000FFFE0
1FFFC00000000FFFE0
3FFFC00000000FFFF0
3FFF8000000007FFF0
3FFF8000000007FFF0
3FFF8000000007FFF0
7FFF0000000003FFF8
7FFF0000000003FFF8
7FFF0000000003FFF8
FFFE0000000003FFFC
ENDCHAR
STARTCHAR 00C3
ENCODING 195
SWIDTH 683 0
DWIDTH 74 0
BBX 70 108 2 0
BITMAP
000000400000000000
000007FC0000000000
00001FFF0007FC0000
00003FFFC007FE0000
00007FFFE007FE0000
0000FFFFF807FE0000
0000FFFFFC07FE0000
0000FFFFFF07FE0000
0001FFFFFFFFFE0000
0001FFFFFFFFFE0000
0001FFFFFFFFFE0000
0001FFC7FFFFFE0000
0001FF81FFFFFC0000
0001FF807FFFFC0000
0001FF803FFFF80000
0001FF801FFFF80000
0000FF8007FFF00000
0000000001FFC00000
00000000007F000000
000000000000000000
000000000000000000
000000000000000000
000000000000000000
000000000000000000
000000000000000000
000000000000000000
000000000000000000
000000000000000000
000000000000000000
000000000000000000
000000FFFFFC000000
000000FFFFFC000000
000001FFFFFE000000
000001FFFFFE000000
000001FFFFFE000000
000003FFFFFF000000
000003FFFFFF000000
000003FFFFFF000000
000007FFFFFF800000
000007FFFFFF800000
000007FFFFFF800000
00000FFFFFFFC00000
00000FFFFFFFC00000
00000FFFFFFFC00000
00000FFFFFFFC00000
00001FFFDFFFE00000
00001FFFCFFFE00000
00001FFFCFFFE00000
00003FFF8FFFF00000
00003FFF87FFF00000
00003FFF87FFF00000
00007FFF07FFF80000
00007FFF07FFF80000
00007FFF03FFF80000
00007FFF03FFF80000
0000FFFE03FFFC0000
0000FFFE01FFFC0000
0000FFFE01FFFC0000
0001FFFC01FFFE0000
0001FFFC00FFFE0000
0001FFFC00FFFE0000
0003FFF800FFFF0000
0003FFF8007FFF0000
0003FFF8007FFF0000
0007FFF8007FFF8000
0007FFF0003FFF8000
0007FFF0003FFF8000
0007FFF0003FFF8000
000FFFE0003FFFC000
000FFFE0001FFFC000
000FFFE0001FFFC000
001FFFC0001FFFE000
001FFFC0000FFFE000
001FFFC0000FFFE000
003FFF80000FFFF000
003FFF800007FFF000
003FFF800007FFF000
007FFF800007FFF800
007FFFFFFFFFFFF800
007FFFFFFFFFFFF800
007FFFFFFFFFFFF800
00FFFFFFFFFFFFFC00
00FFFFFFFFFFFFFC00
00FFFFFFFFFFFFFC00
01FFFFFFFFFFFFFE00
01FFFFFFFFFFFFFE00
01FFFFFFFFFFFFFE00
03FFFFFFFFFFFFFF00
03FFFFFFFFFFFFFF00
03FFFFFFFFFFFFFF00
03FFFFFFFFFFFFFF00
07FFFFFFFFFFFFFF80
07FFF00000003FFF80
07FFF00000003FFF80
0FFFE00000003FFFC0
0FFFE00000001FFFC0
0FFFE00000001FFFC0
1FFFE00000001FFFE0
1FFFC00000000FFFE0
1FFFC00000000FFFE0
3FFFC00000000FFFF0
3FFF8000000007FFF0
3FFF8000000007FFF0
3FFF8000000007FFF0
7FFF0000000003FFF8
7FFF0000000003FFF8
7FFF0000000003FFF8
FFFE0000000003FFFC
ENDCHAR
STARTCHAR 00C4
ENCODING 196
SWIDTH 683 0
DWIDTH 74 0
BBX 70 99 2 0
BITMAP
00007FFC00FFF80000
00007FFC00FFF80000
00007FFC00FFF80000
00007FFC00FFF80000
00007FFC00FFF80000
00007FFC00FFF80000
00007FFC00FFF80000
00007FFC00FFF80000
00007FFC00FFF80000
00007FFC00FFF80000
00007FFC00FFF80000
00007FFC00FFF80000
00007FFC00FFF80000
000000000000000000
000000000000000000
000000000000000000
000000000000000000
000000000000000000
000000000000000000
000000000000000000
000000000000000000
000000FFFFFC000000
000000FFFFFC000000
000001FFFFFE000000
000001FFFFFE000000
000001FFFFFE000000
000003FFFFFF000000
000003FFFFFF000000
000003FFFFFF000000
000007FFFFFF800000
000007FFFFFF800000
000007FFFFFF800000
00000FFFFFFFC00000
00000FFFFFFFC00000
00000FFFFFFFC00000
00000FFFFFFFC00000
00001FFFDFFFE00000
00001FFFCFFFE00000
00001FFFCFFFE00000
00003FFF8FFFF00000
00003FFF87FFF00000
00003FFF87FFF00000
00007FFF07FFF80000
00007FFF07FFF80000
00007FFF03FFF80000
00007FFF03FFF80000
0000FFFE03FFFC0000
0000FFFE01FFFC0000
0000FFFE01FFFC0000
0001FFFC01FFFE0000
0001FFFC00FFFE0000
0001FFFC00FFFE0000
0003FFF800FFFF0000
0003FFF8007FFF0000
0003FFF8007FFF0000
0007FFF8007FFF8000
0007FFF0003FFF8000
0007FFF0003FFF8000
0007FFF0003FFF8000
000FFFE0003FFFC000
000FFFE0001FFFC000
000FFFE0001FFFC000
001FFFC0001FFFE000
001FFFC0000FFFE000
001FFFC0000FFFE000
003FFF80000FFFF000
003FFF800007FFF000
003FFF800007FFF000
007FFF800007FFF800
007FFFFFFFFFFFF800
007FFFFFFFFFFFF800
007FFFFFFFFFFFF800
00FFFFFFFFFFFFFC00
00FFFFFFFFFFFFFC00
00FFFFFFFFFFFFFC00
01FFFFFFFFFFFFFE00
01FFFFFFFFFFFFFE00
01FFFFFFFFFFFFFE00
03FFFFFFFFFFFFFF00
03FFFFFFFFFFFFFF00
03FFFFFFFFFFFFFF00
03FFFFFFFFFFFFFF00
07FFFFFFFFFFFFFF80
07FFF00000003FFF80
07FFF00000003FFF80
0FFFE00000003FFFC0
0FFFE00000001FFFC0
0FFFE00000001FFFC0
1FFFE00000001FFFE0
1FFFC00000000FFFE0
1FFFC00000000FFFE0
3FFFC00000000FFFF0
3FFF8000000007FFF0
3FFF8000000007FFF0
3FFF8000000007FFF0
7FFF0000000003FFF8
7FFF0000000003FFF8
7FFF0000000003FFF8
FFFE0000000003FFFC
ENDCHAR
STARTCHAR 00C5
ENCODING 197
SWIDTH 683 0
DWIDTH 74 0
BBX 70 113 2 0
BITMAP
00000001FE00000000
00000007FF80000000
0000001FFFE0000000
0000003FFFF8000000
000000FFFFFC000000
000000FFFFFC000000
000001FFFFFE000000
000003FFFFFF000000
000003FFFFFF000000
000007FF03FF800000
000007FE01FF800000
000007FC00FF800000
000007F8007FC00000
00000FF8007FC00000
00000FF8007FC00000
00000FF8007FC00000
000007FC007FC00000
000007FC00FF800000
000007FE01FF800000
000007FF03FF800000
000003FFFFFF000000
000003FFFFFF000000
000001FFFFFE000000
000000FFFFFC000000
0000007FFFFC000000
0000003FFFF8000000
0000001FFFE0000000
00000007FFC0000000
00000001FE00000000
000000000000000000
000000000000000000
000000000000000000
000000000000000000
000000000000000000
000000000000000000
000000FFFFFC000000
000000FFFFFC000000
000001FFFFFE000000
000001FFFFFE000000
000001FFFFFE000000
000003FFFFFF000000
000003FFFFFF000000
000003FFFFFF000000
000007FFFFFF800000
000007FFFFFF800000
000007FFFFFF800000
00000FFFFFFFC00000
00000FFFFFFFC00000
00000FFFFFFFC00000
00000FFFFFFFC00000
00001FFFDFFFE00000
00001FFFCFFFE00000
00001FFFCFFFE00000
00003FFF8FFFF00000
00003FFF87FFF00000
00003FFF87FFF00000
00007FFF07FFF80000
00007FFF07FFF80000
00007FFF03FFF80000
00007FFF03FFF80000
0000FFFE03FFFC0000
0000FFFE01FFFC0000
0000FFFE01FFFC0000
0001FFFC01FFFE0000
0001FFFC00FFFE0000
0001FFFC00FFFE0000
0003FFF800FFFF0000
0003FFF8007FFF0000
0003FFF8007FFF0000
0007FFF8007FFF8000
0007FFF0003FFF8000
0007FFF0003FFF8000
0007FFF0003FFF8000
000FFFE0003FFFC000
000FFFE0001FFFC000
000FFFE0001FFFC000
001FFFC0001FFFE000
001FFFC0000FFFE000
001FFFC0000FFFE000
003FFF80000FFFF000
003FFF800007FFF000
003FFF800007FFF000
007FFF800007FFF800
007FFFFFFFFFFFF800
007FFFFFFFFFFFF800
007FFFFFFFFFFFF800
00FFFFFFFFFFFFFC00
00FFFFFFFFFFFFFC00
00FFFFFFFFFFFFFC00
01FFFFFFFFFFFFFE00
01FFFFFFFFFFFFFE00
01FFFFFFFFFFFFFE00
03FFFFFFFFFFFFFF00
03FFFFFFFFFFFFFF00
03FFFFFFFFFFFFFF00
03FFFFFFFFFFFFFF00
07FFFFFFFFFFFFFF80
07FFF00000003FFF80
07FFF00000003FFF80
0FFFE00000003FFFC0
0FFFE00000001FFFC0
0FFFE00000001FFFC0
1FFFE00000001FFFE0
1FFFC00000000FFFE0
1FFFC00000000FFFE0
3FFFC00000000FFFF0
3FFF8000000007FFF0
3FFF8000000007FFF0
3FFF8000000007FFF0
7FFF0000000003FFF8
7FFF0000000003FFF8
7FFF0000000003FFF8
FFFE0000000003FFFC
ENDCHAR
STARTCHAR 00C6
ENCODING 198
SWIDTH 941 0
DWIDTH 102 0
BBX 95 78 2 0
BITMAP
000000FFFFFFFFFFFFFFFFFE
000000FFFFFFFFFFFFFFFFFE
000001FFFFFFFFFFFFFFFFFE
000001FFFFFFFFFFFFFFFFFE
000001FFFFFFFFFFFFFFFFFE
000003FFFFFFFFFFFFFFFFFE
000003FFFFFFFFFFFFFFFFFE
000003FFFFFFFFFFFFFFFFFE
000007FFFFFFFFFFFFFFFFFE
000007FFFFFFFFFFFFFFFFFE
000007FFFFFFFFFFFFFFFFFE
00000FFFFFFFFFFFFFFFFFFE
00000FFFFFFFFFFFFFFFFFFE
00000FFFFFFFFFFFFFFFFFFE
00000FFFE00FFFE000000000
00001FFFC00FFFE000000000
00001FFFC00FFFE000000000
00001FFFC00FFFE000000000
00003FFF800FFFE000000000
00003FFF800FFFE000000000
00003FFF800FFFE000000000
00007FFF000FFFE000000000
00007FFF000FFFE000000000
00007FFF000FFFE000000000
00007FFF000FFFE000000000
0000FFFE000FFFE000000000
0000FFFE000FFFE000000000
0000FFFE000FFFE000000000
0001FFFC000FFFE000000000
0001FFFC000FFFE000000000
0001FFFC000FFFFFFFFFFF00
0003FFF8000FFFFFFFFFFF00
0003FFF8000FFFFFFFFFFF00
0003FFF8000FFFFFFFFFFF00
0007FFF8000FFFFFFFFFFF00
0007FFF0000FFFFFFFFFFF00
0007FFF0000FFFFFFFFFFF00
0007FFF0000FFFFFFFFFFF00
000FFFE0000FFFFFFFFFFF00
000FFFE0000FFFFFFFFFFF00
000FFFE0000FFFFFFFFFFF00
001FFFC0000FFFFFFFFFFF00
001FFFC0000FFFFFFFFFFF00
001FFFC0000FFFFFFFFFFF00
003FFF80000FFFE000000000
003FFF80000FFFE000000000
003FFF80000FFFE000000000
007FFF80000FFFE000000000
007FFFFFFFFFFFE000000000
007FFFFFFFFFFFE000000000
007FFFFFFFFFFFE000000000
00FFFFFFFFFFFFE000000000
00FFFFFFFFFFFFE000000000
00FFFFFFFFFFFFE000000000
01FFFFFFFFFFFFE000000000
01FFFFFFFFFFFFE000000000
01FFFFFFFFFFFFE000000000
03FFFFFFFFFFFFE000000000
03FFFFFFFFFFFFE000000000
03FFFFFFFFFFFFE000000000
03FFFFFFFFFFFFE000000000
07FFFFFFFFFFFFE000000000
07FFF000000FFFE000000000
07FFF000000FFFE000000000
0FFFE000000FFFFFFFFFFFFE
0FFFE000000FFFFFFFFFFFFE
0FFFE000000FFFFFFFFFFFFE
1FFFE000000FFFFFFFFFFFFE
1FFFC000000FFFFFFFFFFFFE
1FFFC000000FFFFFFFFFFFFE
3FFFC000000FFFFFFFFFFFFE
3FFF8000000FFFFFFFFFFFFE
3FFF8000000FFFFFFFFFFFFE
3FFF8000000FFFFFFFFFFFFE
7FFF0000000FFFFFFFFFFFFE
7FFF0000000FFFFFFFFFFFFE
7FFF0000000FFFFFFFFFFFFE
FFFE0000000FFFFFFFFFFFFE
ENDCHAR
STARTCHAR 00C7
ENCODING 199
SWIDTH 747 0
DWIDTH 81 0
BBX 73 106 3 -26
BITMAP
00000001FFF800000000
0000003FFFFFC0000000
000001FFFFFFF8000000
000007FFFFFFFE000000
00001FFFFFFFFF800000
00007FFFFFFFFFE00000
0000FFFFFFFFFFF00000
0003FFFFFFFFFFFC0000
0007FFFFFFFFFFFE0000
000FFFFFFFFFFFFF0000
001FFFFFFFFFFFFF8000
003FFFFFFFFFFFFFC000
007FFFFFFFFFFFFFE000
00FFFFFFFFFFFFFFF000
00FFFFFF000FFFFFF000
01FFFFF80001FFFFF800
03FFFFE000007FFFFC00
03FFFF8000001FFFFC00
07FFFF0000000FFFFE00
07FFFE00000007FFFE00
0FFFFC00000003FFFF00
0FFFF800000001FFFF00
1FFFF000000000FFFF80
1FFFF000000000FFFF80
1FFFE0000000007FFF80
3FFFE0000000007FFE00
3FFFC0000000003FE000
3FFFC0000000003E0000
3FFF8000000000100000
7FFF8000000000000000
7FFF8000000000000000
7FFF8000000000000000
7FFF0000000000000000
7FFF0000000000000000
7FFF0000000000000000
FFFF0000000000000000
FFFF0000000000000000
FFFF0000000000000000
FFFF0000000000000000
FFFF0000000000000000
FFFF0000000000000000
FFFF0000000000000000
FFFF0000000000000000
FFFF0000000000000000
FFFF0000000000000000
FFFF0000000000000000
FFFF0000000000000000
7FFF0000000000000000
7FFF0000000000000000
7FFF8000000000000000
7FFF8000000000000000
7FFF8000000000000000
3FFF8000000000000000
3FFFC0000000003E0000
3FFFC0000000003FC000
3FFFE0000000007FFC00
1FFFE0000000007FFF80
1FFFF000000000FFFF80
1FFFF000000000FFFF80
0FFFF800000001FFFF00
0FFFFC00000003FFFF00
07FFFE00000007FFFE00
07FFFF0000000FFFFE00
03FFFF8000001FFFFC00
03FFFFC000003FFFFC00
01FFFFF00000FFFFF800
00FFFFFE0007FFFFF800
00FFFFFFFFFFFFFFF000
007FFFFFFFFFFFFFE000
003FFFFFFFFFFFFFC000
001FFFFFFFFFFFFF8000
000FFFFFFFFFFFFF0000
0007FFFFFFFFFFFE0000
0003FFFFFFFFFFFC0000
0001FFFFFFFFFFF80000
00007FFFFFFFFFE00000
00001FFFFFFFFF800000
000007FFFFFFFF000000
000001FFFFFFF8000000
0000003FFFFFC0000000
00000003FFFC00000000
000000003FC000000000
000000003FC000000000
000000007FC000000000
000000007FF000000000
000000007FF800000000
00000000FFFC00000000
00000000FFFE00000000
00000000FFFE00000000
000000003FFF00000000
000000000FFF00000000
0000000003FF00000000
0000000003FF00000000
0000000003FF00000000
0000000003FF00000000
0000000087FF00000000
00000000FFFF00000000
00000001FFFF00000000
00000001FFFF00000000
00000001FFFE00000000
00000003FFFE00000000
00000003FFFC00000000
00000003FFF800000000
00000007FFF000000000
00000003FFC000000000
000000003F0000000000
ENDCHAR
STARTCHAR 00C8
ENCODING 200
SWIDTH 590 0
DWIDTH 64 0
BBX 51 107 8 0
BITMAP
000FFE00000000
000FFE00000000
0007FF00000000
0007FF00000000
0007FF00000000
0003FF80000000
0003FF80000000
0001FFC0000000
0001FFC0000000
0000FFE0000000
0000FFE0000000
0000FFE0000000
00007FF0000000
00007FF0000000
00003FF8000000
00003FF8000000
00001FFC000000
00001FFC000000
00001FFC000000
00000FFE000000
00000FFE000000
00000000000000
00000000000000
00000000000000
00000000000000
00000000000000
00000000000000
00000000000000
00000000000000
FFFFFFFFFFFFE0
FFFFFFFFFFFFE0
FFFFFFFFFFFFE0
FFFFFFFFFFFFE0
FFFFFFFFFFFFE0
FFFFFFFFFFFFE0
FFFFFFFFFFFFE0
FFFFFFFFFFFFE0
FFFFFFFFFFFFE0
FFFFFFFFFFFFE0
FFFFFFFFFFFFE0
FFFFFFFFFFFFE0
FFFFFFFFFFFFE0
FFFFFFFFFFFFE0
FFFC0000000000
FFFC0000000000
FFFC0000000000
FFFC0000000000
FFFC0000000000
FFFC0000000000
FFFC0000000000
FFFC0000000000
FFFC0000000000
FFFC0000000000
FFFC0000000000
FFFC0000000000
FFFC0000000000
FFFC0000000000
FFFC0000000000
FFFC0000000000
FFFFFFFFFFF000
FFFFFFFFFFF000
FFFFFFFFFFF000
FFFFFFFFFFF000
FFFFFFFFFFF000
FFFFFFFFFFF000
FFFFFFFFFFF000
FFFFFFFFFFF000
FFFFFFFFFFF000
FFFFFFFFFFF000
FFFFFFFFFFF000
FFFFFFFFFFF000
FFFFFFFFFFF000
FFFFFFFFFFF000
FFFC0000000000
FFFC0000000000
FFFC0000000000
FFFC0000000000
FFFC0000000000
FFFC0000000000
FFFC0000000000
FFFC0000000000
FFFC0000000000
FFFC0000000000
FFFC0000000000
FFFC0000000000
FFFC0000000000
FFFC0000000000
FFFC0000000000
FFFC0000000000
FFFC0000000000
FFFC0000000000
FFFC0000000000
FFFC0000000000
FFFFFFFFFFFFE0
FFFFFFFFFFFFE0
FFFFFFFFFFFFE0
FFFFFFFFFFFFE0
FFFFFFFFFFFFE0
FFFFFFFFFFFFE0
FFFFFFFFFFFFE0
FFFFFFFFFFFFE0
FFFFFFFFFFFFE0
FFFFFFFFFFFFE0
FFFFFFFFFFFFE0
FFFFFFFFFFFFE0
FFFFFFFFFFFFE0
FFFFFFFFFFFFE0
ENDCHAR
STARTCHAR 00C9
ENCODING 201
SWIDTH 590 0
DWIDTH 64 0
BBX 51 107 8 0
BITMAP
00000003FF8000
00000007FF0000
00000007FF0000
0000000FFE0000
0000000FFE0000
0000000FFE0000
0000001FFC0000
0000001FFC0000
0000003FF80000
0000003FF80000
0000003FF00000
0000007FF00000
0000007FF00000
000000FFE00000
000000FFE00000
000001FFC00000
000001FFC00000
000001FF800000
000003FF800000
000003FF800000
000007FF000000
00000000000000
00000000000000
00000000000000
00000000000000
00000000000000
00000000000000
00000000000000
00000000000000
FFFFFFFFFFFFE0
FFFFFFFFFFFFE0
FFFFFFFFFFFFE0
FFFFFFFFFFFFE0
FFFFFFFFFFFFE0
FFFFFFFFFFFFE0
FFFFFFFFFFFFE0
FFFFFFFFFFFFE0
FFFFFFFFFFFFE0
FFFFFFFFFFFFE0
FFFFFFFFFFFFE0
FFFFFFFFFFFFE0
FFFFFFFFFFFFE0
FFFFFFFFFFFFE0
FFFC0000000000
FFFC0000000000
FFFC0000000000
FFFC0000000000
FFFC0000000000
FFFC0000000000
FFFC0000000000
FFFC0000000000
FFFC0000000000
FFFC0000000000
FFFC0000000000
FFFC0000000000
FFFC0000000000
FFFC0000000000
FFFC0000000000
FFFC0000000000
FFFFFFFFFFF000
FFFFFFFFFFF000
FFFFFFFFFFF000
FFFFFFFFFFF000
FFFFFFFFFFF000
FFFFFFFFFFF000
FFFFFFFFFFF000
FFFFFFFFFFF000
FFFFFFFFFFF000
FFFFFFFFFFF000
FFFFFFFFFFF000
FFFFFFFFFFF000
FFFFFFFFFFF000
FFFFFFFFFFF000
FFFC0000000000
FFFC0000000000
FFFC0000000000
FFFC0000000000
FFFC0000000000
FFFC0000000000
FFFC0000000000
FFFC0000000000
FFFC0000000000
FFFC0000000000
FFFC0000000000
FFFC0000000000
FFFC0000000000
FFFC0000000000
FFFC0000000000
FFFC0000000000
FFFC0000000000
FFFC0000000000
FFFC0000000000
FFFC0000000000
FFFFFFFFFFFFE0
FFFFFFFFFFFFE0
FFFFFFFFFFFFE0
FFFFFFFFFFFFE0
FFFFFFFFFFFFE0
FFFFFFFFFFFFE0
FFFFFFFFFFFFE0
FFFFFFFFFFFFE0
FFFFFFFFFFFFE0
FFFFFFFFFFFFE0
FFFFFFFFFFFFE0
FFFFFFFFFFFFE0
FFFFFFFFFFFFE0
FFFFFFFFFFFFE0
ENDCHAR
STARTCHAR 00CA
ENCODING 202
SWIDTH 590 0
DWIDTH 64 0
BBX 51 104 8 0
BITMAP
00003FFE000000
00007FFF000000
0000FFFF800000
0001FFFF800000
0003FFFFC00000
0007FFFFE00000
0007FFFFF00000
000FFFFFF80000
001FFF7FFC0000
003FFE7FFE0000
007FFC3FFF0000
00FFF81FFF0000
01FFF80FFF8000
03FFF007FFC000
03FFE003FFE000
07FFC003FFF000
0FFF8001FFF800
1FFF0000FFFC00
00000000000000
00000000000000
00000000000000
00000000000000
00000000000000
00000000000000
00000000000000
00000000000000
FFFFFFFFFFFFE0
FFFFFFFFFFFFE0
FFFFFFFFFFFFE0
FFFFFFFFFFFFE0
FFFFFFFFFFFFE0
FFFFFFFFFFFFE0
FFFFFFFFFFFFE0
FFFFFFFFFFFFE0
FFFFFFFFFFFFE0
FFFFFFFFFFFFE0
FFFFFFFFFFFFE0
FFFFFFFFFFFFE0
FFFFFFFFFFFFE0
FFFFFFFFFFFFE0
FFFC0000000000
FFFC0000000000
FFFC0000000000
FFFC0000000000
FFFC0000000000
FFFC0000000000
FFFC0000000000
FFFC0000000000
FFFC0000000000
FFFC0000000000
FFFC0000000000
FFFC0000000000
FFFC0000000000
FFFC0000000000
FFFC0000000000
FFFC0000000000
FFFFFFFFFFF000
FFFFFFFFFFF000
FFFFFFFFFFF000
FFFFFFFFFFF000
FFFFFFFFFFF000
FFFFFFFFFFF000
FFFFFFFFFFF000
FFFFFFFFFFF000
FFFFFFFFFFF000
FFFFFFFFFFF000
FFFFFFFFFFF000
FFFFFFFFFFF000
FFFFFFFFFFF000
FFFFFFFFFFF000
FFFC0000000000
FFFC0000000000
FFFC0000000000
FFFC0000000000
FFFC0000000000
FFFC0000000000
FFFC0000000000
FFFC0000000000
FFFC0000000000
FFFC0000000000
FFFC0000000000
FFFC0000000000
FFFC0000000000
FFFC0000000000
FFFC0000000000
FFFC0000000000
FFFC0000000000
FFFC0000000000
FFFC0000000000
FFFC0000000000
FFFFFFFFFFFFE0
FFFFFFFFFFFFE0
FFFFFFFFFFFFE0
FFFFFFFFFFFFE0
FFFFFFFFFFFFE0
FFFFFFFFFFFFE0
FFFFFFFFFFFFE0
FFFFFFFFFFFFE0
FFFFFFFFFFFFE0
FFFFFFFFFFFFE0
FFFFFFFFFFFFE0
FFFFFFFFFFFFE0
FFFFFFFFFFFFE0
FFFFFFFFFFFFE0
ENDCHAR
STARTCHAR 00CB
ENCODING 203
SWIDTH 590 0
DWIDTH 64 0
BBX 51 99 8 0
BITMAP
01FFF003FFE000
01FFF003FFE000
01FFF003FFE000
01FFF003FFE000
01FFF003FFE000
01FFF003FFE000
01FFF003FFE000
01FFF003FFE000
01FFF003FFE000
01FFF003FFE000
01FFF003FFE000
01FFF003FFE000
01FFF003FFE000
00000000000000
00000000000000
00000000000000
00000000000000
00000000000000
00000000000000
00000000000000
00000000000000
FFFFFFFFFFFFE0
FFFFFFFFFFFFE0
FFFFFFFFFFFFE0
FFFFFFFFFFFFE0
FFFFFFFFFFFFE0
FFFFFFFFFFFFE0
FFFFFFFFFFFFE0
FFFFFFFFFFFFE0
FFFFFFFFFFFFE0
FFFFFFFFFFFFE0
FFFFFFFFFFFFE0
FFFFFFFFFFFFE0
FFFFFFFFFFFFE0
FFFFFFFFFFFFE0
FFFC0000000000
FFFC0000000000
FFFC0000000000
FFFC0000000000
FFFC0000000000
FFFC0000000000
FFFC0000000000
FFFC0000000000
FFFC0000000000
FFFC0000000000
FFFC0000000000
FFFC0000000000
FFFC0000000000
FFFC0000000000
FFFC0000000000
FFFC0000000000
FFFFFFFFFFF000
FFFFFFFFFFF000
FFFFFFFFFFF000
FFFFFFFFFFF000
FFFFFFFFFFF000
FFFFFFFFFFF000
FFFFFFFFFFF000
FFFFFFFFFFF000
FFFFFFFFFFF000
FFFFFFFFFFF000
FFFFFFFFFFF000
FFFFFFFFFFF000
FFFFFFFFFFF000
FFFFFFFFFFF000
FFFC0000000000
FFFC0000000000
FFFC0000000000
FFFC0000000000
FFFC0000000000
FFFC0000000000
FFFC0000000000
FFFC0000000000
FFFC0000000000
FFFC0000000000
FFFC0000000000
FFFC0000000000
FFFC0000000000
FFFC0000000000
FFFC0000000000
FFFC0000000000
FFFC0000000000
FFFC0000000000
FFFC0000000000
FFFC0000000000
FFFFFFFFFFFFE0
FFFFFFFFFFFFE0
FFFFFFFFFFFFE0
FFFFFFFFFFFFE0
FFFFFFFFFFFFE0
FFFFFFFFFFFFE0
FFFFFFFFFFFFE0
FFFFFFFFFFFFE0
FFFFFFFFFFFFE0
FFFFFFFFFFFFE0
FFFFFFFFFFFFE0
FFFFFFFFFFFFE0
FFFFFFFFFFFFE0
FFFFFFFFFFFFE0
ENDCHAR
STARTCHAR 00CC
ENCODING 204
SWIDTH 295 0
DWIDTH 32 0
BBX 21 107 2 0
BITMAP
FFE000
FFE000
FFE000
7FF000
7FF000
3FF800
3FF800
1FFC00
1FFC00
1FFC00
0FFE00
0FFE00
07FF00
07FF00
03FF80
03FF80
03FF80
01FFC0
01FFC0
00FFE0
00FFE0
000000
000000
000000
000000
000000
000000
000000
000000
01FFF8
01FFF8
01FFF8
01FFF8
01FFF8
01FFF8
01FFF8
01FFF8
01FFF8
01FFF8
01FFF8
01FFF8
01FFF8
01FFF8
01FFF8
01FFF8
01FFF8
01FFF8
01FFF8
01FFF8
01FFF8
01FFF8
01FFF8
01FFF8
01FFF8
01FFF8
01FFF8
01FFF8
01FFF8
01FFF8
01FFF8
01FFF8
01FFF8
01FFF8
01FFF8
01FFF8
01FFF8
01FFF8
01FFF8
01FFF8
01FFF8
01FFF8
01FFF8
01FFF8
01FFF8
01FFF8
01FFF8
01FFF8
01FFF8
01FFF8
01FFF8
01FFF8
01FFF8
01FFF8
01FFF8
01FFF8
01FFF8
01FFF8
01FFF8
01FFF8
01FFF8
01FFF8
01FFF8
01FFF8
01FFF8
01FFF8
01FFF8
01FFF8
01FFF8
01FFF8
01FFF8
01FFF8
01FFF8
01FFF8
01FFF8
01FFF8
01FFF8
01FFF8
ENDCHAR
STARTCHAR 00CD
ENCODING 205
SWIDTH 295 0
DWIDTH 32 0
BBX 21 107 9 0
BITMAP
003FF8
003FF8
003FF8
007FF0
007FF0
00FFE0
00FFE0
00FFC0
01FFC0
01FFC0
03FF80
03FF80
07FF00
07FF00
07FE00
0FFE00
0FFE00
1FFC00
1FFC00
3FF800
3FF800
000000
000000
000000
000000
000000
000000
000000
000000
FFFC00
FFFC00
FFFC00
FFFC00
FFFC00
FFFC00
FFFC00
FFFC00
FFFC00
FFFC00
FFFC00
FFFC00
FFFC00
FFFC00
FFFC00
FFFC00
FFFC00
FFFC00
FFFC00
FFFC00
FFFC00
FFFC00
FFFC00
FFFC00
FFFC00
FFFC00
FFFC00
FFFC00
FFFC00
FFFC00
FFFC00
FFFC00
FFFC00
FFFC00
FFFC00
FFFC00
FFFC00
FFFC00
FFFC00
FFFC00
FFFC00
FFFC00
FFFC00
FFFC00
FFFC00
FFFC00
FFFC00
FFFC00
FFFC00
FFFC00
FFFC00
FFFC00
FFFC00
FFFC00
FFFC00
FFFC00
FFFC00
FFFC00
FFFC00
FFFC00
FFFC00
FFFC00
FFFC00
FFFC00
FFFC00
FFFC00
FFFC00
FFFC00
FFFC00
FFFC00
FFFC00
FFFC00
FFFC00
FFFC00
FFFC00
FFFC00
FFFC00
FFFC00
ENDCHAR
STARTCHAR 00CE
ENCODING 206
SWIDTH 295 0
DWIDTH 32 0
BBX 43 104 -6 0
BITMAP
0001FFF00000
0003FFF80000
0003FFFC0000
0007FFFE0000
000FFFFF0000
001FFFFF8000
003FFFFFC000
007FFFFFC000
00FFFFFFE000
01FFF9FFF000
01FFF0FFF800
03FFE07FFC00
07FFC07FFE00
0FFF803FFF00
1FFF801FFF80
3FFF000FFF80
7FFE0007FFC0
FFFC0003FFE0
000000000000
000000000000
000000000000
000000000000
000000000000
000000000000
000000000000
000000000000
0001FFF80000
0001FFF80000
0001FFF80000
0001FFF80000
0001FFF80000
0001FFF80000
0001FFF80000
0001FFF80000
0001FFF80000
0001FFF80000
0001FFF80000
0001FFF80000
0001FFF80000
0001FFF80000
0001FFF80000
0001FFF80000
0001FFF80000
0001FFF80000
0001FFF80000
0001FFF80000
0001FFF80000
0001FFF80000
0001FFF80000
0001FFF80000
0001FFF80000
0001FFF80000
0001FFF80000
0001FFF80000
0001FFF80000
0001FFF80000
0001FFF80000
0001FFF80000
0001FFF80000
0001FFF80000
0001FFF80000
0001FFF80000
0001FFF80000
0001FFF80000
0001FFF80000
0001FFF80000
0001FFF80000
0001FFF80000
0001FFF80000
0001FFF80000
0001FFF80000
0001FFF80000
0001FFF80000
0001FFF80000
0001FFF80000
0001FFF80000
0001FFF80000
0001FFF80000
0001FFF80000
0001FFF80000
0001FFF80000
0001FFF80000
0001FFF80000
0001FFF80000
0001FFF80000
0001FFF80000
0001FFF80000
0001FFF80000
0001FFF80000
0001FFF80000
0001FFF80000
0001FFF80000
0001FFF80000
0001FFF80000
0001FFF80000
0001FFF80000
0001FFF80000
0001FFF80000
0001FFF80000
0001FFF80000
0001FFF80000
0001FFF80000
0001FFF80000
0001FFF80000
ENDCHAR
STARTCHAR 00CF
ENCODING 207
SWIDTH 295 0
DWIDTH 32 0
BBX 36 99 -2 0
BITMAP
FFF801FFF0
FFF801FFF0
FFF801FFF0
FFF801FFF0
FFF801FFF0
FFF801FFF0
FFF801FFF0
FFF801FFF0
FFF801FFF0
FFF801FFF0
FFF801FFF0
FFF801FFF0
FFF801FFF0
0000000000
0000000000
0000000000
0000000000
0000000000
0000000000
0000000000
0000000000
001FFF8000
001FFF8000
001FFF8000
001FFF8000
001FFF8000
001FFF8000
001FFF8000
001FFF8000
001FFF8000
001FFF8000
001FFF8000
001FFF8000
001FFF8000
001FFF8000
001FFF8000
001FFF8000
001FFF8000
001FFF8000
001FFF8000
001FFF8000
001FFF8000
001FFF8000
001FFF8000
001FFF8000
001FFF8000
001FFF8000
001FFF8000
001FFF8000
001FFF8000
001FFF8000
001FFF8000
001FFF8000
001FFF8000
001FFF8000
001FFF8000
001FFF8000
001FFF8000
001FFF8000
001FFF8000
001FFF8000
001FFF8000
001FFF8000
001FFF8000
001FFF8000
001FFF8000
001FFF8000
001FFF8000
001FFF8000
001FFF8000
001FFF8000
001FFF8000
001FFF8000
001FFF8000
001FFF8000
001FFF8000
001FFF8000
001FFF8000
001FFF8000
001FFF8000
001FFF8000
001FFF8000
001FFF8000
001FFF8000
001FFF8000
001FFF8000
001FFF8000
001FFF8000
001FFF8000
001FFF8000
001FFF8000
001FFF8000
001FFF8000
001FFF8000
001FFF8000
001FFF8000
001FFF8000
001FFF8000
001FFF8000
ENDCHAR
STARTCHAR 00D0
ENCODING 208
SWIDTH 710 0
DWIDTH 77 0
BBX 71 78 1 0
BITMAP
01FFFFFFFFC0000000
01FFFFFFFFFE000000
01FFFFFFFFFFC00000
01FFFFFFFFFFF00000
01FFFFFFFFFFFC0000
01FFFFFFFFFFFE0000
01FFFFFFFFFFFF8000
01FFFFFFFFFFFFC000
01FFFFFFFFFFFFE000
01FFFFFFFFFFFFF000
01FFFFFFFFFFFFF800
01FFFFFFFFFFFFFC00
01FFFFFFFFFFFFFE00
01FFFFFFFFFFFFFF00
01FFFC00007FFFFF00
01FFFC00000FFFFF80
01FFFC000003FFFF80
01FFFC000001FFFFC0
01FFFC000000FFFFE0
01FFFC0000007FFFE0
01FFFC0000003FFFE0
01FFFC0000001FFFF0
01FFFC0000001FFFF0
01FFFC0000000FFFF8
01FFFC0000000FFFF8
01FFFC00000007FFF8
01FFFC00000007FFF8
01FFFC00000003FFFC
01FFFC00000003FFFC
01FFFC00000003FFFC
01FFFC00000003FFFC
01FFFC00000001FFFC
01FFFC00000001FFFE
FFFFFFFFF80001FFFE
FFFFFFFFF80001FFFE
FFFFFFFFF80001FFFE
FFFFFFFFF80001FFFE
FFFFFFFFF80001FFFE
FFFFFFFFF80001FFFE
FFFFFFFFF80001FFFE
FFFFFFFFF80001FFFE
FFFFFFFFF80001FFFE
FFFFFFFFF80001FFFE
FFFFFFFFF80001FFFE
01FFFC00000001FFFE
01FFFC00000001FFFC
01FFFC00000001FFFC
01FFFC00000003FFFC
01FFFC00000003FFFC
01FFFC00000003FFFC
01FFFC00000003FFFC
01FFFC00000007FFF8
01FFFC00000007FFF8
01FFFC0000000FFFF8
01FFFC0000000FFFF8
01FFFC0000001FFFF0
01FFFC0000001FFFF0
01FFFC0000003FFFE0
01FFFC0000007FFFE0
01FFFC000000FFFFC0
01FFFC000001FFFFC0
01FFFC000003FFFF80
01FFFC00000FFFFF80
01FFFC00007FFFFF00
01FFFFFFFFFFFFFF00
01FFFFFFFFFFFFFE00
01FFFFFFFFFFFFFC00
01FFFFFFFFFFFFF800
01FFFFFFFFFFFFF000
01FFFFFFFFFFFFE000
01FFFFFFFFFFFFC000
01FFFFFFFFFFFF8000
01FFFFFFFFFFFE0000
01FFFFFFFFFFFC0000
01FFFFFFFFFFF00000
01FFFFFFFFFFC00000
01FFFFFFFFFE000000
01FFFFFFFFC0000000
ENDCHAR
STARTCHAR 00D1
ENCODING 209
SWIDTH 729 0
DWIDTH 79 0
BBX 63 105 8 0
BITMAP
00000FC000000000
00007FF800000000
0000FFFE001FF000
0001FFFF001FF000
0003FFFFC01FF000
0003FFFFE01FF000
0007FFFFF81FF000
0007FFFFFC3FF000
0007FFFFFFFFF000
0007FFFFFFFFF000
0007FFFFFFFFF000
0007FE0FFFFFF000
0007FC07FFFFF000
0007FC01FFFFE000
0007FC00FFFFE000
0007FC003FFFC000
0007FC001FFF8000
0000000007FE0000
0000000000400000
0000000000000000
0000000000000000
0000000000000000
0000000000000000
0000000000000000
0000000000000000
0000000000000000
0000000000000000
FFFE00000000FFFE
FFFF00000000FFFE
FFFF00000000FFFE
FFFF80000000FFFE
FFFF80000000FFFE
FFFFC0000000FFFE
FFFFE0000000FFFE
FFFFE0000000FFFE
FFFFF0000000FFFE
FFFFF8000000FFFE
FFFFF8000000FFFE
FFFFFC000000FFFE
FFFFFE000000FFFE
FFFFFE000000FFFE
FFFFFF000000FFFE
FFFFFF800000FFFE
FFFFFF800000FFFE
FFFFFFC00000FFFE
FFFFFFE00000FFFE
FFFFFFE00000FFFE
FFFFFFF00000FFFE
FFFFFFF80000FFFE
FFFFFFF80000FFFE
FFFFFFFC0000FFFE
FFFFFFFE0000FFFE
FFFFFFFE0000FFFE
FFFFFFFF0000FFFE
FFFFFFFF0000FFFE
FFFEFFFF8000FFFE
FFFE7FFFC000FFFE
FFFE7FFFC000FFFE
FFFE3FFFE000FFFE
FFFE1FFFF000FFFE
FFFE1FFFF000FFFE
FFFE0FFFF800FFFE
FFFE07FFFC00FFFE
FFFE07FFFC00FFFE
FFFE03FFFE00FFFE
FFFE01FFFF00FFFE
FFFE01FFFF00FFFE
FFFE00FFFF80FFFE
FFFE007FFFC0FFFE
FFFE007FFFC0FFFE
FFFE003FFFE0FFFE
FFFE001FFFF0FFFE
FFFE001FFFF0FFFE
FFFE000FFFF8FFFE
FFFE0007FFFCFFFE
FFFE0007FFFCFFFE
FFFE0003FFFEFFFE
FFFE0003FFFEFFFE
FFFE0001FFFFFFFE
FFFE0000FFFFFFFE
FFFE0000FFFFFFFE
FFFE00007FFFFFFE
FFFE00003FFFFFFE
FFFE00003FFFFFFE
FFFE00001FFFFFFE
FFFE00000FFFFFFE
FFFE00000FFFFFFE
FFFE000007FFFFFE
FFFE000003FFFFFE
FFFE000003FFFFFE
FFFE000001FFFFFE
FFFE000000FFFFFE
FFFE000000FFFFFE
FFFE0000007FFFFE
FFFE0000003FFFFE
FFFE0000003FFFFE
FFFE0000001FFFFE
FFFE0000000FFFFE
FFFE0000000FFFFE
FFFE00000007FFFE
FFFE00000007FFFE
FFFE00000003FFFE
FFFE00000001FFFE
FFFE00000001FFFE
FFFE00000000FFFE
ENDCHAR
STARTCHAR 00D2
ENCODING 210
SWIDTH 756 0
DWIDTH 82 0
BBX 76 110 3 -2
BITMAP
000003FF800000000000
000001FFC00000000000
000001FFC00000000000
000001FFC00000000000
000000FFE00000000000
000000FFE00000000000
0000007FF00000000000
0000007FF00000000000
0000003FF00000000000
0000003FF80000000000
0000003FF80000000000
0000001FFC0000000000
0000001FFC0000000000
0000000FFE0000000000
0000000FFE0000000000
0000000FFE0000000000
00000007FF0000000000
00000007FF0000000000
00000003FF8000000000
00000003FF8000000000
00000001FFC000000000
00000001FFC000000000
00000000000000000000
00000000000000000000
00000000000000000000
00000000000000000000
00000000000000000000
00000000000000000000
00000001FFF800000000
0000003FFFFFC0000000
000001FFFFFFF8000000
000007FFFFFFFE000000
00001FFFFFFFFF800000
00007FFFFFFFFFE00000
0000FFFFFFFFFFF00000
0003FFFFFFFFFFFC0000
0007FFFFFFFFFFFE0000
000FFFFFFFFFFFFF0000
001FFFFFFFFFFFFF8000
003FFFFFFFFFFFFFC000
007FFFFFFFFFFFFFE000
00FFFFFFFFFFFFFFF000
00FFFFFF001FFFFFF000
01FFFFF80001FFFFF800
03FFFFE000007FFFFC00
03FFFF8000001FFFFC00
07FFFF0000000FFFFE00
07FFFE00000007FFFE00
0FFFFC00000003FFFF00
0FFFF800000001FFFF00
1FFFF000000000FFFF80
1FFFF000000000FFFF80
1FFFE0000000007FFF80
3FFFE0000000007FFFC0
3FFFC0000000003FFFC0
3FFFC0000000003FFFC0
3FFFC0000000003FFFC0
7FFF80000000001FFFE0
7FFF80000000001FFFE0
7FFF80000000001FFFE0
7FFF80000000001FFFE0
7FFF00000000000FFFE0
7FFF00000000000FFFE0
FFFF00000000000FFFF0
FFFF00000000000FFFF0
FFFF00000000000FFFF0
FFFF00000000000FFFF0
FFFF00000000000FFFF0
FFFF00000000000FFFF0
FFFF00000000000FFFF0
FFFF00000000000FFFF0
FFFF00000000000FFFF0
FFFF00000000000FFFF0
FFFF00000000000FFFF0
FFFF00000000000FFFF0
7FFF00000000000FFFE0
7FFF00000000000FFFE0
7FFF80000000001FFFE0
7FFF80000000001FFFE0
7FFF80000000001FFFE0
7FFF80000000001FFFE0
3FFFC0000000003FFFC0
3FFFC0000000003FFFC0
3FFFC0000000003FFFC0
3FFFE0000000007FFFC0
1FFFE0000000007FFF80
1FFFF000000000FFFF80
1FFFF800000000FFFF80
0FFFF800000001FFFF00
0FFFFC00000003FFFF00
07FFFE00000007FFFE00
07FFFF0000000FFFFE00
03FFFF8000001FFFFC00
03FFFFE000007FFFFC00
01FFFFF80001FFFFF800
00FFFFFF000FFFFFF000
007FFFFFFFFFFFFFF000
007FFFFFFFFFFFFFE000
003FFFFFFFFFFFFFC000
001FFFFFFFFFFFFF8000
000FFFFFFFFFFFFF0000
0007FFFFFFFFFFFE0000
0003FFFFFFFFFFFC0000
0000FFFFFFFFFFF00000
00007FFFFFFFFFE00000
00001FFFFFFFFF800000
000007FFFFFFFE000000
000001FFFFFFF8000000
0000001FFFFFC0000000
00000001FFF800000000
ENDCHAR
STARTCHAR 00D3
ENCODING 211
SWIDTH 756 0
DWIDTH 82 0
BBX 76 110 3 -2
BITMAP
00000000003FF8000000
00000000003FF0000000
00000000007FF0000000
00000000007FF0000000
0000000000FFE0000000
0000000000FFE0000000
0000000001FFC0000000
0000000001FFC0000000
0000000001FF80000000
0000000003FF80000000
0000000003FF80000000
0000000007FF00000000
0000000007FF00000000
000000000FFE00000000
000000000FFE00000000
000000000FFE00000000
000000001FFC00000000
000000001FFC00000000
000000003FF800000000
000000003FF800000000
000000007FF000000000
000000007FF000000000
00000000000000000000
00000000000000000000
00000000000000000000
00000000000000000000
00000000000000000000
00000000000000000000
00000001FFF800000000
0000003FFFFFC0000000
000001FFFFFFF8000000
000007FFFFFFFE000000
00001FFFFFFFFF800000
00007FFFFFFFFFE00000
0000FFFFFFFFFFF00000
0003FFFFFFFFFFFC0000
0007FFFFFFFFFFFE0000
000FFFFFFFFFFFFF0000
001FFFFFFFFFFFFF8000
003FFFFFFFFFFFFFC000
007FFFFFFFFFFFFFE000
00FFFFFFFFFFFFFFF000
00FFFFFF001FFFFFF000
01FFFFF80001FFFFF800
03FFFFE000007FFFFC00
03FFFF8000001FFFFC00
07FFFF0000000FFFFE00
07FFFE00000007FFFE00
0FFFFC00000003FFFF00
0FFFF800000001FFFF00
1FFFF000000000FFFF80
1FFFF000000000FFFF80
1FFFE0000000007FFF80
3FFFE0000000007FFFC0
3FFFC0000000003FFFC0
3FFFC0000000003FFFC0
3FFFC0000000003FFFC0
7FFF80000000001FFFE0
7FFF80000000001FFFE0
7FFF80000000001FFFE0
7FFF80000000001FFFE0
7FFF00000000000FFFE0
7FFF00000000000FFFE0
FFFF00000000000FFFF0
FFFF00000000000FFFF0
FFFF00000000000FFFF0
FFFF00000000000FFFF0
FFFF00000000000FFFF0
FFFF00000000000FFFF0
FFFF00000000000FFFF0
FFFF00000000000FFFF0
FFFF00000000000FFFF0
FFFF00000000000FFFF0
FFFF00000000000FFFF0
FFFF00000000000FFFF0
7FFF00000000000FFFE0
7FFF00000000000FFFE0
7FFF80000000001FFFE0
7FFF80000000001FFFE0
7FFF80000000001FFFE0
7FFF80000000001FFFE0
3FFFC0000000003FFFC0
3FFFC0000000003FFFC0
3FFFC0000000003FFFC0
3FFFE0000000007FFFC0
1FFFE0000000007FFF80
1FFFF000000000FFFF80
1FFFF800000000FFFF80
0FFFF800000001FFFF00
0FFFFC00000003FFFF00
07FFFE00000007FFFE00
07FFFF0000000FFFFE00
03FFFF8000001FFFFC00
03FFFFE000007FFFFC00
01FFFFF80001FFFFF800
00FFFFFF000FFFFFF000
007FFFFFFFFFFFFFF000
007FFFFFFFFFFFFFE000
003FFFFFFFFFFFFFC000
001FFFFFFFFFFFFF8000
000FFFFFFFFFFFFF0000
0007FFFFFFFFFFFE0000
0003FFFFFFFFFFFC0000
0000FFFFFFFFFFF00000
00007FFFFFFFFFE00000
00001FFFFFFFFF800000
000007FFFFFFFE000000
000001FFFFFFF8000000
0000001FFFFFC0000000
00000001FFF800000000
ENDCHAR
STARTCHAR 00D4
ENCODING 212
SWIDTH 756 0
DWIDTH 82 0
BBX 76 106 3 -2
BITMAP
00000001FFF000000000
00000003FFF800000000
00000003FFFC00000000
00000007FFFE00000000
0000000FFFFF00000000
0000001FFFFF80000000
0000003FFFFFC0000000
0000007FFFFFC0000000
000000FFFFFFE0000000
000001FFF9FFF0000000
000001FFF0FFF8000000
000003FFE07FFC000000
000007FFC07FFE000000
00000FFF803FFF000000
00001FFF801FFF800000
00003FFF000FFF800000
00007FFE0007FFC00000
00007FFC0003FFE00000
00000000000000000000
00000000000000000000
00000000000000000000
00000000000000000000
00000000000000000000
00000000000000000000
00000001FFF800000000
0000003FFFFFC0000000
000001FFFFFFF8000000
000007FFFFFFFE000000
00001FFFFFFFFF800000
00007FFFFFFFFFE00000
0000FFFFFFFFFFF00000
0003FFFFFFFFFFFC0000
0007FFFFFFFFFFFE0000
000FFFFFFFFFFFFF0000
001FFFFFFFFFFFFF8000
003FFFFFFFFFFFFFC000
007FFFFFFFFFFFFFE000
00FFFFFFFFFFFFFFF000
00FFFFFF001FFFFFF000
01FFFFF80001FFFFF800
03FFFFE000007FFFFC00
03FFFF8000001FFFFC00
07FFFF0000000FFFFE00
07FFFE00000007FFFE00
0FFFFC00000003FFFF00
0FFFF800000001FFFF00
1FFFF000000000FFFF80
1FFFF000000000FFFF80
1FFFE0000000007FFF80
3FFFE0000000007FFFC0
3FFFC0000000003FFFC0
3FFFC0000000003FFFC0
3FFFC0000000003FFFC0
7FFF80000000001FFFE0
7FFF80000000001FFFE0
7FFF80000000001FFFE0
7FFF80000000001FFFE0
7FFF00000000000FFFE0
7FFF00000000000FFFE0
FFFF00000000000FFFF0
FFFF00000000000FFFF0
FFFF00000000000FFFF0
FFFF00000000000FFFF0
FFFF00000000000FFFF0
FFFF00000000000FFFF0
FFFF00000000000FFFF0
FFFF00000000000FFFF0
FFFF00000000000FFFF0
FFFF00000000000FFFF0
FFFF00000000000FFFF0
FFFF00000000000FFFF0
7FFF00000000000FFFE0
7FFF00000000000FFFE0
7FFF80000000001FFFE0
7FFF80000000001FFFE0
7FFF80000000001FFFE0
7FFF80000000001FFFE0
3FFFC0000000003FFFC0
3FFFC0000000003FFFC0
3FFFC0000000003FFFC0
3FFFE0000000007FFFC0
1FFFE0000000007FFF80
1FFFF000000000FFFF80
1FFFF800000000FFFF80
0FFFF800000001FFFF00
0FFFFC00000003FFFF00
07FFFE00000007FFFE00
07FFFF0000000FFFFE00
03FFFF8000001FFFFC00
03FFFFE000007FFFFC00
01FFFFF80001FFFFF800
00FFFFFF000FFFFFF000
007FFFFFFFFFFFFFF000
007FFFFFFFFFFFFFE000
003FFFFFFFFFFFFFC000
001FFFFFFFFFFFFF8000
000FFFFFFFFFFFFF0000
0007FFFFFFFFFFFE0000
0003FFFFFFFFFFFC0000
0000FFFFFFFFFFF00000
00007FFFFFFFFFE00000
00001FFFFFFFFF800000
000007FFFFFFFE000000
000001FFFFFFF8000000
0000001FFFFFC0000000
00000001FFF800000000
ENDCHAR
STARTCHAR 00D5
ENCODING 213
SWIDTH 756 0
DWIDTH 82 0
BBX 76 107 3 -1
BITMAP
000000FFC00000000000
000001FFF0007FC00000
000003FFF8007FC00000
000007FFFE007FC00000
00000FFFFF007FC00000
00000FFFFFC07FE00000
00001FFFFFF0FFE00000
00001FFFFFFFFFE00000
00001FFFFFFFFFE00000
00001FFFFFFFFFC00000
00001FF87FFFFFC00000
00001FF81FFFFFC00000
00001FF00FFFFFC00000
00001FF003FFFF800000
00001FF001FFFF000000
00001FF0007FFE000000
00000000003FFC000000
000000000007F0000000
00000000000000000000
00000000000000000000
00000000000000000000
00000000000000000000
00000000000000000000
00000000000000000000
00000000000000000000
00000001FFF800000000
0000003FFFFFC0000000
000001FFFFFFF8000000
000007FFFFFFFE000000
00001FFFFFFFFF800000
00007FFFFFFFFFE00000
0000FFFFFFFFFFF00000
0003FFFFFFFFFFFC0000
0007FFFFFFFFFFFE0000
000FFFFFFFFFFFFF0000
001FFFFFFFFFFFFF8000
003FFFFFFFFFFFFFC000
007FFFFFFFFFFFFFE000
00FFFFFFFFFFFFFFF000
00FFFFFF001FFFFFF000
01FFFFF80001FFFFF800
03FFFFE000007FFFFC00
03FFFF8000001FFFFC00
07FFFF0000000FFFFE00
07FFFE00000007FFFE00
0FFFFC00000003FFFF00
0FFFF800000001FFFF00
1FFFF000000000FFFF80
1FFFF000000000FFFF80
1FFFE0000000007FFF80
3FFFE0000000007FFFC0
3FFFC0000000003FFFC0
3FFFC0000000003FFFC0
3FFFC0000000003FFFC0
7FFF80000000001FFFE0
7FFF80000000001FFFE0
7FFF80000000001FFFE0
7FFF80000000001FFFE0
7FFF00000000000FFFE0
7FFF00000000000FFFE0
FFFF00000000000FFFF0
FFFF00000000000FFFF0
FFFF00000000000FFFF0
FFFF00000000000FFFF0
FFFF00000000000FFFF0
FFFF00000000000FFFF0
FFFF00000000000FFFF0
FFFF00000000000FFFF0
FFFF00000000000FFFF0
FFFF00000000000FFFF0
FFFF00000000000FFFF0
FFFF00000000000FFFF0
7FFF00000000000FFFE0
7FFF00000000000FFFE0
7FFF80000000001FFFE0
7FFF80000000001FFFE0
7FFF80000000001FFFE0
7FFF80000000001FFFE0
3FFFC0000000003FFFC0
3FFFC0000000003FFFC0
3FFFC0000000003FFFC0
3FFFE0000000007FFFC0
1FFFE0000000007FFF80
1FFFF000000000FFFF80
1FFFF800000000FFFF80
0FFFF800000001FFFF00
0FFFFC00000003FFFF00
07FFFE00000007FFFE00
07FFFF0000000FFFFE00
03FFFF8000001FFFFC00
03FFFFE000007FFFFC00
01FFFFF80001FFFFF800
00FFFFFF000FFFFFF000
007FFFFFFFFFFFFFF000
007FFFFFFFFFFFFFE000
003FFFFFFFFFFFFFC000
001FFFFFFFFFFFFF8000
000FFFFFFFFFFFFF0000
0007FFFFFFFFFFFE0000
0003FFFFFFFFFFFC0000
0000FFFFFFFFFFF00000
00007FFFFFFFFFE00000
00001FFFFFFFFF800000
000007FFFFFFFE000000
000001FFFFFFF8000000
0000001FFFFFC0000000
00000001FFF800000000
ENDCHAR
STARTCHAR 00D6
ENCODING 214
SWIDTH 756 0
DWIDTH 82 0
BBX 76 102 3 -2
BITMAP
00000FFF801FFF000000
00000FFF801FFF000000
00000FFF801FFF000000
00000FFF801FFF000000
00000FFF801FFF000000
00000FFF801FFF000000
00000FFF801FFF000000
00000FFF801FFF000000
00000FFF801FFF000000
00000FFF801FFF000000
00000FFF801FFF000000
00000FFF801FFF000000
00000FFF801FFF000000
00000000000000000000
00000000000000000000
00000000000000000000
00000000000000000000
00000000000000000000
00000000000000000000
00000000000000000000
00000001FFF800000000
0000003FFFFFC0000000
000001FFFFFFF8000000
000007FFFFFFFE000000
00001FFFFFFFFF800000
00007FFFFFFFFFE00000
0000FFFFFFFFFFF00000
0003FFFFFFFFFFFC0000
0007FFFFFFFFFFFE0000
000FFFFFFFFFFFFF0000
001FFFFFFFFFFFFF8000
003FFFFFFFFFFFFFC000
007FFFFFFFFFFFFFE000
00FFFFFFFFFFFFFFF000
00FFFFFF001FFFFFF000
01FFFFF80001FFFFF800
03FFFFE000007FFFFC00
03FFFF8000001FFFFC00
07FFFF0000000FFFFE00
07FFFE00000007FFFE00
0FFFFC00000003FFFF00
0FFFF800000001FFFF00
1FFFF000000000FFFF80
1FFFF000000000FFFF80
1FFFE0000000007FFF80
3FFFE0000000007FFFC0
3FFFC0000000003FFFC0
3FFFC0000000003FFFC0
3FFFC0000000003FFFC0
7FFF80000000001FFFE0
7FFF80000000001FFFE0
7FFF80000000001FFFE0
7FFF80000000001FFFE0
7FFF00000000000FFFE0
7FFF00000000000FFFE0
FFFF00000000000FFFF0
FFFF00000000000FFFF0
FFFF00000000000FFFF0
FFFF00000000000FFFF0
FFFF00000000000FFFF0
FFFF00000000000FFFF0
FFFF00000000000FFFF0
FFFF00000000000FFFF0
FFFF00000000000FFFF0
FFFF00000000000FFFF0
FFFF00000000000FFFF0
FFFF00000000000FFFF0
7FFF00000000000FFFE0
7FFF00000000000FFFE0
7FFF80000000001FFFE0
7FFF80000000001FFFE0
7FFF80000000001FFFE0
7FFF80000000001FFFE0
3FFFC0000000003FFFC0
3FFFC0000000003FFFC0
3FFFC0000000003FFFC0
3FFFE0000000007FFFC0
1FFFE0000000007FFF80
1FFFF000000000FFFF80
1FFFF800000000FFFF80
0FFFF800000001FFFF00
0FFFFC00000003FFFF00
07FFFE00000007FFFE00
07FFFF0000000FFFFE00
03FFFF8000001FFFFC00
03FFFFE000007FFFFC00
01FFFFF80001FFFFF800
00FFFFFF000FFFFFF000
007FFFFFFFFFFFFFF000
007FFFFFFFFFFFFFE000
003FFFFFFFFFFFFFC000
001FFFFFFFFFFFFF8000
000FFFFFFFFFFFFF0000
0007FFFFFFFFFFFE0000
0003FFFFFFFFFFFC0000
0000FFFFFFFFFFF00000
00007FFFFFFFFFE00000
00001FFFFFFFFF800000
000007FFFFFFFE000000
000001FFFFFFF8000000
0000001FFFFFC0000000
00000001FFF800000000
ENDCHAR
STARTCHAR 00D7
ENCODING 215
SWIDTH 516 0
DWIDTH 56 0
BBX 42 42 7 19
BITMAP
018000006000
03C00000F000
07E00001F800
0FF00003FC00
1FF80007FE00
3FFC000FFF00
7FFE001FFF80
FFFF003FFFC0
7FFF807FFF80
3FFFC0FFFF00
1FFFE1FFFE00
0FFFF3FFFC00
07FFFFFFF800
03FFFFFFF000
01FFFFFFE000
00FFFFFFC000
007FFFFF8000
003FFFFF0000
001FFFFE0000
000FFFFC0000
0007FFF80000
000FFFFC0000
001FFFFE0000
003FFFFF0000
007FFFFF8000
00FFFFFFC000
01FFFFFFE000
03FFFFFFF000
07FFFFFFF800
0FFFF3FFFC00
1FFFE1FFFE00
3FFFC0FFFF00
7FFF807FFF80
FFFF003FFFC0
FFFE001FFFC0
7FFC000FFF80
3FF80007FF00
1FF00003FE00
0FE00001FC00
07C00000F800
038000007000
010000002000
ENDCHAR
STARTCHAR 00D8
ENCODING 216
SWIDTH 756 0
DWIDTH 82 0
BBX 76 82 3 -2
BITMAP
00000001FFF800000000
0000003FFFFF80004000
000001FFFFFFF000E000
000007FFFFFFFC01F000
00001FFFFFFFFF03F800
00007FFFFFFFFFC7FC00
0000FFFFFFFFFFE7FF00
0003FFFFFFFFFFFFFF80
0007FFFFFFFFFFFFFFC0
000FFFFFFFFFFFFFFFE0
001FFFFFFFFFFFFFFFF0
003FFFFFFFFFFFFFFFE0
007FFFFFFFFFFFFFFFC0
00FFFFFFFFFFFFFFFF80
00FFFFFF000FFFFFFF00
01FFFFF80001FFFFFE00
03FFFFE000007FFFFC00
03FFFF8000001FFFFC00
07FFFF0000003FFFFC00
07FFFE0000007FFFFE00
0FFFFC000000FFFFFE00
0FFFF8000001FFFFFF00
1FFFF0000003FFFFFF00
1FFFF0000007FFFFFF80
1FFFE000000FFFFFFF80
3FFFE000000FFFFFFF80
3FFFC000001FFFFFFFC0
3FFFC000003FFFFFFFC0
3FFFC000007FFFFFFFC0
7FFF800000FFFFDFFFE0
7FFF800001FFFF9FFFE0
7FFF800003FFFF1FFFE0
7FFF800007FFFE1FFFE0
7FFF000007FFFC0FFFE0
7FFF00000FFFF80FFFE0
FFFF00001FFFF80FFFF0
FFFF00003FFFF00FFFF0
FFFF00007FFFE00FFFF0
FFFF0000FFFFC00FFFF0
FFFF0001FFFF800FFFF0
FFFF0003FFFF000FFFF0
FFFF0003FFFE000FFFF0
FFFF0007FFFC000FFFF0
FFFF000FFFFC000FFFF0
FFFF001FFFF8000FFFF0
FFFF003FFFF0000FFFF0
FFFF007FFFE0000FFFF0
7FFF00FFFFC0000FFFF0
7FFF01FFFF80000FFFE0
7FFF81FFFF00001FFFE0
7FFF83FFFF00001FFFE0
7FFF87FFFE00001FFFE0
7FFF8FFFFC00001FFFE0
3FFFDFFFF800003FFFE0
3FFFFFFFF000003FFFC0
3FFFFFFFE000003FFFC0
3FFFFFFFC000007FFFC0
1FFFFFFF8000007FFF80
1FFFFFFF800000FFFF80
1FFFFFFF000000FFFF80
0FFFFFFE000001FFFF00
0FFFFFFC000003FFFF00
07FFFFF8000007FFFE00
07FFFFF000000FFFFE00
03FFFFE000001FFFFC00
03FFFFE000007FFFFC00
01FFFFF80001FFFFF800
03FFFFFF000FFFFFF000
03FFFFFFFFFFFFFFF000
07FFFFFFFFFFFFFFE000
0FFFFFFFFFFFFFFFC000
1FFFFFFFFFFFFFFF8000
3FFFFFFFFFFFFFFF0000
1FFFFFFFFFFFFFFE0000
0FFFFFFFFFFFFFFC0000
03FFFFFFFFFFFFF00000
01FFBFFFFFFFFFE00000
00FF0FFFFFFFFF800000
007E03FFFFFFFE000000
001C00FFFFFFF8000000
0008001FFFFFC0000000
00000001FFF800000000
ENDCHAR
STARTCHAR 00D9
ENCODING 217
SWIDTH 729 0
DWIDTH 79 0
BBX 63 109 8 -2
BITMAP
00003FF800000000
00001FF800000000
00001FFC00000000
00001FFC00000000
00000FFE00000000
00000FFE00000000
000007FF00000000
000007FF00000000
000007FF00000000
000003FF80000000
000003FF80000000
000001FFC0000000
000001FFC0000000
000000FFE0000000
000000FFE0000000
000000FFE0000000
0000007FF0000000
0000007FF0000000
0000003FF8000000
0000003FF8000000
0000001FFC000000
0000000000000000
0000000000000000
0000000000000000
0000000000000000
0000000000000000
0000000000000000
0000000000000000
0000000000000000
FFFE00000000FFFE
FFFE00000000FFFE
FFFE00000000FFFE
FFFE00000000FFFE
FFFE00000000FFFE
FFFE00000000FFFE
FFFE00000000FFFE
FFFE00000000FFFE
FFFE00000000FFFE
FFFE00000000FFFE
FFFE00000000FFFE
FFFE00000000FFFE
FFFE00000000FFFE
FFFE00000000FFFE
FFFE00000000FFFE
FFFE00000000FFFE
FFFE00000000FFFE
FFFE00000000FFFE
FFFE00000000FFFE
FFFE00000000FFFE
FFFE00000000FFFE
FFFE00000000FFFE
FFFE00000000FFFE
FFFE00000000FFFE
FFFE00000000FFFE
FFFE00000000FFFE
FFFE00000000FFFE
FFFE00000000FFFE
FFFE00000000FFFE
FFFE00000000FFFE
FFFE00000000FFFE
FFFE00000000FFFE
FFFE00000000FFFE
FFFE00000000FFFE
FFFE00000000FFFE
FFFE00000000FFFE
FFFE00000000FFFE
FFFE00000000FFFE
FFFE00000000FFFE
FFFE00000000FFFE
FFFE00000000FFFE
FFFE00000000FFFE
FFFE00000000FFFE
FFFE00000000FFFE
FFFE00000000FFFE
FFFE00000000FFFE
FFFE00000000FFFE
FFFE00000000FFFE
FFFE00000000FFFE
FFFE00000000FFFE
FFFE00000000FFFE
FFFE00000000FFFE
FFFE00000000FFFE
FFFE00000000FFFE
FFFE00000001FFFE
FFFF00000001FFFC
FFFF00000001FFFC
FFFF80000003FFFC
7FFF80000007FFFC
7FFFC0000007FFFC
7FFFE000000FFFF8
3FFFF000001FFFF8
3FFFF800003FFFF0
1FFFFC00007FFFF0
1FFFFF0001FFFFF0
0FFFFFC00FFFFFE0
0FFFFFFFFFFFFFC0
07FFFFFFFFFFFFC0
03FFFFFFFFFFFF80
03FFFFFFFFFFFF00
01FFFFFFFFFFFE00
00FFFFFFFFFFFC00
007FFFFFFFFFF800
001FFFFFFFFFF000
000FFFFFFFFFE000
0003FFFFFFFF8000
0001FFFFFFFE0000
00003FFFFFF80000
000007FFFFC00000
0000007FFC000000
ENDCHAR
STARTCHAR 00DA
ENCODING 218
SWIDTH 729 0
DWIDTH 79 0
BBX 63 109 8 -2
BITMAP
000000003FF80000
000000003FF80000
000000003FF00000
000000007FF00000
000000007FF00000
00000000FFE00000
00000000FFE00000
00000001FFC00000
00000001FFC00000
00000001FFC00000
00000003FF800000
00000003FF800000
00000007FF000000
00000007FF000000
0000000FFE000000
0000000FFE000000
0000000FFE000000
0000001FFC000000
0000001FFC000000
0000003FF8000000
0000003FF8000000
0000000000000000
0000000000000000
0000000000000000
0000000000000000
0000000000000000
0000000000000000
0000000000000000
0000000000000000
FFFE00000000FFFE
FFFE00000000FFFE
FFFE00000000FFFE
FFFE00000000FFFE
FFFE00000000FFFE
FFFE00000000FFFE
FFFE00000000FFFE
FFFE00000000FFFE
FFFE00000000FFFE
FFFE00000000FFFE
FFFE00000000FFFE
FFFE00000000FFFE
FFFE00000000FFFE
FFFE00000000FFFE
FFFE00000000FFFE
FFFE00000000FFFE
FFFE00000000FFFE
FFFE00000000FFFE
FFFE00000000FFFE
FFFE00000000FFFE
FFFE00000000FFFE
FFFE00000000FFFE
FFFE00000000FFFE
FFFE00000000FFFE
FFFE00000000FFFE
FFFE00000000FFFE
FFFE00000000FFFE
FFFE00000000FFFE
FFFE00000000FFFE
FFFE00000000FFFE
FFFE00000000FFFE
FFFE00000000FFFE
FFFE00000000FFFE
FFFE00000000FFFE
FFFE00000000FFFE
FFFE00000000FFFE
FFFE00000000FFFE
FFFE00000000FFFE
FFFE00000000FFFE
FFFE00000000FFFE
FFFE00000000FFFE
FFFE00000000FFFE
FFFE00000000FFFE
FFFE00000000FFFE
FFFE00000000FFFE
FFFE00000000FFFE
FFFE00000000FFFE
FFFE00000000FFFE
FFFE00000000FFFE
FFFE00000000FFFE
FFFE00000000FFFE
FFFE00000000FFFE
FFFE00000000FFFE
FFFE00000000FFFE
FFFE00000001FFFE
FFFF00000001FFFC
FFFF00000001FFFC
FFFF80000003FFFC
7FFF80000007FFFC
7FFFC0000007FFFC
7FFFE000000FFFF8
3FFFF000001FFFF8
3FFFF800003FFFF0
1FFFFC00007FFFF0
1FFFFF0001FFFFF0
0FFFFFC00FFFFFE0
0FFFFFFFFFFFFFC0
07FFFFFFFFFFFFC0
03FFFFFFFFFFFF80
03FFFFFFFFFFFF00
01FFFFFFFFFFFE00
00FFFFFFFFFFFC00
007FFFFFFFFFF800
001FFFFFFFFFF000
000FFFFFFFFFE000
0003FFFFFFFF8000
0001FFFFFFFE0000
00003FFFFFF80000
000007FFFFC00000
0000007FFC000000
ENDCHAR
STARTCHAR 00DB
ENCODING 219
SWIDTH 729 0
DWIDTH 79 0
BBX 63 106 8 -2
BITMAP
0000007FFC000000
000000FFFC000000
000001FFFE000000
000003FFFF000000
000007FFFF800000
00000FFFFFC00000
00001FFFFFE00000
00003FFFFFF00000
00003FFFFFF80000
00007FFCFFF80000
0000FFF87FFC0000
0001FFF03FFE0000
0003FFE01FFF0000
0007FFE00FFF8000
000FFFC00FFFC000
000FFF8007FFE000
001FFF0003FFF000
003FFE0001FFF000
0000000000000000
0000000000000000
0000000000000000
0000000000000000
0000000000000000
0000000000000000
0000000000000000
0000000000000000
FFFE00000000FFFE
FFFE00000000FFFE
FFFE00000000FFFE
FFFE00000000FFFE
FFFE00000000FFFE
FFFE00000000FFFE
FFFE00000000FFFE
FFFE00000000FFFE
FFFE00000000FFFE
FFFE00000000FFFE
FFFE00000000FFFE
FFFE00000000FFFE
FFFE00000000FFFE
FFFE00000000FFFE
FFFE00000000FFFE
FFFE00000000FFFE
FFFE00000000FFFE
FFFE00000000FFFE
FFFE00000000FFFE
FFFE00000000FFFE
FFFE00000000FFFE
FFFE00000000FFFE
FFFE00000000FFFE
FFFE00000000FFFE
FFFE00000000FFFE
FFFE00000000FFFE
FFFE00000000FFFE
FFFE00000000FFFE
FFFE00000000FFFE
FFFE00000000FFFE
FFFE00000000FFFE
FFFE00000000FFFE
FFFE00000000FFFE
FFFE00000000FFFE
FFFE00000000FFFE
FFFE00000000FFFE
FFFE00000000FFFE
FFFE00000000FFFE
FFFE00000000FFFE
FFFE00000000FFFE
FFFE00000000FFFE
FFFE00000000FFFE
FFFE00000000FFFE
FFFE00000000FFFE
FFFE00000000FFFE
FFFE00000000FFFE
FFFE00000000FFFE
FFFE00000000FFFE
FFFE00000000FFFE
FFFE00000000FFFE
FFFE00000000FFFE
FFFE00000000FFFE
FFFE00000000FFFE
FFFE00000000FFFE
FFFE00000001FFFE
FFFF00000001FFFC
FFFF00000001FFFC
FFFF80000003FFFC
7FFF80000007FFFC
7FFFC0000007FFFC
7FFFE000000FFFF8
3FFFF000001FFFF8
3FFFF800003FFFF0
1FFFFC00007FFFF0
1FFFFF0001FFFFF0
0FFFFFC00FFFFFE0
0FFFFFFFFFFFFFC0
07FFFFFFFFFFFFC0
03FFFFFFFFFFFF80
03FFFFFFFFFFFF00
01FFFFFFFFFFFE00
00FFFFFFFFFFFC00
007FFFFFFFFFF800
001FFFFFFFFFF000
000FFFFFFFFFE000
0003FFFFFFFF8000
0001FFFFFFFE0000
00003FFFFFF80000
000007FFFFC00000
0000007FFC000000
ENDCHAR
STARTCHAR 00DC
ENCODING 220
SWIDTH 729 0
DWIDTH 79 0
BBX 63 101 8 -2
BITMAP
0007FFC00FFF8000
0007FFC00FFF8000
0007FFC00FFF8000
0007FFC00FFF8000
0007FFC00FFF8000
0007FFC00FFF8000
0007FFC00FFF8000
0007FFC00FFF8000
0007FFC00FFF8000
0007FFC00FFF8000
0007FFC00FFF8000
0007FFC00FFF8000
0007FFC00FFF8000
0000000000000000
0000000000000000
0000000000000000
0000000000000000
0000000000000000
0000000000000000
0000000000000000
0000000000000000
FFFE00000000FFFE
FFFE00000000FFFE
FFFE00000000FFFE
FFFE00000000FFFE
FFFE00000000FFFE
FFFE00000000FFFE
FFFE00000000FFFE
FFFE00000000FFFE
FFFE00000000FFFE
FFFE00000000FFFE
FFFE00000000FFFE
FFFE00000000FFFE
FFFE00000000FFFE
FFFE00000000FFFE
FFFE00000000FFFE
FFFE00000000FFFE
FFFE00000000FFFE
FFFE00000000FFFE
FFFE00000000FFFE
FFFE00000000FFFE
FFFE00000000FFFE
FFFE00000000FFFE
FFFE00000000FFFE
FFFE00000000FFFE
FFFE00000000FFFE
FFFE00000000FFFE
FFFE00000000FFFE
FFFE00000000FFFE
FFFE00000000FFFE
FFFE00000000FFFE
FFFE00000000FFFE
FFFE00000000FFFE
FFFE00000000FFFE
FFFE00000000FFFE
FFFE00000000FFFE
FFFE00000000FFFE
FFFE00000000FFFE
FFFE00000000FFFE
FFFE00000000FFFE
FFFE00000000FFFE
FFFE00000000FFFE
FFFE00000000FFFE
FFFE00000000FFFE
FFFE00000000FFFE
FFFE00000000FFFE
FFFE00000000FFFE
FFFE00000000FFFE
FFFE00000000FFFE
FFFE00000000FFFE
FFFE00000000FFFE
FFFE00000000FFFE
FFFE00000000FFFE
FFFE00000000FFFE
FFFE00000000FFFE
FFFE00000001FFFE
FFFF00000001FFFC
FFFF00000001FFFC
FFFF80000003FFFC
7FFF80000007FFFC
7FFFC0000007FFFC
7FFFE000000FFFF8
3FFFF000001FFFF8
3FFFF800003FFFF0
1FFFFC00007FFFF0
1FFFFF0001FFFFF0
0FFFFFC00FFFFFE0
0FFFFFFFFFFFFFC0
07FFFFFFFFFFFFC0
03FFFFFFFFFFFF80
03FFFFFFFFFFFF00
01FFFFFFFFFFFE00
00FFFFFFFFFFFC00
007FFFFFFFFFF800
001FFFFFFFFFF000
000FFFFFFFFFE000
0003FFFFFFFF8000
0001FFFFFFFE0000
00003FFFFFF80000
000007FFFFC00000
0000007FFC000000
ENDCHAR
STARTCHAR 00DD
ENCODING 221
SWIDTH 627 0
DWIDTH 68 0
BBX 68 107 0 0
BITMAP
0000000007FF000000
0000000007FF000000
000000000FFE000000
000000000FFE000000
000000000FFE000000
000000001FFC000000
000000001FFC000000
000000003FF8000000
000000003FF8000000
000000007FF0000000
000000007FF0000000
000000007FF0000000
00000000FFE0000000
00000000FFE0000000
00000001FFC0000000
00000001FFC0000000
00000003FF80000000
00000003FF80000000
00000003FF80000000
00000007FF00000000
00000007FF00000000
000000000000000000
000000000000000000
000000000000000000
000000000000000000
000000000000000000
000000000000000000
000000000000000000
000000000000000000
FFFFC00000001FFFF0
7FFFC00000003FFFE0
7FFFE00000003FFFE0
3FFFE00000007FFFC0
1FFFF0000000FFFFC0
1FFFF0000000FFFF80
0FFFF8000001FFFF80
0FFFFC000001FFFF00
07FFFC000003FFFE00
07FFFE000003FFFE00
03FFFE000007FFFC00
01FFFF00000FFFFC00
01FFFF00000FFFF800
00FFFF80001FFFF000
00FFFFC0001FFFF000
007FFFC0003FFFE000
007FFFE0003FFFE000
003FFFE0007FFFC000
001FFFF000FFFFC000
001FFFF000FFFF8000
000FFFF801FFFF0000
000FFFFC01FFFF0000
0007FFFC03FFFE0000
0003FFFE03FFFE0000
0003FFFE07FFFC0000
0001FFFF0FFFFC0000
0001FFFF0FFFF80000
0000FFFF9FFFF00000
0000FFFFDFFFF00000
00007FFFFFFFE00000
00003FFFFFFFE00000
00003FFFFFFFC00000
00001FFFFFFFC00000
00001FFFFFFF800000
00000FFFFFFF000000
00000FFFFFFF000000
000007FFFFFE000000
000003FFFFFE000000
000003FFFFFC000000
000001FFFFF8000000
000001FFFFF8000000
000000FFFFF0000000
000000FFFFF0000000
0000007FFFE0000000
0000003FFFE0000000
0000003FFFC0000000
0000001FFFC0000000
0000001FFFC0000000
0000001FFFC0000000
0000001FFFC0000000
0000001FFFC0000000
0000001FFFC0000000
0000001FFFC0000000
0000001FFFC0000000
0000001FFFC0000000
0000001FFFC0000000
0000001FFFC0000000
0000001FFFC0000000
0000001FFFC0000000
0000001FFFC0000000
0000001FFFC0000000
0000001FFFC0000000
0000001FFFC0000000
0000001FFFC0000000
0000001FFFC0000000
0000001FFFC0000000
0000001FFFC0000000
0000001FFFC0000000
0000001FFFC0000000
0000001FFFC0000000
0000001FFFC0000000
0000001FFFC0000000
0000001FFFC0000000
0000001FFFC0000000
0000001FFFC0000000
0000001FFFC0000000
0000001FFFC0000000
0000001FFFC0000000
ENDCHAR
STARTCHAR 00DE
ENCODING 222
SWIDTH 646 0
DWIDTH 70 0
BBX 58 78 8 0
BITMAP
FFFE000000000000
FFFE000000000000
FFFE000000000000
FFFE000000000000
FFFE000000000000
FFFE000000000000
FFFE000000000000
FFFE000000000000
FFFE000000000000
FFFE000000000000
FFFE000000000000
FFFE000000000000
FFFE000000000000
FFFFFFFFF8000000
FFFFFFFFFF800000
FFFFFFFFFFE00000
FFFFFFFFFFF80000
FFFFFFFFFFFE0000
FFFFFFFFFFFF0000
FFFFFFFFFFFF8000
FFFFFFFFFFFFC000
FFFFFFFFFFFFE000
FFFFFFFFFFFFF000
FFFFFFFFFFFFF800
FFFFFFFFFFFFFC00
FFFFFFFFFFFFFC00
FFFFFFFFFFFFFE00
FFFE00001FFFFE00
FFFE000007FFFF00
FFFE000001FFFF00
FFFE000000FFFF80
FFFE0000007FFF80
FFFE0000007FFF80
FFFE0000003FFFC0
FFFE0000003FFFC0
FFFE0000001FFFC0
FFFE0000001FFFC0
FFFE0000001FFFC0
FFFE0000001FFFC0
FFFE0000001FFFC0
FFFE0000001FFFC0
FFFE0000001FFFC0
FFFE0000001FFFC0
FFFE0000003FFFC0
FFFE0000003FFFC0
FFFE0000007FFF80
FFFE0000007FFF80
FFFE000000FFFF80
FFFE000001FFFF00
FFFE000007FFFF00
FFFE00001FFFFF00
FFFFFFFFFFFFFE00
FFFFFFFFFFFFFC00
FFFFFFFFFFFFFC00
FFFFFFFFFFFFF800
FFFFFFFFFFFFF000
FFFFFFFFFFFFE000
FFFFFFFFFFFFC000
FFFFFFFFFFFF8000
FFFFFFFFFFFF0000
FFFFFFFFFFFE0000
FFFFFFFFFFF80000
FFFFFFFFFFE00000
FFFFFFFFFF000000
FFFFFFFFF0000000
FFFE000000000000
FFFE000000000000
FFFE000000000000
FFFE000000000000
FFFE000000000000
FFFE000000000000
FFFE000000000000
FFFE000000000000
FFFE000000000000
FFFE000000000000
FFFE000000000000
FFFE000000000000
FFFE000000000000
ENDCHAR
STARTCHAR 00DF
ENCODING 223
SWIDTH 646 0
DWIDTH 70 0
BBX 56 82 7 -2
BITMAP
00001FFE000000
0001FFFFC00000
0007FFFFF80000
001FFFFFFE0000
007FFFFFFF0000
00FFFFFFFFC000
01FFFFFFFFE000
03FFFFFFFFF000
07FFFFFFFFF800
0FFFFFFFFFFC00
1FFFFFFFFFFE00
1FFFFFFFFFFE00
3FFFFFFFFFFF00
3FFFFFFFFFFF00
3FFFF807FFFF80
7FFFE001FFFF80
7FFFC0007FFF80
7FFF80003FFFC0
7FFF80003FFFC0
7FFF00001FFFC0
FFFF00001FFFC0
FFFF00001FFFC0
FFFF00001FFFC0
FFFE00001FFFC0
FFFE00001FFFC0
FFFE00001FFFC0
FFFE00001FFFC0
FFFE00003FFFC0
FFFE00003FFFC0
FFFE00007FFF80
FFFE0001FFFF80
FFFE0007FFFF00
FFFE007FFFFF00
FFFE007FFFFE00
FFFE007FFFFE00
FFFE007FFFFC00
FFFE007FFFF800
FFFE007FFFFE00
FFFE007FFFFF00
FFFE007FFFFF80
FFFE007FFFFFC0
FFFE007FFFFFE0
FFFE007FFFFFF0
FFFE007FFFFFF8
FFFE007FFFFFF8
FFFE0001FFFFFC
FFFE00003FFFFC
FFFE00000FFFFE
FFFE000003FFFE
FFFE000001FFFF
FFFE000000FFFF
FFFE0000007FFF
FFFE0000007FFF
FFFE0000007FFF
FFFE0000003FFF
FFFE0000003FFF
FFFE0000003FFF
FFFE0000003FFF
FFFE0000003FFF
FFFE0000007FFF
FFFE0000007FFF
FFFE0000007FFF
FFFE000000FFFF
FFFE000000FFFF
FFFE000001FFFF
FFFE000003FFFE
FFFE06000FFFFE
FFFE07F1FFFFFE
FFFE07FFFFFFFC
FFFE07FFFFFFFC
FFFE07FFFFFFF8
FFFE07FFFFFFF8
FFFE07FFFFFFF0
FFFE07FFFFFFE0
FFFE07FFFFFFE0
FFFE07FFFFFFC0
FFFE07FFFFFF80
FFFE07FFFFFE00
FFFE07FFFFFC00
FFFE07FFFFF000
000003FFFF8000
0000007FFC0000
ENDCHAR
STARTCHAR 00E0
ENCODING 224
SWIDTH 581 0
DWIDTH 63 0
BBX 53 90 4 -2
BITMAP
0003FF80000000
0003FF80000000
0001FFC0000000
0001FFC0000000
0000FFE0000000
0000FFE0000000
00007FE0000000
00007FF0000000
00007FF0000000
00003FF8000000
00003FF8000000
00001FFC000000
00001FFC000000
00001FFC000000
00000FFE000000
00000FFE000000
000007FF000000
000007FF000000
000003FF800000
000003FF800000
000003FF800000
00000000000000
00000000000000
00000000000000
00000000000000
00000000000000
00000000000000
00000000000000
000007FFC00000
00007FFFFE0000
0003FFFFFF8000
000FFFFFFFE000
001FFFFFFFF800
007FFFFFFFFC00
00FFFFFFFFFE00
01FFFFFFFFFF00
03FFFFFFFFFF80
03FFFFFFFFFFC0
07FFFFFFFFFFC0
0FFFFFFFFFFFE0
0FFFFFFFFFFFE0
1FFFFFEFFFFFE0
1FFFFC003FFFF0
1FFFF0001FFFF0
1FFFE0000FFFF0
03FFC00007FFF0
007F800007FFF0
000F000003FFF8
0001000003FFF8
0000000003FFF8
00000000FFFFF8
0000007FFFFFF8
00000FFFFFFFF8
0000FFFFFFFFF8
0007FFFFFFFFF8
001FFFFFFFFFF8
007FFFFFFFFFF8
01FFFFFFFFFFF8
03FFFFFFFFFFF8
07FFFFFFFFFFF8
0FFFFFFFFFFFF8
1FFFFFFFFFFFF8
1FFFFFFF03FFF8
3FFFFFE003FFF8
3FFFFE0003FFF8
7FFFF00003FFF8
7FFFC00003FFF8
7FFF800007FFF8
7FFF000007FFF8
FFFE000007FFF8
FFFE000007FFF8
FFFE00000FFFF8
FFFE00001FFFF8
FFFE00003FFFF8
FFFE00007FFFF8
7FFF0000FFFFF8
7FFF8001FFFFF8
7FFFC00FFFFFF8
7FFFFFFFFFFFF8
3FFFFFFFFFFFF8
3FFFFFFFFFFFF8
1FFFFFFFFFFFF8
1FFFFFFFFEFFF8
0FFFFFFFFCFFF8
07FFFFFFF8FFF8
03FFFFFFE0FFF8
01FFFFFFC0FFF8
007FFFFF00FFF8
001FFFFC000000
0001FFC0000000
ENDCHAR
STARTCHAR 00E1
ENCODING 225
SWIDTH 581 0
DWIDTH 63 0
BBX 53 90 4 -2
BITMAP
00000000FFE000
00000000FFE000
00000001FFC000
00000001FFC000
00000003FF8000
00000003FF8000
00000007FF0000
00000007FF0000
00000007FF0000
0000000FFE0000
0000000FFE0000
0000001FFC0000
0000001FFC0000
0000003FF80000
0000003FF80000
0000003FF80000
0000007FF00000
0000007FF00000
000000FFE00000
000000FFE00000
000001FFC00000
00000000000000
00000000000000
00000000000000
00000000000000
00000000000000
00000000000000
00000000000000
000007FFC00000
00007FFFFE0000
0003FFFFFF8000
000FFFFFFFE000
001FFFFFFFF800
007FFFFFFFFC00
00FFFFFFFFFE00
01FFFFFFFFFF00
03FFFFFFFFFF80
03FFFFFFFFFFC0
07FFFFFFFFFFC0
0FFFFFFFFFFFE0
0FFFFFFFFFFFE0
1FFFFFEFFFFFE0
1FFFFC003FFFF0
1FFFF0001FFFF0
1FFFE0000FFFF0
03FFC00007FFF0
007F800007FFF0
000F000003FFF8
0001000003FFF8
0000000003FFF8
00000000FFFFF8
0000007FFFFFF8
00000FFFFFFFF8
0000FFFFFFFFF8
0007FFFFFFFFF8
001FFFFFFFFFF8
007FFFFFFFFFF8
01FFFFFFFFFFF8
03FFFFFFFFFFF8
07FFFFFFFFFFF8
0FFFFFFFFFFFF8
1FFFFFFFFFFFF8
1FFFFFFF03FFF8
3FFFFFE003FFF8
3FFFFE0003FFF8
7FFFF00003FFF8
7FFFC00003FFF8
7FFF800007FFF8
7FFF000007FFF8
FFFE000007FFF8
FFFE000007FFF8
FFFE00000FFFF8
FFFE00001FFFF8
FFFE00003FFFF8
FFFE00007FFFF8
7FFF0000FFFFF8
7FFF8001FFFFF8
7FFFC00FFFFFF8
7FFFFFFFFFFFF8
3FFFFFFFFFFFF8
3FFFFFFFFFFFF8
1FFFFFFFFFFFF8
1FFFFFFFFEFFF8
0FFFFFFFFCFFF8
07FFFFFFF8FFF8
03FFFFFFE0FFF8
01FFFFFFC0FFF8
007FFFFF00FFF8
001FFFFC000000
0001FFC0000000
ENDCHAR
STARTCHAR 00E2
ENCODING 226
SWIDTH 581 0
DWIDTH 63 0
BBX 53 86 4 -2
BITMAP
000003FFE00000
000007FFF00000
00000FFFF80000
00001FFFF80000
00003FFFFC0000
00007FFFFE0000
00007FFFFF0000
0000FFFFFF8000
0001FFF7FFC000
0003FFE7FFE000
0007FFC3FFF000
000FFF81FFF000
001FFF80FFF800
003FFF007FFC00
003FFE003FFE00
007FFC003FFF00
00FFF8001FFF80
01FFF0000FFFC0
00000000000000
00000000000000
00000000000000
00000000000000
00000000000000
00000000000000
000007FFC00000
00007FFFFE0000
0003FFFFFF8000
000FFFFFFFE000
001FFFFFFFF800
007FFFFFFFFC00
00FFFFFFFFFE00
01FFFFFFFFFF00
03FFFFFFFFFF80
03FFFFFFFFFFC0
07FFFFFFFFFFC0
0FFFFFFFFFFFE0
0FFFFFFFFFFFE0
1FFFFFEFFFFFE0
1FFFFC003FFFF0
1FFFF0001FFFF0
1FFFE0000FFFF0
03FFC00007FFF0
007F800007FFF0
000F000003FFF8
0001000003FFF8
0000000003FFF8
00000000FFFFF8
0000007FFFFFF8
00000FFFFFFFF8
0000FFFFFFFFF8
0007FFFFFFFFF8
001FFFFFFFFFF8
007FFFFFFFFFF8
01FFFFFFFFFFF8
03FFFFFFFFFFF8
07FFFFFFFFFFF8
0FFFFFFFFFFFF8
1FFFFFFFFFFFF8
1FFFFFFF03FFF8
3FFFFFE003FFF8
3FFFFE0003FFF8
7FFFF00003FFF8
7FFFC00003FFF8
7FFF800007FFF8
7FFF000007FFF8
FFFE000007FFF8
FFFE000007FFF8
FFFE00000FFFF8
FFFE00001FFFF8
FFFE00003FFFF8
FFFE00007FFFF8
7FFF0000FFFFF8
7FFF8001FFFFF8
7FFFC00FFFFFF8
7FFFFFFFFFFFF8
3FFFFFFFFFFFF8
3FFFFFFFFFFFF8
1FFFFFFFFFFFF8
1FFFFFFFFEFFF8
0FFFFFFFFCFFF8
07FFFFFFF8FFF8
03FFFFFFE0FFF8
01FFFFFFC0FFF8
007FFFFF00FFF8
001FFFFC000000
0001FFC0000000
ENDCHAR
ENDFONT
